<?xml version="1.0" encoding="UTF-8"?>
<svg width="32px" height="32px" viewBox="0 0 32 32" version="1.1" xmlns="http://www.w3.org/2000/svg" xmlns:xlink="http://www.w3.org/1999/xlink">
    <!-- Generator: Sketch 58 (84663) - https://sketch.com -->
    <title>linkedin--hover</title>
    <desc>Created with Sketch.</desc>
    <g id="Symbols" stroke="none" stroke-width="1" fill="none" fill-rule="evenodd">
        <g id="Footer-New-Hover" transform="translate(-899.000000, -552.000000)" fill-rule="nonzero">
            <g id="linkedin--hover" transform="translate(899.000000, 552.000000)">
                <circle id="Oval" fill="#F9FAFF" opacity="0.100000001" cx="16" cy="16" r="16"></circle>
                <g id="001-linkedin-sign" transform="translate(6.400000, 6.400000)" fill="#FFC21C">
                    <path d="M18.1245376,1.05503781 C17.4213977,0.351723007 16.574236,0 15.5837084,0 L3.59630433,0 C2.60577677,0 1.75861503,0.351723007 1.05516902,1.05503781 C0.351854214,1.75848383 0.000131207289,2.60560182 0.000131207289,3.59617312 L0.000131207289,15.583446 C0.000131207289,16.5739298 0.351854214,17.4211353 1.05516902,18.1245813 C1.75861503,18.8280273 2.60577677,19.1797503 3.59630433,19.1797503 L15.5835772,19.1797503 C16.5741048,19.1797503 17.4212665,18.8280273 18.1244064,18.1245813 C18.8278524,17.4211353 19.1795754,16.5739736 19.1795754,15.583446 L19.1795754,3.59617312 C19.1795754,2.60560182 18.8278087,1.75835262 18.1245376,1.05503781 Z M5.84388519,16.0578916 L2.95942415,16.0578916 L2.95942415,7.39204374 L5.84388519,7.39204374 L5.84388519,16.0578916 Z M5.5818205,5.787641 C5.28218679,6.07485376 4.88672802,6.218482 4.39553166,6.218482 L4.38293576,6.218482 C3.90849021,6.218482 3.52361549,6.07485376 3.22800547,5.787641 C2.93235171,5.50042825 2.7846123,5.14459408 2.7846123,4.72005103 C2.7846123,4.28719818 2.93663781,3.92917722 3.24038269,3.64607563 C3.54434624,3.3630615 3.93761822,3.22148884 4.42037358,3.22148884 C4.90317267,3.22148884 5.2902779,3.3630615 5.58168929,3.64607563 C5.87301321,3.92917722 6.02289567,4.28719818 6.03116173,4.72005103 C6.031118,5.14441913 5.88145421,5.5002533 5.5818205,5.787641 Z M16.2204137,16.0578916 L13.3359526,16.0578916 L13.3359526,11.4253995 C13.3359526,10.1186187 12.8532847,9.46503144 11.8875991,9.46503144 C11.5213558,9.46503144 11.2131936,9.5669795 10.9635499,9.7709631 C10.7136,9.97481549 10.5263672,10.2224911 10.4016765,10.5140774 C10.3432893,10.6637412 10.3142487,10.8967654 10.3142487,11.2130187 L10.3142487,16.0578916 L7.4297877,16.0578916 C7.45476082,10.8301558 7.45476082,7.94140866 7.4297877,7.39195626 L10.3142487,7.39195626 L10.3142487,8.6154205 C10.9207326,7.66718542 11.7819335,7.19208383 12.8990761,7.19208383 C13.8980009,7.19208383 14.7014269,7.52097677 15.3090916,8.17850023 C15.9168,8.8361549 16.2205886,9.80608292 16.2205886,11.0877595 L16.2205886,16.0578916 L16.2204137,16.0578916 Z" id="Shape"></path>
                </g>
            </g>
        </g>
    </g>
</svg>