<svg xmlns="http://www.w3.org/2000/svg" width="32" height="32" viewBox="0 0 32 32">
    <g fill="none" fill-rule="nonzero">
        <circle cx="16" cy="16" r="16" fill="#F9FAFF" opacity=".1"/>
        <path fill="#FFF" d="M24.525 7.455A3.463 3.463 0 0 0 21.984 6.4H9.996c-.99 0-1.837.352-2.54 1.055A3.464 3.464 0 0 0 6.4 9.996v11.987c0 .99.352 1.838 1.055 2.542a3.464 3.464 0 0 0 2.541 1.055h11.988c.99 0 1.837-.352 2.54-1.055a3.464 3.464 0 0 0 1.056-2.542V9.996c0-.99-.352-1.838-1.055-2.541zM12.244 22.458H9.359v-8.666h2.885v8.666zm-.262-10.27c-.3.287-.695.43-1.186.43h-.013c-.475 0-.86-.143-1.155-.43a1.429 1.429 0 0 1-.443-1.068c0-.433.152-.79.455-1.074.304-.283.698-.425 1.18-.425.483 0 .87.142 1.162.425.291.283.44.641.45 1.074 0 .424-.15.78-.45 1.068zm10.638 10.27h-2.884v-4.633c0-1.306-.483-1.96-1.448-1.96-.367 0-.675.102-.924.306-.25.204-.438.451-.562.743-.059.15-.088.383-.088.699v4.845H13.83c.025-5.228.025-8.117 0-8.666h2.884v1.223c.607-.948 1.468-1.423 2.585-1.423.999 0 1.802.329 2.41.987.608.657.912 1.627.912 2.909v4.97z"/>
    </g>
</svg>
