<?xml version="1.0" encoding="UTF-8"?>
<svg width="32px" height="32px" viewBox="0 0 32 32" version="1.1" xmlns="http://www.w3.org/2000/svg" xmlns:xlink="http://www.w3.org/1999/xlink">
    <!-- Generator: Sketch 58 (84663) - https://sketch.com -->
    <title>medium--hover</title>
    <desc>Created with Sketch.</desc>
    <g id="Symbols" stroke="none" stroke-width="1" fill="none" fill-rule="evenodd">
        <g id="Footer-New-Hover" transform="translate(-987.000000, -552.000000)">
            <g id="medium--hover" transform="translate(987.000000, 552.000000)">
                <circle id="Oval-Copy-3" fill="#F9FAFF" fill-rule="nonzero" opacity="0.100000001" cx="16" cy="16" r="16"></circle>
                <g id="003-medium-size" transform="translate(6.400000, 8.800000)" fill="#FFC21C">
                    <path d="M19.2,2.17163204 L18.1405597,2.17163204 C17.8646981,2.17163204 17.1428628,2.48798715 17.1428628,2.75729951 L17.1428628,12.5372887 C17.1428628,12.8072713 17.8646981,13.0286193 18.1405597,13.0286193 L19.2,13.0286193 L19.2,15.2 L12.3428231,15.2 L12.3428231,13.0286193 L13.7145918,13.0286193 L13.7145918,2.89507652 L13.4758715,2.89507652 L10.1749762,15.2 L7.61928822,15.2 L4.36108957,2.89507652 L4.11431406,2.89507652 L4.11431406,13.0285774 L5.48548754,13.0285774 L5.48548754,15.2 L0,15.2 L0,13.0285774 L0.760801885,13.0285774 C1.05948001,13.0285774 1.37121316,12.8072713 1.37121316,12.5372468 L1.37121316,2.75729951 C1.37121316,2.48794526 1.0595197,2.17163204 0.760801885,2.17163204 L0,2.17163204 L0,0 L7.10903154,0 L9.43020543,8.68560657 L9.49266317,8.68560657 L11.8367329,0 L19.2,0 L19.2,2.17163204 Z" id="Shape"></path>
                </g>
            </g>
        </g>
    </g>
</svg>