<?xml version="1.0" encoding="UTF-8"?>
<svg width="32px" height="32px" viewBox="0 0 32 32" version="1.1" xmlns="http://www.w3.org/2000/svg" xmlns:xlink="http://www.w3.org/1999/xlink">
    <!-- Generator: Sketch 58 (84663) - https://sketch.com -->
    <title>twitter--hover</title>
    <desc>Created with Sketch.</desc>
    <g id="Symbols" stroke="none" stroke-width="1" fill="none" fill-rule="evenodd">
        <g id="Footer-New-Hover" transform="translate(-1119.000000, -552.000000)">
            <g id="twitter--hover" transform="translate(1119.000000, 552.000000)">
                <circle id="Oval-Copy-4" fill="#F9FAFF" fill-rule="nonzero" opacity="0.100000001" cx="16" cy="16" r="16"></circle>
                <g id="006-twitter-logo-silhouette" transform="translate(5.600000, 7.200000)" fill="#FFC21C">
                    <path d="M21.6,2.09425863 C20.805,2.4470008 19.9519765,2.68622651 19.0557176,2.79302811 C19.9708588,2.24428273 20.6713765,1.37389558 21.0033882,0.339948594 C20.1449647,0.848122088 19.1974235,1.21712129 18.1878,1.41715341 C17.3793176,0.553516466 16.2293294,0.0155855422 14.9538,0.0155855422 C12.5067176,0.0155855422 10.5225882,2.00237108 10.5225882,4.45138635 C10.5225882,4.79872129 10.5617294,5.13796305 10.6373294,5.46236145 C6.95523529,5.27717269 3.69021176,3.51070522 1.50497647,0.826493173 C1.12298824,1.48066185 0.905682353,2.24290442 0.905682353,3.05656867 C0.905682353,4.59600321 1.68854118,5.95431325 2.87632941,6.7489992 C2.15015294,6.72468434 1.46717647,6.52465221 0.869258824,6.19216064 L0.869258824,6.2475759 C0.869258824,8.39654297 2.39717647,10.1900466 4.42312941,10.5982394 C4.05194118,10.6982554 3.66052941,10.7536707 3.2556,10.7536707 C2.96947059,10.7536707 2.69276471,10.7252916 2.42145882,10.6712193 C2.98563529,12.4350008 4.62155294,13.7176096 6.5598,13.7527743 C5.04402353,14.9421526 3.13277647,15.6490153 1.05688235,15.6490153 C0.699211765,15.6490153 0.346905882,15.6273863 3.52941176e-05,15.5881928 C1.96122353,16.849208 4.28954118,17.5844498 6.79196471,17.5844498 C14.9430706,17.5844498 19.3986,10.8239647 19.3986,4.96093815 L19.3837412,4.38653494 C20.2543059,3.7647743 21.0074471,2.98358876 21.6,2.09425863 Z" id="Shape"></path>
                </g>
            </g>
        </g>
    </g>
</svg>