<svg xmlns="http://www.w3.org/2000/svg" width="32" height="32" viewBox="0 0 32 32">
    <g fill="none" fill-rule="evenodd">
        <circle cx="16" cy="16" r="16" fill="#F9FAFF" fill-rule="nonzero" opacity=".1"/>
        <path fill="#FFF" d="M27.2 9.294a8.84 8.84 0 0 1-2.544.699 4.454 4.454 0 0 0 1.947-2.453 8.926 8.926 0 0 1-2.815 1.077 4.416 4.416 0 0 0-3.234-1.401 4.434 4.434 0 0 0-4.317 5.446 12.574 12.574 0 0 1-9.132-4.636 4.408 4.408 0 0 0-.6 2.23c0 1.54.784 2.898 1.971 3.693a4.427 4.427 0 0 1-2.007-.557v.056a4.44 4.44 0 0 0 3.554 4.35c-.371.1-.762.156-1.167.156-.287 0-.563-.029-.835-.083a4.434 4.434 0 0 0 4.139 3.082 8.883 8.883 0 0 1-5.503 1.896c-.358 0-.71-.022-1.057-.06a12.513 12.513 0 0 0 6.792 1.995c8.151 0 12.607-6.76 12.607-12.623l-.015-.574A8.855 8.855 0 0 0 27.2 9.294z"/>
    </g>
</svg>
