<svg xmlns="http://www.w3.org/2000/svg" width="32" height="32" viewBox="0 0 32 32">
    <g fill="none" fill-rule="nonzero">
        <circle cx="16" cy="16" r="16" fill="#F9FAFF" opacity=".1"/>
        <path fill="#FFF" d="M27.188 14.313a20.601 20.601 0 0 0-.102-1.536 13.098 13.098 0 0 0-.26-1.66 2.579 2.579 0 0 0-.837-1.383 2.652 2.652 0 0 0-1.501-.653c-1.784-.187-4.48-.281-8.088-.281-3.608 0-6.304.094-8.088.281-.57.06-1.069.278-1.495.653a2.592 2.592 0 0 0-.831 1.383c-.12.488-.211 1.041-.272 1.66a20.62 20.62 0 0 0-.102 1.536A89.4 89.4 0 0 0 5.6 16c0 .72.004 1.283.012 1.687.008.406.042.917.102 1.536.06.619.147 1.172.26 1.66.128.547.407 1.008.837 1.383s.93.593 1.501.653c1.784.187 4.48.281 8.088.281 3.608 0 6.304-.094 8.088-.281a2.623 2.623 0 0 0 1.495-.653c.426-.375.703-.836.831-1.383.12-.488.211-1.041.272-1.66.06-.619.094-1.13.102-1.536.008-.404.012-.967.012-1.687 0-.72-.004-1.283-.012-1.687zm-6.521 2.295l-6.171 3.6a.723.723 0 0 1-.41.112.882.882 0 0 1-.374-.09c-.265-.135-.397-.345-.397-.63v-7.2c0-.285.132-.495.397-.63.273-.135.535-.127.784.023l6.171 3.6a.64.64 0 0 1 .362.607.64.64 0 0 1-.362.608z"/>
    </g>
</svg>
