<?xml version="1.0" encoding="UTF-8"?>
<svg width="32px" height="32px" viewBox="0 0 32 32" version="1.1" xmlns="http://www.w3.org/2000/svg" xmlns:xlink="http://www.w3.org/1999/xlink">
    <!-- Generator: Sketch 58 (84663) - https://sketch.com -->
    <title>youtube--hover</title>
    <desc>Created with Sketch.</desc>
    <g id="Symbols" stroke="none" stroke-width="1" fill="none" fill-rule="evenodd">
        <g id="Footer-New-Hover" transform="translate(-943.000000, -552.000000)" fill-rule="nonzero">
            <g id="youtube--hover" transform="translate(943.000000, 552.000000)">
                <circle id="Oval-Copy" fill="#F9FAFF" opacity="0.100000001" cx="16" cy="16" r="16"></circle>
                <g id="002-youtube-logo" transform="translate(5.600000, 8.800000)" fill="#FFC21C">
                    <path d="M21.5878833,5.51250677 C21.5800307,5.10755726 21.545665,4.5955485 21.4855883,3.97695335 C21.4251739,3.35800356 21.3387529,2.80485757 21.2263677,2.31747599 C21.0977706,1.77004351 20.8184963,1.30874702 20.3886714,0.933744151 C19.9588465,0.558662471 19.4585592,0.341234095 18.8878517,0.281143795 C17.1037891,0.0937802709 14.4078526,0 10.7999578,0 C7.19202073,0 4.49604203,0.0937802709 2.71210611,0.281143795 C2.14148304,0.341194691 1.64317998,0.558662471 1.21740803,0.933744151 C0.791467205,1.30862881 0.514219371,1.7699253 0.38562231,2.31747599 C0.265215607,2.80501519 0.174699488,3.35812177 0.114453918,3.97695335 C0.0542927842,4.5955485 0.0200959294,5.10736024 0.0121166633,5.51250677 C0.00396852388,5.91749569 0,6.47994089 0,7.2 C0,7.9199803 0.00396852388,8.48258312 0.0121588817,8.88749323 C0.0201381478,9.29271857 0.0543350025,9.8044515 0.114496136,10.4230073 C0.174741706,11.0419176 0.261162646,11.5950636 0.37367452,12.082524 C0.502271581,12.6301141 0.781461458,13.0913318 1.21137081,13.466177 C1.64136459,13.8411799 2.14169413,14.0586477 2.71214833,14.1186986 C4.49608425,14.3062591 7.19189408,14.4 10.8,14.4 C14.4082326,14.4 17.1038313,14.3062591 18.8878939,14.1186986 C19.4586014,14.0586871 19.9566934,13.8411799 20.3826342,13.466177 C20.808575,13.0912924 21.085654,12.6298383 21.214251,12.082524 C21.3347422,11.5950636 21.4251739,11.0419176 21.4855883,10.4230073 C21.545665,9.8044909 21.5797774,9.29248215 21.5878833,8.88749323 C21.595947,8.48258312 21.6,7.9199803 21.6,7.2 C21.6,6.47994089 21.5959893,5.91749569 21.5878833,5.51250677 Z M15.0670075,7.80752278 L8.89565737,11.4073849 C8.78310328,11.4823697 8.64635808,11.5198424 8.4857173,11.5198424 C8.36526838,11.5198424 8.24072428,11.4897381 8.11216944,11.429766 C7.84703827,11.2949273 7.7145149,11.084828 7.7145149,10.7999015 L7.7145149,3.60013791 C7.7145149,3.31529019 7.84708048,3.10519086 8.11216944,2.97023396 C8.38544875,2.83504063 8.64652696,2.8426061 8.89565737,2.99273334 L15.0670498,6.59263483 C15.308032,6.71990806 15.4285232,6.92252073 15.4285232,7.2000394 C15.4285232,7.47743987 15.3079898,7.68013134 15.0670075,7.80752278 Z" id="Shape"></path>
                </g>
            </g>
        </g>
    </g>
</svg>