<?xml version="1.0" encoding="UTF-8"?>
<svg width="162px" height="40px" viewBox="0 0 162 40" version="1.1" xmlns="http://www.w3.org/2000/svg" xmlns:xlink="http://www.w3.org/1999/xlink">
    <title>agricycle_logo</title>
    <g id="Homepage-2" stroke="none" stroke-width="1" fill="none" fill-rule="evenodd">
        <g id="Spoonshot---Home-1" transform="translate(-1119.000000, -902.000000)" fill-rule="nonzero">
            <g id="Group-8" transform="translate(108.000000, 885.000000)">
                <g id="agricycle_logo" transform="translate(1011.000000, 17.000000)">
                    <path d="M28.118617,0 C24.9342437,0 21.973034,2.17233269 20.0418103,3.98546077 L19.9388118,4.07953817 L19.8358132,3.98546077 C17.9045895,2.17233269 14.9433798,0 11.7590065,0 C5.3816767,0 0,5.48214668 0,11.9820398 C0,15.1122514 1.22739995,18.0543083 3.450453,20.2694035 L18.0505041,34.7573231 C18.5483307,35.2533675 18.8315768,35.9375668 18.8315768,36.6388711 L18.8315768,39.5210605 C18.8315768,39.7861877 19.0461572,40 19.312237,40 L20.5653865,40 C20.8314663,40 21.0460467,39.7861877 21.0460467,39.5210605 L21.0460467,36.6388711 C21.0460467,35.3559974 20.5224705,34.1073338 19.6126495,33.2007697 L5.01259839,18.7042976 C3.21012294,16.9082745 2.21446984,14.5221296 2.21446984,11.9820398 C2.21446984,6.6794954 6.583327,2.20654266 11.7590065,2.20654266 C13.8618945,2.20654266 16.1278637,3.41244387 18.5139978,5.78148386 L19.6040663,6.8676502 C19.7843139,7.04725251 20.1018929,7.04725251 20.2821404,6.8676502 L21.3722089,5.78148386 C23.7497598,3.41244387 26.0243122,2.20654266 28.1272002,2.20654266 C33.3028797,2.20654266 37.6717369,6.6794954 37.6717369,11.9820398 C37.6717369,14.5221296 36.6760838,16.9082745 34.8736083,18.7042976 L24.4621668,29.0784691 C24.0845053,29.4547787 23.5780955,29.6600385 23.0459361,29.6600385 C22.0245333,29.6600385 21.1662117,28.8988668 21.0546299,27.8811204 L21.0546299,20.209536 L21.9215347,20.209536 C27.3032114,20.209536 31.7836504,16.1984178 32.3587259,10.8445585 C32.3329763,9.74128715 31.6634854,9.07419286 30.4103358,8.92024802 L29.0198547,8.92024802 C25.2861556,8.92024802 21.852869,10.9557409 20.0589768,14.2398974 L19.9302285,14.4793671 L19.8014803,14.2398974 C18.0247545,10.9557409 14.5914679,8.92024802 10.8491856,8.92024802 L9.38145555,8.92024802 C7.93947519,9.09129784 7.55323045,9.93799444 7.4759815,10.6478512 C7.51031437,11.2465256 7.60472975,11.8366474 7.74206121,12.4267693 L7.86222624,12.7688689 L7.82789338,12.7688689 L7.90514233,13.0254437 C9.23554087,17.3187941 13.1494876,20.2009835 17.6642594,20.2009835 L18.8144104,20.2009835 L18.8144104,27.6844131 L18.8315768,27.8554629 C18.9345754,30.0962155 20.779967,31.8580287 23.0373529,31.8580287 C24.1617542,31.8580287 25.2174899,31.4218516 26.015729,30.62647 L36.4185873,20.2522985 C38.6416403,18.0372033 39.860498,15.0951465 39.860498,11.9649348 C39.8776235,5.48214668 34.4873636,0 28.118617,0 Z M21.1318788,17.9773359 L21.1576285,17.8062861 C21.7842033,14.0089801 25.1659906,11.1524482 29.0284379,11.1524482 L30.10134,11.1524482 L30.0755903,11.323498 C29.4575988,15.1208039 26.0758115,17.9773359 22.2047809,17.9773359 L21.1318788,17.9773359 Z M18.7457447,17.9773359 L17.6728426,17.9773359 C13.8103952,17.9773359 10.428608,15.1122514 9.80203315,11.323498 L9.77628351,11.1524482 L10.8491856,11.1524482 C14.7116329,11.1524482 18.0934202,14.0175326 18.719995,17.8062861 L18.7457447,17.9773359 Z" id="Shape" fill="#2F7F3D"></path>
                    <path d="M78.1158527,15.7707932 C78.1158527,15.7194783 78.1158527,15.6767158 78.1158527,15.6254009 C78.090103,15.2747488 77.8583562,15.052384 77.5150275,15.035279 C77.3519464,15.0267265 76.8712863,15.035279 76.742538,15.035279 C76.3477101,15.0438315 76.1159632,15.2661963 76.0730472,15.6852683 L76.1159632,17.6523412 C74.7340654,15.7793457 72.8028417,14.8129143 70.3652082,14.7701518 C68.3567356,14.7273894 66.6486755,15.4115886 65.2667777,16.7885397 C63.4128029,18.6273252 62.6832295,20.9364978 63.1038071,23.6390849 C63.6102169,26.9061364 66.1594322,29.3521488 69.4382209,29.7284584 C71.9702697,30.0192431 74.1074906,29.2067565 75.7983842,27.3252085 C75.9013828,27.2140261 75.9957982,27.0942912 76.0902136,26.9745563 C76.0816304,27.6929656 76.0816304,28.3771648 76.0215479,29.0528116 C75.8498835,31.096857 74.4594025,32.6534103 72.3994305,33.1066923 C71.4037774,33.3290571 70.3308754,33.2862946 69.1034754,32.978405 C68.5884824,32.8501176 68.0649062,32.6790678 67.5499132,32.508018 C67.3868321,32.456703 67.2151678,32.3968356 67.0520867,32.3455206 C66.5800098,32.1915758 66.3139301,32.3113107 66.1250993,32.7560402 L65.9448518,33.1836647 C65.7731874,33.5941843 65.8847693,33.884969 66.2881804,34.0731238 C67.9018251,34.808638 69.4296376,35.1678426 70.9746166,35.1678426 C71.5325257,35.1678426 72.0904347,35.1165277 72.6397606,35.0224503 C74.4765689,34.7145606 75.9185493,33.8165491 76.9313688,32.3711781 C77.7296079,31.2336968 78.1158527,29.9080607 78.1158527,28.3172974 C78.1158527,25.3239256 78.1158527,22.3391063 78.1158527,19.3457344 L78.1158527,15.7707932 Z M76.1159632,22.2877913 C76.1159632,23.7588198 75.549471,25.1272183 74.5280682,26.1449647 C73.489499,27.1798161 72.0732683,27.752833 70.5368726,27.752833 C67.4726643,27.7442805 65.0779469,25.3410306 65.0779469,22.2877913 C65.0779469,19.2088946 67.4640811,16.7970922 70.5197061,16.7970922 C73.6525801,16.7970922 76.1159632,19.2088946 76.1159632,22.2877913 Z" id="Shape" fill="#22356C"></path>
                    <path d="M53.5850201,8.53538593 L53.3876061,8.62091084 L53.5678537,8.50117597 C53.4648551,8.26170622 53.2931908,7.85973915 52.786781,7.85118666 C52.2460384,7.85118666 52.0657908,8.26170622 51.954209,8.50972846 L43.3023269,28.659397 C43.2422443,28.8047894 43.0963297,29.146889 43.267994,29.4120162 C43.4482415,29.685696 43.8087366,29.685696 43.9889842,29.685696 L44.5898093,29.685696 C45.0962191,29.685696 45.3022163,29.5488561 45.4996303,29.0784691 L45.7571268,28.4712422 C46.0403729,27.787043 46.323619,27.1113962 46.6240316,26.3844345 C46.6240316,26.3844345 46.6240316,26.3844345 46.6240316,26.3844345 C50.683893,26.392987 54.8124201,26.392987 58.9066143,26.3844345 C58.9066143,26.3844345 58.9066143,26.392987 58.9066143,26.392987 C59.0868619,26.829164 59.2671094,27.2567885 59.4473569,27.6929656 C59.6104381,28.0692752 59.764936,28.4455848 59.9194338,28.8218944 C60.1855136,29.4633312 60.2970954,29.6771435 60.8292548,29.6771435 L60.9236702,29.6771435 C61.0009191,29.6771435 61.0867513,29.668591 61.2069163,29.6771435 L61.472996,29.6771435 C61.7819918,29.6771435 62.0909876,29.6600385 62.2540687,29.4120162 C62.4171498,29.163994 62.3141512,28.8732093 62.1939862,28.5909771 L53.5850201,8.53538593 Z M58.0482927,24.3489416 L47.4909365,24.3489416 L52.7696146,11.7340175 L58.0482927,24.3489416 Z" id="Shape" fill="#22356C"></path>
                    <path d="M160.291567,17.1477443 C159.132832,15.8221082 157.596437,15.0438315 155.725296,14.8556767 C153.510826,14.6247595 151.596768,15.2319863 150.034623,16.6602523 C148.111983,18.4220654 147.296577,20.662818 147.605573,23.3140902 C147.897402,25.8114176 149.167718,27.7015181 151.373605,28.9416292 C152.532339,29.600171 153.785489,29.9251657 155.081554,29.9251657 C156.017125,29.9251657 156.995612,29.7541159 157.991265,29.4120162 C158.883919,29.1041266 159.682158,28.6337396 160.351649,28.0265127 C160.729311,27.6844131 160.75506,27.3850759 160.437481,26.9745563 L160.334483,26.846269 C160.257234,26.7436391 160.179985,26.6495617 160.102736,26.5469318 C159.956821,26.3673295 159.79374,26.2646996 159.604909,26.2475946 C159.433245,26.2304896 159.252998,26.2989096 159.089916,26.4443019 C158.102847,27.316656 156.909779,27.7955955 155.545048,27.8640154 C153.553742,27.9580928 151.940097,27.2396836 150.729864,25.7258927 C150.146205,24.9989309 149.802876,24.1693393 149.682711,23.2029078 L160.772227,23.2029078 C161.52755,23.2029078 161.999627,22.7410733 161.999627,22.0055591 C162.016793,20.1069061 161.441718,18.4648279 160.291567,17.1477443 Z M159.922488,21.2272824 L149.717044,21.2272824 C149.768543,20.9022878 149.862959,20.5687406 149.991707,20.226641 C150.635448,18.5674578 151.888598,17.421424 153.510826,16.985247 C155.12447,16.5576224 156.901196,16.9082745 158.154346,17.9174685 C159.132832,18.7042976 159.707908,19.7648065 159.913905,21.1588625 C159.913905,21.1759675 159.922488,21.201625 159.922488,21.2272824 Z" id="Shape" fill="#22356C"></path>
                    <path d="M125.55529,15.0438315 C125.375042,15.0438315 125.186212,15.0438315 125.005964,15.0438315 L124.885799,15.0438315 C124.379389,15.0438315 124.181975,15.1721189 123.993144,15.6425059 L119.581371,26.4785119 L115.178181,15.6254009 C115.109515,15.4629036 114.955018,15.0780415 114.50869,15.052384 C114.191111,15.035279 113.847783,15.035279 113.461538,15.052384 C113.221208,15.0609365 113.09246,15.1892239 113.04096,15.2576438 C112.980878,15.3346162 112.903629,15.4971135 112.972295,15.7365833 C112.989461,15.8050032 113.015211,15.8648706 113.04096,15.9247381 L114.646022,19.773359 C115.924921,22.8437032 117.20382,25.9140475 118.48272,28.9758392 C118.517052,29.0528116 118.508469,29.0784691 118.48272,29.1383365 C118.070725,30.1304255 117.667314,31.1225144 117.263903,32.1146034 L116.731743,33.431687 C116.628745,33.6711567 116.534329,33.9106265 116.439914,34.1586487 C116.345499,34.389566 116.354082,34.5948257 116.465664,34.7487706 C116.568662,34.9112679 116.757493,34.9967928 117.006406,34.9967928 C117.075072,34.9967928 117.152321,34.9967928 117.220987,34.9967928 L117.504233,34.9967928 C118.105058,34.9967928 118.233806,34.9112679 118.465553,34.355356 L125.108963,18.396408 C125.452291,17.5753688 125.79562,16.7457772 126.138949,15.9247381 C126.181865,15.8221082 126.30203,15.5313235 126.138949,15.3004062 C125.984451,15.052384 125.675455,15.0438315 125.55529,15.0438315 Z" id="Path" fill="#22356C"></path>
                    <path d="M109.015432,17.4299765 C109.41026,17.6181313 109.787921,17.8832585 110.157,18.1398332 C110.277165,18.2253581 110.39733,18.310883 110.517495,18.3878555 C110.620493,18.4562754 110.843657,18.6102202 111.09257,18.5589053 C111.315734,18.5161428 111.453065,18.345093 111.530314,18.2253581 C111.641896,18.0543083 111.753478,17.891811 111.86506,17.7207612 C112.113973,17.3358991 112.071057,17.0451144 111.727728,16.7628822 C109.684923,15.0951465 107.43612,14.4964721 105.041403,14.9754116 C101.530867,15.6852683 99.0503175,18.7128501 99.0245679,22.3818687 C99.0417343,22.5272611 99.0589007,22.6726534 99.067484,22.8180458 C99.0932336,23.1173829 99.1275665,23.4594826 99.1962322,23.7930297 C99.5996434,25.837075 100.766961,27.5817832 102.475021,28.693607 C103.693838,29.4889887 105.118652,29.9080607 106.586382,29.9080607 C107.152874,29.9080607 107.719366,29.8481933 108.277275,29.7284584 C109.564758,29.4462262 110.732075,28.8475518 111.744895,27.9495403 C112.062474,27.6758606 112.096806,27.3679709 111.86506,27.0173188 L111.804977,26.9317939 C111.701979,26.777849 111.607563,26.6324567 111.504565,26.4785119 C111.3844,26.3160145 111.247068,26.2133846 111.083987,26.1877272 C110.920906,26.1620697 110.749242,26.2048322 110.58616,26.324567 C110.543244,26.358777 110.491745,26.392987 110.448829,26.4357494 L110.39733,26.4785119 C108.989682,27.6416506 107.41037,28.0778277 105.70231,27.769938 C103.839752,27.4363908 102.346273,26.2561471 101.616699,24.5199914 C100.878543,22.7752833 101.067373,20.7911054 102.131692,19.2259996 C103.625172,16.9937994 106.534882,16.2411802 109.015432,17.4299765 Z" id="Path" fill="#22356C"></path>
                    <path d="M131.992702,17.3444516 C133.460432,16.6944623 135.151326,16.7286722 136.636222,17.4299765 C137.039633,17.6181313 137.425878,17.891811 137.794956,18.1569382 C137.897955,18.2339106 138.009537,18.310883 138.112535,18.379303 C138.292783,18.4990378 138.481614,18.6016677 138.704777,18.5589053 C138.953691,18.5075903 139.099605,18.2937781 139.176854,18.1740432 C139.279853,18.0200984 139.374268,17.874706 139.477267,17.7207612 C139.72618,17.3358991 139.683264,17.0451144 139.339935,16.7628822 C137.29713,15.0951465 135.048327,14.4964721 132.65361,14.9754116 C129.125908,15.6852683 126.662525,18.78127 126.662525,22.5272611 L126.679691,22.7068634 C126.696858,22.9035707 126.714024,23.1772504 126.748357,23.4423776 C126.78269,23.6903998 126.834189,23.955527 126.920021,24.2634167 C127.486514,26.392987 128.859828,28.1120376 130.773885,29.0955741 C131.846787,29.6429335 132.996938,29.9166132 134.181422,29.9166132 C135.116993,29.9166132 136.04398,29.7455634 136.953801,29.4034638 C137.829289,29.0699166 138.636112,28.5909771 139.339935,27.9666453 C139.674681,27.6758606 139.709014,27.3594184 139.468684,27.0002138 L139.400018,26.8890314 C139.305603,26.7521916 139.21977,26.6153517 139.116772,26.4785119 C138.996607,26.3160145 138.859275,26.2133846 138.687611,26.1877272 C138.52453,26.1535172 138.352866,26.2048322 138.189784,26.324567 C138.138285,26.358777 138.095369,26.4015394 138.04387,26.4443019 C138.026703,26.4614069 138.009537,26.4785119 137.983787,26.4956168 C136.558973,27.6587556 134.979661,28.0863802 133.263018,27.769938 C131.700873,27.4791533 130.396224,26.5811418 129.580818,25.2384007 C128.765413,23.8956596 128.559416,22.2535814 129.014326,20.731238 C129.469237,19.2088946 130.559305,17.9773359 131.992702,17.3444516 Z" id="Path" fill="#22356C"></path>
                    <path d="M144.481282,8.0906564 C144.361117,7.97092153 144.206619,7.91105409 144.000622,7.91105409 L143.691626,7.91105409 C143.62296,7.91105409 143.562878,7.91105409 143.494212,7.91105409 C143.1938,7.91105409 142.910553,7.91105409 142.738889,8.08210391 C142.66164,8.15907633 142.567225,8.30446868 142.567225,8.54393842 L142.567225,28.8475518 L142.567225,28.9159718 C142.567225,28.9501817 142.567225,28.9758392 142.567225,29.0100492 C142.558642,29.2495189 142.644474,29.4034638 142.730306,29.4804362 C142.807555,29.5659611 142.962053,29.6600385 143.219549,29.6600385 L143.86329,29.6600385 C144.464116,29.6600385 144.652946,29.4633312 144.652946,28.8732093 L144.652946,8.55249091 C144.652946,8.36433611 144.601447,8.21039128 144.481282,8.0906564 Z" id="Path" fill="#22356C"></path>
                    <path d="M91.376922,15.8734231 C90.2954368,15.1293564 89.2482844,14.7701518 88.1582159,14.7958093 C86.4501558,14.8385717 85.1540901,15.5142185 84.1155209,16.9082745 L84.1155209,15.7023733 C84.0811881,15.2490913 83.8494412,15.035279 83.3945308,15.0267265 C83.3430315,15.0267265 82.9739532,15.0267265 82.9310371,15.0267265 L82.8795378,15.0267265 C82.2357965,15.0267265 82.0469658,15.2148813 82.0469658,15.8477657 L82.0469658,28.8475518 C82.0469658,28.9245243 82.0469658,29.0014967 82.0469658,29.0784691 C82.055549,29.4120162 82.2872958,29.634381 82.6048749,29.6429335 C82.767956,29.6429335 82.9396203,29.651486 83.1027014,29.651486 C83.2571993,29.651486 83.403114,29.651486 83.5490287,29.6429335 C83.8837741,29.634381 84.1069377,29.4034638 84.1155209,29.0528116 L84.1155209,20.8167629 C84.1155209,19.5167843 84.5704314,18.4648279 85.4545027,17.6779987 C86.4244062,16.8227496 87.5316411,16.5234124 88.7418746,16.7799872 C89.2225347,16.8826171 89.7031948,17.1049818 90.2525207,17.4641864 C90.3812689,17.5497114 90.5872661,17.6608937 90.8104298,17.6095788 C91.0421766,17.5582638 91.1795081,17.370109 91.2653402,17.2332692 C91.3597556,17.0793244 91.454171,16.9253795 91.5485864,16.7714347 C91.7803332,16.44644 91.7116675,16.1043404 91.376922,15.8734231 Z" id="Path" fill="#22356C"></path>
                    <path d="M95.539782,15.035279 C95.419617,15.035279 95.2994519,15.035279 95.1707037,15.035279 L94.9561233,15.035279 C94.6728771,15.0267265 94.4239639,15.0267265 94.2522995,15.1977764 C94.0806352,15.3688262 94.0806352,15.5911909 94.0806352,15.8905281 L94.0806352,28.8218944 L94.0806352,29.0357066 C94.0806352,29.2666239 94.1664674,29.4120162 94.2437163,29.4889887 C94.3209653,29.5659611 94.4668799,29.668591 94.70721,29.668591 L95.1192044,29.668591 L95.3767009,29.668591 C95.9517764,29.668591 96.1491904,29.4633312 96.1491904,28.8817618 L96.1491904,15.8734231 L96.1491904,15.6425059 C96.1491904,15.2833013 95.9088603,15.0438315 95.539782,15.035279 Z" id="Path" fill="#22356C"></path>
                    <path d="M95.1277876,9.86102202 L95.1277876,9.86102202 C94.7587093,9.86102202 94.3982142,10.0149669 94.1407177,10.2800941 C93.874638,10.5452213 93.7201401,10.9044259 93.7201401,11.272183 C93.7201401,11.6399401 93.8660548,11.9905923 94.1321345,12.247167 C94.3982142,12.5037417 94.7501261,12.6491341 95.1277876,12.6491341 C95.9002771,12.6491341 96.5268519,12.0333547 96.5354351,11.2807355 C96.5354351,10.9129784 96.3895204,10.5452213 96.1234407,10.2800941 C95.8401946,10.0149669 95.4968659,9.86102202 95.1277876,9.86102202 Z" id="Path" fill="#22356C"></path>
                </g>
            </g>
        </g>
    </g>
</svg>