<?xml version="1.0" encoding="UTF-8"?>
<svg width="118px" height="60px" viewBox="0 0 118 60" version="1.1" xmlns="http://www.w3.org/2000/svg" xmlns:xlink="http://www.w3.org/1999/xlink">
    <title>bakeLogo</title>
    <g id="Visual-Designs" stroke="none" stroke-width="1" fill="none" fill-rule="evenodd">
        <g id="Spoonshot---Home" transform="translate(-150.000000, -5449.000000)">
            <g id="bakeLogo" transform="translate(150.000000, 5449.000000)">
                <rect id="Rectangle" fill-opacity="0.01" fill="#FFFFFF" opacity="0.01" x="0" y="0" width="118" height="60"></rect>
                <g style="mix-blend-mode: multiply;" transform="translate(13.000000, 15.000000)" fill="#E31B23" fill-rule="nonzero">
                    <path d="M5.45199227,0 L5.45199227,11.3517912 C7.77198898,9.01356085 10.9039845,8.7413267 11.951725,8.7413267 C17.2128788,8.73759747 21.9464205,13.4252458 21.9464205,20.730817 C21.9464205,28.8791954 16.4457831,32.9962708 11.6336609,32.9962708 C10.3165015,32.9962708 7.81689214,32.7203074 5.40708911,29.9271104 L5.40708911,32.3063623 L0,32.3063623 L0,0 L5.45199227,0 Z M10.9077265,27.7828003 C13.8601094,27.7828003 16.3597187,25.2208159 16.3597187,20.3243304 C16.3597187,17.2551701 14.5897858,13.7310431 10.6832107,13.7310431 C7.41276368,13.7310431 5.36592326,16.6137417 5.36592326,20.3243304 C5.36218595,25.2618375 7.63353756,27.7828003 10.9077265,27.7828003 Z" id="path6"></path>
                    <path d="M38.6653645,32.3100915 L38.5418808,30.5275172 C36.6336523,32.0161574 34.2857513,32.8354625 31.8625355,32.8582891 C26.6687364,32.8582891 23.5741601,29.7033563 23.5741601,25.8585151 C23.5741601,20.8837157 27.3535096,18.8997627 31.6679551,18.1240818 C34.0381762,17.7261572 36.3766614,17.1590979 38.6653645,16.4272799 C38.6653645,14.6894564 38.1639459,12.9963838 34.7587894,12.9963838 C30.6426662,12.9963838 30.1674411,15.2339247 30.1674411,16.4272799 L24.6256425,16.1102949 C24.7154488,14.5962256 25.0335129,8.73759747 34.5754348,8.73759747 C41.2547802,8.73759747 44.1173568,11.2100802 44.1173568,15.237654 L44.1173568,28.603232 C44.1173568,30.3410555 44.2071631,30.840773 45.1164522,32.3063623 L38.6653645,32.3063623 L38.6653645,32.3100915 Z M38.6653645,20.9172788 C37.3046838,21.5738701 35.8465022,22.00707 34.3471771,22.2001356 C31.8475677,22.5730591 29.3479584,23.0727766 29.3479584,25.3550684 C29.3479584,26.8691378 30.3470537,28.1482653 33.0898886,28.1482653 C35.5894979,28.1482653 38.6803323,26.8654085 38.6803323,23.9864391 L38.6653645,20.9172788 Z" id="path8"></path>
                    <polygon id="path10" points="62.9242979 32.3100915 56.0653399 22.0621539 52.8809573 25.2170867 52.8809573 32.3026331 47.4738682 32.3026331 47.4738682 0 52.8809573 0 52.8809573 18.1688326 61.7418479 9.42750593 68.6943542 9.42750593 60.0130762 18.1688326 69.5512562 32.3100915"></polygon>
                    <path d="M74.011637,21.9726523 C74.1014433,23.1137982 75.134216,27.6410894 80.4140795,27.6410894 C84.2757515,27.6410894 85.9147169,25.2618375 86.3674904,24.4861566 L91,27.1823935 C89.1814219,29.6548763 85.8660718,33 79.9164028,33 C73.1435092,33 68.2378387,28.3309979 68.2378387,20.7345463 C68.2378387,12.5302294 73.7384761,8.7413267 79.6432419,8.7413267 C88.320778,8.7413267 90.8166454,15.7485592 90.8166454,21.9726523 L74.011637,21.9726523 Z M84.8220733,17.9450785 C84.732267,16.7964742 84.0025906,13.1343655 79.7367902,13.1343655 C75.246474,13.1343655 74.3783461,17.0276867 74.1949916,17.9450785 L84.8220733,17.9450785 Z" id="path12"></path>
                </g>
            </g>
        </g>
    </g>
</svg>