<?xml version="1.0" encoding="UTF-8"?>
<svg width="71px" height="71px" viewBox="0 0 71 71" version="1.1" xmlns="http://www.w3.org/2000/svg" xmlns:xlink="http://www.w3.org/1999/xlink">
    <title>competitive advantage</title>
    <defs>
        <linearGradient x1="100%" y1="50%" x2="0%" y2="50%" id="linearGradient-1">
            <stop stop-color="#F6F5FF" stop-opacity="0.242242133" offset="0%"></stop>
            <stop stop-color="#FABB12" stop-opacity="0.281960227" offset="100%"></stop>
        </linearGradient>
    </defs>
    <g id="Symbols" stroke="none" stroke-width="1" fill="none" fill-rule="evenodd">
        <g id="Say-goodbye-to-stale" transform="translate(0.000000, -1600.000000)">
            <g id="competitive-advantage" transform="translate(0.000000, 1600.000000)">
                <circle id="Oval-Copy-15" fill="url(#linearGradient-1)" opacity="0.54" cx="35.5" cy="35.5" r="35.5"></circle>
                <g id="003-ranking" transform="translate(15.000000, 15.000000)" fill-rule="nonzero">
                    <path d="M38.4725284,33.9273324 L35.5879809,33.9273324 L35.5879809,19.1936546 C35.5879809,18.59258 35.0995961,18.1036205 34.499306,18.1036205 L25.5863996,18.1036205 L25.5863996,13.8555208 C25.5863996,13.2544462 25.0980147,12.7654867 24.4977246,12.7654867 L15.5022754,12.7654867 C14.9019072,12.7654867 14.4136004,13.2544462 14.4136004,13.8555208 L14.4136004,18.0109731 C14.4136004,18.334809 14.6757539,18.5973492 14.9992874,18.5973492 C15.3228209,18.5973492 15.5849744,18.334809 15.5849744,18.0109731 L15.5849744,13.938239 L24.4151037,13.938239 L24.4151037,33.9274105 L15.5848963,33.9274105 L15.5848963,20.5098736 C15.5848963,20.1860376 15.3227428,19.9234975 14.9992093,19.9234975 C14.6756758,19.9234975 14.4135223,20.1860376 14.4135223,20.5098736 L14.4135223,22.606911 L5.50061595,22.606911 C4.90024775,22.606911 4.41194099,23.0958705 4.41194099,23.6969452 L4.41194099,33.9274105 L1.52747165,33.9274105 C0.685253768,33.9274105 0,34.6133924 0,35.4566795 L0,39.4136239 C0,39.7374599 0.262153493,40 0.585686982,40 L39.414313,40 C39.7378465,40 40,39.7374599 40,39.4136239 L40,35.4566795 C40,34.6133924 39.3147462,33.9273324 38.4725284,33.9273324 Z M5.58331495,23.7796633 L14.4135223,23.7796633 L14.4135223,33.9273324 L5.58331495,33.9273324 L5.58331495,23.7796633 Z M38.8287041,38.8272477 L1.17137396,38.8272477 L1.17137396,35.4566795 C1.17137396,35.260048 1.33107128,35.1001628 1.52747165,35.1001628 L29.0645212,35.1001628 C29.3880547,35.1001628 29.6502082,34.8376227 29.6502082,34.5137867 C29.6502082,34.1899507 29.3880547,33.9274105 29.0645212,33.9274105 L25.5864777,33.9274105 L25.5864777,19.2763728 L34.4166851,19.2763728 L34.4166851,33.9274105 L31.5604849,33.9274105 C31.2369514,33.9274105 30.9747979,34.1899507 30.9747979,34.5137867 C30.9747979,34.8376227 31.2369514,35.1001628 31.5604849,35.1001628 L38.4726064,35.1001628 C38.6690068,35.1001628 38.8287041,35.260048 38.8287041,35.4566795 L38.8287041,38.8272477 L38.8287041,38.8272477 Z" id="Shape" fill="#FABB12"></path>
                    <path d="M16.5172319,7.14808148 L16.0529773,9.8582338 C15.9851938,10.2535295 16.1444226,10.6456197 16.4685027,10.8813429 C16.7925829,11.1170661 17.2141213,11.1476358 17.5689695,10.9610119 L20.000039,9.68138275 L22.4311086,10.9610119 C22.5854176,11.0421663 22.7522212,11.0822744 22.918322,11.0822744 C23.1340891,11.0822744 23.3483725,11.0145675 23.5315754,10.8813429 C23.8556555,10.6455415 24.0148843,10.2535295 23.9471008,9.8582338 L23.4828462,7.14800329 L25.4497393,5.22859874 C25.7365697,4.94862368 25.8379326,4.53776946 25.7140793,4.15631224 C25.5903041,3.77485502 25.267083,3.50199466 24.870612,3.44437343 L22.1525558,3.04892136 L20.9369039,0.583170614 C20.759636,0.2234484 20.4006489,0 19.999961,0 C19.599273,0 19.2402078,0.2234484 19.063018,0.58309243 L17.8475223,3.04892136 L15.1294661,3.44437343 C14.7329951,3.50199466 14.4097739,3.77485502 14.2859988,4.15631224 C14.1621455,4.53776946 14.2635084,4.94862368 14.5503388,5.22859874 L16.5172319,7.14808148 Z M18.081797,4.19993863 C18.4221202,4.15044848 18.7162913,3.93646028 18.8684918,3.6277137 L19.999961,1.33232477 L21.1314301,3.6277137 C21.2836306,3.93646028 21.5778017,4.15044848 21.918203,4.19993863 L24.4482926,4.56802647 L22.6174351,6.35483184 C22.3711342,6.59524605 22.2587604,6.94136434 22.3169387,7.28075885 L22.7490976,9.80366172 L20.4861592,8.61261451 C20.181602,8.452182 19.8180075,8.45226019 19.5136065,8.61253633 L17.2505901,9.80366172 L17.6828271,7.28075885 C17.7409272,6.94144252 17.6286315,6.59524605 17.3822525,6.35483184 L15.551395,4.56810466 L18.081797,4.19993863 Z" id="Shape" fill="#FABB12"></path>
                    <path d="M28.4788342,5.54117631 C28.4788342,5.8650123 28.7409877,6.12755245 29.0645212,6.12755245 L29.9033031,6.12755245 C30.2268366,6.12755245 30.4889901,5.8650123 30.4889901,5.54117631 C30.4889901,5.21734032 30.2268366,4.95480017 29.9033031,4.95480017 L29.0645212,4.95480017 C28.7409877,4.95480017 28.4788342,5.21726213 28.4788342,5.54117631 Z" id="Path" fill="#FFC21C"></path>
                    <path d="M28.0551873,2.03128512 C28.1360902,2.03128512 28.2183988,2.01439749 28.2968808,1.97874582 L29.0606947,1.63168933 C29.3551782,1.4978392 29.4855911,1.15023543 29.3518983,0.855405508 C29.2182836,0.560575587 28.8710883,0.430009167 28.5765268,0.56378111 L27.8127129,0.910837599 C27.5182295,1.04468773 27.3878165,1.3922915 27.5215094,1.68712142 C27.6195143,1.90337694 27.832392,2.03128512 28.0551873,2.03128512 L28.0551873,2.03128512 Z" id="Path" fill="#FFC21C"></path>
                    <path d="M27.8127129,10.1714368 L28.5765268,10.5184933 C28.655087,10.554145 28.7373174,10.5710326 28.8182203,10.5710326 C29.0410157,10.5710326 29.2538934,10.4431244 29.3518983,10.2268689 C29.4855911,9.93203901 29.3551782,9.58443523 29.0606947,9.45058511 L28.2968808,9.10352862 C28.0021631,8.96975667 27.655046,9.10032309 27.5215094,9.39515301 C27.3878165,9.68998294 27.5182295,10.0375867 27.8127129,10.1714368 L27.8127129,10.1714368 Z" id="Path" fill="#FFC21C"></path>
                    <path d="M10.1747885,6.12755245 L11.0135704,6.12755245 C11.3371039,6.12755245 11.5992573,5.8650123 11.5992573,5.54117631 C11.5992573,5.21734032 11.3371039,4.95480017 11.0135704,4.95480017 L10.1747885,4.95480017 C9.85125503,4.95480017 9.58910154,5.21734032 9.58910154,5.54117631 C9.58910154,5.8650123 9.85125503,6.12755245 10.1747885,6.12755245 Z" id="Path" fill="#FFC21C"></path>
                    <path d="M11.0173969,1.63161115 L11.7812108,1.97866764 C11.8597709,2.01431931 11.9420014,2.03120694 12.0229043,2.03120694 C12.2456996,2.03120694 12.4585773,1.90329876 12.5565822,1.68704324 C12.6902751,1.39221332 12.5598621,1.04460954 12.2653787,0.910759416 L11.5015648,0.563702926 C11.206769,0.4298528 10.8597299,0.560497403 10.7261933,0.855327325 C10.5925005,1.15015725 10.7229134,1.49776102 11.0173969,1.63161115 Z" id="Path" fill="#FFC21C"></path>
                    <path d="M11.7812108,9.10352862 L11.0173969,9.45058511 C10.7229134,9.58443523 10.5925005,9.93203901 10.7261933,10.2268689 C10.8241982,10.4432026 11.0370759,10.5710326 11.2598713,10.5710326 C11.3407742,10.5710326 11.4230827,10.554145 11.5015648,10.5184933 L12.2653787,10.1714368 C12.5598621,10.0375867 12.6902751,9.68998294 12.5565822,9.39515301 C12.4229675,9.10032309 12.0758504,8.96983486 11.7812108,9.10352862 L11.7812108,9.10352862 Z" id="Path" fill="#FFC21C"></path>
                </g>
            </g>
        </g>
    </g>
</svg>