<?xml version="1.0" encoding="UTF-8"?>
<svg width="71px" height="71px" viewBox="0 0 71 71" version="1.1" xmlns="http://www.w3.org/2000/svg" xmlns:xlink="http://www.w3.org/1999/xlink">
    <title>easy</title>
    <defs>
        <linearGradient x1="100%" y1="50%" x2="0%" y2="50%" id="linearGradient-1">
            <stop stop-color="#00B8D9" stop-opacity="0.0384069056" offset="0%"></stop>
            <stop stop-color="#00B8D9" offset="100%"></stop>
        </linearGradient>
    </defs>
    <g id="Symbols" stroke="none" stroke-width="1" fill="none" fill-rule="evenodd">
        <g id="Say-goodbye-to-stale" transform="translate(0.000000, -1164.000000)">
            <g id="easy" transform="translate(0.000000, 1164.000000)">
                <circle id="Oval-Copy-14" fill="url(#linearGradient-1)" opacity="0.119999997" cx="35.5" cy="35.5" r="35.5"></circle>
                <g id="002-snap" transform="translate(22.000000, 15.000000)" fill="#00B8D9" fill-rule="nonzero">
                    <path d="M23.4899896,16.765447 C23.4017529,16.5857701 23.3638907,16.3857826 23.3806281,16.1869945 L23.9673292,9.20854161 C24.0333036,8.42314481 23.7378,7.66181688 23.1565425,7.11974755 C22.5754476,6.57767822 21.7864357,6.32827356 20.9937676,6.43510416 C20.3835855,6.51746607 19.7930656,6.71345544 19.2578765,7.00883884 C19.2156269,6.9518252 19.1720773,6.89553124 19.1256027,6.84091649 C18.0213436,5.54431609 16.0513733,5.37343511 14.7340785,6.45973277 L9.96222637,10.3901552 L9.96222637,9.5108818 C9.96222637,9.44531212 9.9820512,9.38214133 10.0196696,9.32800637 L11.0093672,7.9026655 C11.1992468,7.62919196 11.12791,7.25600454 10.8500374,7.06913096 C10.5720023,6.88209745 10.1928931,6.95246491 10.0030948,7.22593844 L9.01339715,8.65127931 C8.83684244,8.90556172 8.743487,9.20278427 8.743487,9.5108818 L8.743487,11.394011 L4.94589512,14.5220045 L4.94589512,8.87333662 C4.94589512,8.22683559 5.14178717,7.60296409 5.51244643,7.06921092 L8.99787853,2.0491324 C9.28403853,1.63700299 9.71612227,1.35921145 10.2145867,1.26693412 C10.7130511,1.17465679 11.2180967,1.27884861 11.6369368,1.56055834 C12.0556956,1.84210814 12.3379556,2.26743145 12.4317173,2.75800459 C12.525479,3.24849777 12.4196112,3.74570784 12.1334512,4.15775729 L11.493938,5.0789313 C11.3040584,5.3524848 11.3754765,5.72559226 11.6532679,5.91246585 C11.9309779,6.09933943 12.3103309,6.02905193 12.5001292,5.75565836 L13.1396424,4.83448435 C13.6094258,4.15783725 13.7833805,3.34165469 13.6294131,2.53626713 C13.4754457,1.73087957 13.0119998,1.0325625 12.3244683,0.57021631 C11.637018,0.107870117 10.8077065,-0.0633307134 9.98920113,0.0881992132 C9.17085827,0.23972914 8.46138946,0.695838217 7.99160606,1.37248531 L4.50617396,6.39256383 C3.9965784,7.12662437 3.72715575,7.98446767 3.72715575,8.87341659 L3.72715575,15.5259402 L1.8995342,17.0312441 C0.585976904,18.1132237 -0.118048205,19.762541 0.0162568736,21.4431239 L0.40422224,26.2973591 C0.429328271,26.6116138 0.696150943,26.8501434 1.0110732,26.8500635 C1.02707931,26.8500635 1.04324792,26.8494238 1.05949777,26.8482243 C1.3949761,26.8223163 1.64563016,26.5334899 1.61922414,26.2034025 L1.23125878,21.3491673 C1.12782843,20.0547259 1.6700862,18.7844333 2.68180237,17.9511387 L15.5165904,7.37938748 C16.3190084,6.71753355 17.5190605,6.8216454 18.1915608,7.61136021 C18.86398,8.40115498 18.7582746,9.58212885 17.9557754,10.2439828 L11.2747274,15.7543146 C10.859706,15.8530689 10.462397,16.0495381 10.1180625,16.3443617 L6.85249099,19.1417881 C6.59866821,19.3592875 6.57201844,19.7380723 6.79293526,19.9878768 C7.01393334,20.2376813 7.39872998,20.2638292 7.65271526,20.0464897 L10.9182868,17.2490634 C11.4862193,16.7623284 12.3148808,16.7576906 12.8885821,17.2379485 L17.827564,21.3724366 C18.2139044,21.695887 18.4491211,22.1479979 18.4899082,22.6455278 C18.5307766,23.1431377 18.3722593,23.6265142 18.0436059,24.0066584 C17.8033517,24.2846098 17.4858295,24.4845174 17.1337763,24.5867101 L13.678244,21.6940478 C12.641828,20.8263691 11.1445661,20.8348452 10.1181438,21.7140386 L6.85257224,24.5114649 C6.59874946,24.7289644 6.57209969,25.1077492 6.79301651,25.3575537 C7.01401458,25.6074381 7.39881123,25.633586 7.65279651,25.4161666 L10.918368,22.6187402 C11.4863006,22.1320853 12.3149621,22.1272875 12.8886633,22.6076254 L17.8276453,26.7421134 C18.2139856,27.0655638 18.4492023,27.5176748 18.4899895,28.0152047 C18.5308579,28.5128146 18.3723405,28.996191 18.0436871,29.3763352 C17.715115,29.7565594 17.2557315,29.9880524 16.7501984,30.0281938 C16.2439341,30.0682553 15.7533509,29.9123274 15.367173,29.5889569 L12.3099246,27.0296604 C12.0679643,26.8271141 11.7087611,26.8414275 11.4841881,27.0623653 L10.5768773,27.9553124 C10.3388981,28.189604 10.3388981,28.5692685 10.5768773,28.8034801 C10.8148564,29.0376119 11.2007093,29.0376119 11.4386072,28.8034801 L11.9484465,28.3017122 L14.5774299,30.5025344 C15.1462562,30.9787942 15.8535312,31.2338762 16.5922498,31.2338762 C16.6771553,31.2338762 16.7626296,31.2304378 16.8481851,31.223641 C17.6781466,31.1577514 18.4323837,30.7776072 18.9719603,30.1533359 C19.5115368,29.5290646 19.7717783,28.7354316 19.7047476,27.9185294 C19.6377982,27.1016271 19.2515391,26.3593304 18.6172259,25.828296 L18.1629611,25.4480718 C18.4665897,25.2744721 18.7410498,25.0507356 18.9719603,24.7835791 C20.0857256,23.494975 19.9266395,21.5547522 18.6172259,20.4585392 L16.4274762,18.6254669 L17.7509459,11.9775811 L18.7386936,11.1629178 C19.3769067,10.6366012 19.7686908,9.89710319 19.8418152,9.08068074 C19.8715524,8.74835442 19.8461214,8.41978636 19.7705596,8.10425228 C20.1948434,7.85516746 20.6681205,7.68940412 21.1594349,7.62319474 C21.5843687,7.56562136 22.0069463,7.69955942 22.3184561,7.99006508 C22.6298846,8.28057074 22.7882395,8.68846212 22.7528961,9.10938746 L22.1661949,16.0878404 C22.1315015,16.4999698 22.2099883,16.9148179 22.3929617,17.2872857 L23.478046,19.4959443 C24.8452278,22.2788974 24.8914586,25.4922914 23.6048761,28.3122673 L22.9071885,29.8414801 C22.7693084,30.1436604 22.9064572,30.4986162 23.2134983,30.6342335 C23.2945851,30.670057 23.3793281,30.6870091 23.4627711,30.6870091 C23.6953066,30.6870091 23.9175234,30.5552301 24.0190038,30.3327729 L24.7166914,28.8035601 C26.1512289,25.659494 26.0996356,22.0766709 24.5753177,18.9737858 L23.4899896,16.765447 Z M15.3627855,17.7346788 L13.6780815,16.324371 C13.4661021,16.146933 13.2347041,16.0067579 12.9921749,15.902566 L16.2648151,13.2034942 L15.3627855,17.7346788 Z" id="Shape"></path>
                    <path d="M22.6432095,31.8839756 C22.3361684,31.7483583 21.9755841,31.883096 21.837704,32.1854362 L20.2770676,35.6058545 C20.2418055,35.6830987 20.2236056,35.76682 20.2236056,35.8515009 L20.2236056,40.4002773 C20.2236056,40.7315641 20.4963595,41 20.8329753,41 C21.1695911,41 21.442345,40.7315641 21.442345,40.4002773 L21.442345,35.9800014 L22.9495193,32.676729 C23.0873994,32.3746287 22.9501693,32.0196729 22.6432095,31.8839756 Z" id="Path"></path>
                    <path d="M19.1053716,3.73219409 C19.4419874,3.73219409 19.7147413,3.46375822 19.7147413,3.13247142 L19.7147413,0.599722665 C19.7147413,0.268435865 19.4419874,0 19.1053716,0 C18.7687558,0 18.4960019,0.268435865 18.4960019,0.599722665 L18.4960019,3.13247142 C18.4960019,3.46367826 18.7688371,3.73219409 19.1053716,3.73219409 Z" id="Path"></path>
                    <path d="M21.7068114,4.32871823 C21.8007356,4.38021442 21.9023785,4.40452318 22.0028026,4.40452318 C22.216732,4.40452318 22.4243239,4.29345454 22.5357979,4.09650562 L23.7879308,1.88376887 C23.9516481,1.5943827 23.846024,1.22911161 23.5520641,1.06798612 C23.2580229,0.906860632 22.8868761,1.01081256 22.7231588,1.30011877 L21.471026,3.51285552 C21.3072274,3.80232166 21.4128515,4.16751278 21.7068114,4.32871823 L21.7068114,4.32871823 Z" id="Path"></path>
                    <path d="M26.9085536,4.13040994 C26.7313488,3.84886014 26.3558959,3.7620203 26.0696546,3.93633968 L23.8817737,5.269883 C23.5956949,5.44428235 23.507377,5.8139514 23.6845817,6.0955012 C23.7998744,6.27869649 23.9991789,6.37952986 24.2031959,6.37952986 C24.3127199,6.37952986 24.423544,6.35050328 24.5234806,6.28957146 L26.7113615,4.95602814 C26.9975215,4.78170875 27.0858395,4.4120397 26.9085536,4.13040994 L26.9085536,4.13040994 Z" id="Path"></path>
                    <path d="M3.59870063,32.8321771 C2.64296521,31.6501637 2.03270178,30.2318596 1.83380352,28.7307138 C1.7902539,28.4023856 1.48483781,28.1714524 1.15074073,28.213513 C0.817049889,28.2563732 0.581751941,28.557354 0.625301561,28.8857621 C0.852799577,30.6032878 1.55121848,32.2262173 2.64499644,33.5789518 L5.15917451,36.6886337 L5.15917451,40.3612554 C5.15917451,40.6925422 5.43200963,40.960978 5.7685442,40.960978 C6.10507876,40.960978 6.37791388,40.6925422 6.37791388,40.3612554 L6.37791388,36.4791306 C6.37791388,36.3435133 6.33119554,36.2118142 6.24539629,36.1057033 L3.59870063,32.8321771 Z" id="Path"></path>
                </g>
            </g>
        </g>
    </g>
</svg>