<?xml version="1.0" encoding="UTF-8"?>
<svg width="71px" height="71px" viewBox="0 0 71 71" version="1.1" xmlns="http://www.w3.org/2000/svg" xmlns:xlink="http://www.w3.org/1999/xlink">
    <title>data</title>
    <defs>
        <linearGradient x1="100%" y1="50%" x2="0%" y2="50%" id="linearGradient-1">
            <stop stop-color="#F6F5FF" stop-opacity="0.242242133" offset="0%"></stop>
            <stop stop-color="#3F39AF" stop-opacity="0.261828016" offset="100%"></stop>
        </linearGradient>
    </defs>
    <g id="Symbols" stroke="none" stroke-width="1" fill="none" fill-rule="evenodd">
        <g id="Say-goodbye-to-stale" transform="translate(0.000000, -263.000000)">
            <g id="data" transform="translate(0.000000, 263.000000)">
                <circle id="Oval" fill="url(#linearGradient-1)" opacity="0.54" cx="35.5" cy="35.5" r="35.5"></circle>
                <g id="001-data-storage" transform="translate(17.000000, 18.000000)" fill="#3F39AF" fill-rule="nonzero">
                    <path d="M33.7068329,1.08492664 C31.7923584,0.475052356 29.1910782,0.0898392207 26.381752,0.000365012598 C26.0799866,-0.0102269361 25.8321381,0.222796328 25.8225403,0.518256448 C25.8129425,0.813716567 26.0475235,1.06095538 26.3470307,1.07043237 C32.5082397,1.26638377 35.9160156,2.79497179 35.9160156,3.7769586 C35.9160156,4.89608343 31.7644119,6.50327502 25.0996018,6.50327502 C18.907341,6.50327502 14.667099,5.09426472 14.3040771,3.90740696 C14.2899628,3.86141554 14.2831879,3.81793273 14.2831879,3.7769586 C14.2831879,2.79497179 17.6909638,1.26638377 23.8521729,1.07043237 C24.15168,1.06067659 24.386261,0.813437849 24.3766632,0.518256448 C24.3667832,0.222796328 24.1194992,-0.0105057256 23.8174515,0.000365012598 C21.0081253,0.0898392207 18.4068451,0.475052356 16.4923706,1.08492664 C14.3379517,1.77145333 13.1992035,2.70243145 13.1992035,3.7769586 L13.1992035,7.61180793 C6.99282837,7.41279041 0.000564575195,8.7050104 0,11.3875653 L0,31.2182353 C0,36.2407785 23.8007965,36.2803591 23.8007965,31.2182353 L23.8007965,27.3828285 C29.4123916,27.5662367 34.6248321,26.5636235 36.3402939,24.9480698 C36.778122,24.5358193 37,24.0848246 37,23.6073499 L37,16.1467031 C37,15.8509642 36.7575149,15.61153 36.4580078,15.61153 C36.1585007,15.61153 35.9160156,15.8509642 35.9160156,16.1467031 L35.9160156,16.9971265 C35.9160156,17.1702215 35.8070526,17.3605982 35.5922317,17.5629605 C34.3450852,18.7375539 30.7944717,19.3215057 29.0716705,19.5127186 C27.3477402,19.7042102 25.5275498,19.7610723 23.8007965,19.7019803 C23.8007965,19.5489543 23.8007965,14.4243936 23.8007965,14.1629393 C27.2094192,14.2741549 33.2531967,13.9095683 35.9160156,12.067681 L35.9160156,13.6489501 C35.9160156,13.944689 36.1585007,14.1844019 36.4580078,14.1844019 C36.7575149,14.1844019 37,13.944689 37,13.6489501 C37,13.0931506 37,4.20230964 37,3.7769586 C37,2.70243145 35.8612519,1.77145333 33.7068329,1.08492664 L33.7068329,1.08492664 Z M14.2831879,5.45494902 C18.3266754,8.27603574 31.8767624,8.27296963 35.9160156,5.45494902 L35.9160156,10.3869032 C35.9160156,10.560277 35.8070526,10.7509323 35.5919495,10.9532946 C34.7114944,11.7825341 32.5768357,12.3182646 31.3850174,12.5521241 C28.9819031,13.0259753 26.2705307,13.1756564 23.8007965,13.0917569 L23.8007965,11.387844 C23.8007965,8.66459364 17.0273056,7.82699209 14.2831879,7.66170168 L14.2831879,5.45494902 Z M22.7168121,13.0658345 L22.7168121,17.9977886 C22.7168121,18.4356828 21.9478608,19.1679222 19.7807388,19.7903396 C15.4374619,21.0374042 8.36079403,21.0365681 4.02005766,19.7903396 C1.85293579,19.1679222 1.08398437,18.4356828 1.08398437,17.9977886 L1.08398437,13.0658345 C5.15203096,15.9042028 18.7374039,15.8423234 22.7168121,13.0658345 L22.7168121,13.0658345 Z M1.08398437,19.6760579 C5.14328003,22.5094089 18.7026825,22.477633 22.7168121,19.6760579 L22.7168121,24.6080119 C22.7168121,25.0459062 21.9478608,25.7781455 19.7807388,26.4005629 C15.4374619,27.6476276 8.36079403,27.6467914 4.02005766,26.4005629 C1.85293579,25.7781455 1.08398437,25.0459062 1.08398437,24.6080119 L1.08398437,19.6760579 Z M4.02005766,9.59529303 C8.37575533,8.34460475 15.457222,8.35380302 19.7807388,9.59529303 C21.9478608,10.2174317 22.7168121,10.9496711 22.7168121,11.387844 C22.7168121,12.5069689 18.5652085,14.1141604 11.9003982,14.1141604 C5.19352726,14.1141604 1.08426664,12.4933108 1.08398437,11.387844 C1.08398437,10.9496711 1.85293579,10.2177104 4.02005766,9.59529303 Z M22.7168121,31.2182353 C22.7168121,31.6561294 21.9478608,32.3880901 19.7807388,33.0105075 C15.4374619,34.2578509 8.36079403,34.2570147 4.02005766,33.0105075 C1.85293579,32.3883688 1.08398437,31.6561294 1.08398437,31.2182353 L1.08398437,26.2862812 C5.04673771,29.0510632 18.6112213,29.1505719 22.7168121,26.2862812 L22.7168121,31.2182353 Z M35.9160156,23.6073499 C35.9160156,23.7807236 35.8070526,23.9711003 35.5922317,24.1734626 C34.2911682,25.3987858 29.5665207,26.5064826 23.8007965,26.3122037 C23.8007965,26.1591776 23.8007965,21.0346169 23.8007965,20.7731626 C28.953392,20.9415191 33.8507996,20.1061474 35.9160156,18.6776256 L35.9160156,23.6073499 Z" id="Shape"></path>
                </g>
            </g>
        </g>
    </g>
</svg>