<?xml version="1.0" encoding="UTF-8"?>
<svg width="227px" height="60px" viewBox="0 0 227 60" version="1.1" xmlns="http://www.w3.org/2000/svg" xmlns:xlink="http://www.w3.org/1999/xlink">
    <title>food-dive-logo-vector</title>
    <g id="Visual-Designs" stroke="none" stroke-width="1" fill="none" fill-rule="evenodd">
        <g id="Spoonshot---Home" transform="translate(-1062.000000, -5449.000000)">
            <g id="food-dive-logo-vector" transform="translate(1062.000000, 5449.000000)">
                <rect id="Rectangle-Copy-16" fill-opacity="0.01" fill="#FFFFFF" opacity="0.01" x="0" y="0" width="227" height="60"></rect>
                <g transform="translate(12.000000, 13.000000)" fill="#000000" fill-rule="nonzero" id="Shape">
                    <path d="M23.7887981,16.9152542 C23.7211202,16.9152542 23.6872812,16.9152542 23.6196033,16.9152542 C23.5519253,16.9152542 23.5180863,16.9152542 23.4504084,16.9152542 L17.9684947,16.9152542 L17.9684947,26.8135593 L23.4504084,26.8135593 C23.4842474,26.8135593 23.5519253,26.8135593 23.6196033,26.8135593 C23.6872812,26.8135593 23.7211202,26.8135593 23.7887981,26.8135593 L23.957993,26.8135593 L23.957993,26.779661 C26.1575263,26.5762712 27.8833139,24.440678 27.8833139,21.8305085 C27.8833139,19.220339 26.1575263,17.0847458 23.957993,16.8813559 L23.957993,16.8813559 L23.7887981,16.9152542 L23.7887981,16.9152542 Z M11.5729288,27.2542373 L11.5729288,10.5423729 C11.5729288,10.5423729 20.2695449,10.5423729 23.4165694,10.5423729 C26.5635939,10.5423729 27.5787631,11.220339 27.5787631,11.220339 L34.7187865,4.33898305 C31.1318553,1.76271186 26.7327888,0.237288136 21.9953326,0.237288136 C9.94865811,0.237288136 0.135355893,10.0338983 0.135355893,22.1355932 C0.135355893,26.9152542 1.65810968,31.3559322 4.26371062,34.9491525 L11.5729288,27.2542373 Z M39.5577596,9.08474576 L32.6884481,15.9322034 C32.6884481,15.9322034 32.9929988,16.6101695 33.5005834,17.8305085 C33.9743291,19.0508475 34.4480747,20.9830508 34.1435239,23.1864407 C33.8389732,25.3898305 33.2298716,28 31.0303384,30.2372881 C28.8308051,32.4745763 26.7327888,33.1864407 24.0933489,33.220339 C21.453909,33.2542373 15.4982497,33.220339 15.4982497,33.220339 L8.96732789,39.6949153 C12.621937,42.4067797 17.0886814,44 21.9953326,44 C34.075846,44 43.8553092,34.2033898 43.8553092,22.1016949 C43.8214702,17.220339 42.2310385,12.7457627 39.5577596,9.08474576 Z"></path>
                    <path d="M55.3267211,12.3389831 L67.8471412,12.3389831 L67.8471412,14.2711864 L57.7631272,14.2711864 L57.7631272,20.9491525 L66.7304551,20.9491525 L66.7304551,22.8474576 L57.7631272,22.8474576 L57.7631272,31.4576271 L55.3267211,31.4576271 L55.3267211,12.3389831 L55.3267211,12.3389831 Z M85.5110852,29.3559322 C84.0898483,30.9152542 81.8564761,31.7288136 78.8448075,31.7288136 C75.8331389,31.7288136 73.6336056,30.9152542 72.1785298,29.3559322 C70.7572929,27.7966102 70.0466744,25.2881356 70.0466744,21.8644068 C70.0466744,18.4745763 70.7572929,15.9661017 72.1785298,14.3728814 C73.5997666,12.8135593 75.8331389,12 78.8448075,12 C81.8564761,12 84.0560093,12.8135593 85.5110852,14.3728814 C86.9323221,15.9322034 87.6429405,18.440678 87.6429405,21.8644068 C87.6429405,25.2881356 86.9323221,27.7966102 85.5110852,29.3559322 Z M84.529755,17.3559322 C84.0898483,16.2033898 83.3792299,15.3898305 82.4655776,14.8813559 C81.5519253,14.3728814 80.3337223,14.1355932 78.8448075,14.1355932 C77.3558926,14.1355932 76.1715286,14.3728814 75.2240373,14.8813559 C74.2765461,15.3898305 73.5997666,16.2033898 73.15986,17.3559322 C72.7199533,18.5084746 72.4830805,20 72.4830805,21.9322034 C72.4830805,23.8305085 72.7199533,25.3559322 73.15986,26.5084746 C73.5997666,27.6610169 74.3103851,28.4745763 75.2240373,28.9830508 C76.1715286,29.4915254 77.3558926,29.7288136 78.8448075,29.7288136 C80.3337223,29.7288136 81.5180863,29.4915254 82.4655776,28.9830508 C83.4130688,28.4745763 84.0898483,27.6610169 84.529755,26.5084746 C84.9696616,25.3559322 85.2065344,23.8644068 85.2065344,21.9322034 C85.2403734,20 85.0035006,18.4745763 84.529755,17.3559322 Z M106.795799,29.3559322 C105.374562,30.9152542 103.14119,31.7288136 100.129522,31.7288136 C97.117853,31.7288136 94.9183197,30.9152542 93.4632439,29.3559322 C92.042007,27.7966102 91.3313886,25.2881356 91.3313886,21.8644068 C91.3313886,18.4745763 92.042007,15.9661017 93.4632439,14.3728814 C94.8844807,12.8135593 97.117853,12 100.129522,12 C103.14119,12 105.340723,12.8135593 106.795799,14.3728814 C108.217036,15.9322034 108.927655,18.440678 108.927655,21.8644068 C108.927655,25.2881356 108.217036,27.7966102 106.795799,29.3559322 Z M105.848308,17.3559322 C105.408401,16.2033898 104.697783,15.3898305 103.784131,14.8813559 C102.836639,14.3728814 101.652275,14.1355932 100.163361,14.1355932 C98.6744457,14.1355932 97.4900817,14.3728814 96.5425904,14.8813559 C95.5950992,15.3898305 94.9183197,16.2033898 94.4784131,17.3559322 C94.0385064,18.5084746 93.8016336,20 93.8016336,21.9322034 C93.8016336,23.8305085 94.0385064,25.3559322 94.4784131,26.5084746 C94.9183197,27.6610169 95.6289382,28.4745763 96.5425904,28.9830508 C97.4900817,29.4915254 98.6744457,29.7288136 100.163361,29.7288136 C101.652275,29.7288136 102.836639,29.4915254 103.784131,28.9830508 C104.731622,28.4745763 105.408401,27.6610169 105.848308,26.5084746 C106.288215,25.3559322 106.525088,23.8644068 106.525088,21.9322034 C106.491249,20 106.288215,18.4745763 105.848308,17.3559322 Z M127.53909,29.220339 C126.287048,30.7118644 124.22287,31.4915254 121.448075,31.4915254 L113.969662,31.4915254 L113.969662,12.3728814 L121.448075,12.3728814 C124.22287,12.3728814 126.253209,13.1186441 127.53909,14.6440678 C128.824971,16.1355932 129.467911,18.6101695 129.467911,22.0338983 C129.434072,25.2881356 128.791132,27.6949153 127.53909,29.220339 Z M126.422404,17.3220339 C126.050175,16.2033898 125.407235,15.4237288 124.527421,14.9830508 C123.647608,14.5423729 122.463244,14.3050847 121.008168,14.3050847 L116.372229,14.3050847 L116.372229,29.559322 L120.974329,29.559322 C122.395566,29.559322 123.512252,29.3559322 124.392065,28.9491525 C125.271879,28.5423729 125.88098,27.7966102 126.320887,26.6779661 C126.760793,25.5932203 126.997666,24.0338983 126.997666,22.0338983 C126.997666,20 126.794632,18.440678 126.422404,17.3220339 Z M135.795799,12.3389831 L144.323221,12.3389831 C147.368728,12.3389831 149.669778,13.1186441 151.26021,14.6440678 C152.816803,16.1694915 153.595099,18.6440678 153.595099,22 C153.595099,25.220339 152.816803,27.5932203 151.26021,29.1525424 C149.703617,30.6779661 147.402567,31.4576271 144.323221,31.4576271 L135.795799,31.4576271 L135.795799,12.3389831 Z M143.612602,27.1864407 C144.593932,27.1864407 145.406068,27.0508475 146.015169,26.7457627 C146.624271,26.440678 147.098016,25.9322034 147.436406,25.1864407 C147.774796,24.440678 147.910152,23.3898305 147.910152,22 C147.910152,20.5762712 147.774796,19.5254237 147.470245,18.7118644 C147.165694,17.9322034 146.725788,17.3898305 146.116686,17.0847458 C145.507585,16.779661 144.695449,16.6101695 143.646441,16.6101695 L141.37923,16.6101695 L141.37923,27.1864407 L143.612602,27.1864407 L143.612602,27.1864407 Z M157.148191,12.3389831 L162.697783,12.3389831 L162.697783,31.4237288 L157.148191,31.4237288 L157.148191,12.3389831 Z M165.675613,12.3389831 L171.495916,12.3389831 L175.928821,24.9830508 L180.361727,12.3389831 L186.18203,12.3389831 L178.872812,31.4237288 L172.984831,31.4237288 L165.675613,12.3389831 Z M188.584597,12.3389831 L203,12.3389831 L203,16.6101695 L194.10035,16.6101695 L194.10035,19.7288136 L201.883314,19.7288136 L201.883314,24.0677966 L194.10035,24.0677966 L194.10035,27.1864407 L203,27.1864407 L203,31.4576271 L188.550758,31.4576271 L188.550758,12.3389831 L188.584597,12.3389831 Z"></path>
                    <path d="M23.6196033,16.7118644 C23.5519253,16.7118644 23.5180863,16.7118644 23.4504084,16.7118644 C23.3827305,16.7118644 23.3488915,16.7118644 23.2812135,16.7118644 L17.8331389,16.7118644 L17.8331389,26.6101695 L23.3150525,26.6101695 C23.3488915,26.6101695 23.4165694,26.6101695 23.4842474,26.6101695 C23.5519253,26.6101695 23.5857643,26.6101695 23.6534422,26.6101695 L23.8226371,26.6101695 L23.8226371,26.5762712 C26.0221704,26.3728814 27.747958,24.2372881 27.747958,21.6271186 C27.747958,19.0169492 26.0221704,16.8813559 23.8226371,16.6779661 L23.8226371,16.6779661 L23.6196033,16.7118644 L23.6196033,16.7118644 Z M11.4375729,27.0169492 L11.4375729,10.3050847 C11.4375729,10.3050847 20.134189,10.3050847 23.2812135,10.3050847 C26.428238,10.3050847 27.4434072,10.9830508 27.4434072,10.9830508 L34.5834306,4.10169492 C30.9964994,1.52542373 26.5974329,0 21.8599767,0 C9.77946324,0 0,9.79661017 0,21.8983051 C0,26.6779661 1.52275379,31.1186441 4.12835473,34.7118644 L11.4375729,27.0169492 Z M39.4224037,8.88135593 L32.5530922,15.7288136 C32.5530922,15.7288136 32.8576429,16.4067797 33.3652275,17.6271186 C33.8389732,18.8474576 34.3127188,20.779661 34.008168,22.9830508 C33.7036173,25.1864407 33.0945158,27.7966102 30.8949825,30.0338983 C28.6954492,32.2711864 26.5974329,32.9830508 23.957993,33.0169492 C21.3185531,33.0508475 15.3628938,33.0169492 15.3628938,33.0169492 L8.831972,39.4915254 C12.4865811,42.2033898 16.9533256,43.7966102 21.8599767,43.7966102 C33.9404901,43.7966102 43.7199533,34 43.7199533,21.8983051 C43.6861144,17.0169492 42.0956826,12.5084746 39.4224037,8.88135593 Z"></path>
                </g>
            </g>
        </g>
    </g>
</svg>