<?xml version="1.0" encoding="UTF-8"?>
<svg width="71px" height="71px" viewBox="0 0 71 71" version="1.1" xmlns="http://www.w3.org/2000/svg" xmlns:xlink="http://www.w3.org/1999/xlink">
    <title>food professionals</title>
    <defs>
        <linearGradient x1="100%" y1="50%" x2="0%" y2="50%" id="linearGradient-1">
            <stop stop-color="#F6F5FF" stop-opacity="0.242242133" offset="0%"></stop>
            <stop stop-color="#F8CAD8" offset="100%"></stop>
        </linearGradient>
    </defs>
    <g id="Symbols" stroke="none" stroke-width="1" fill="none" fill-rule="evenodd">
        <g id="Say-goodbye-to-stale" transform="translate(0.000000, -658.000000)">
            <g id="food-professionals" transform="translate(0.000000, 658.000000)">
                <circle id="Oval-Copy-9" fill="url(#linearGradient-1)" opacity="0.54" cx="35.5" cy="35.5" r="35.5"></circle>
                <g id="004-science-research" transform="translate(14.000000, 14.000000)" fill-rule="nonzero">
                    <path d="M36.5806452,26.4193548 C35.0862581,26.4193548 33.8709677,27.6346452 33.8709677,29.1290323 C33.8709677,30.6234194 35.0862581,31.8387097 36.5806452,31.8387097 C38.0750323,31.8387097 39.2903226,30.6234194 39.2903226,29.1290323 C39.2903226,27.6346452 38.0750323,26.4193548 36.5806452,26.4193548 Z M36.5806452,30.483871 C35.8334516,30.483871 35.2258065,29.8762258 35.2258065,29.1290323 C35.2258065,28.3818387 35.8334516,27.7741935 36.5806452,27.7741935 C37.3278387,27.7741935 37.9354839,28.3818387 37.9354839,29.1290323 C37.9354839,29.8762258 37.3278387,30.483871 36.5806452,30.483871 Z" id="Shape" fill="#FF1157"></path>
                    <path d="M36.5806452,23.7096774 C35.0943871,23.7096774 33.747,24.3119032 32.7667742,25.284 L28.3262903,21.8088387 C29.2726452,20.382871 29.8064516,18.6893226 29.8064516,16.9354839 C29.8064516,15.9274839 29.6276129,14.9621613 29.3146452,14.0591613 L31.9267742,12.9238065 C32.8724516,14.5116774 34.6019032,15.5806452 36.5806452,15.5806452 C39.5687419,15.5806452 42,13.1493871 42,10.1612903 C42,7.17319355 39.5687419,4.74193548 36.5806452,4.74193548 C33.5925484,4.74193548 31.1612903,7.17319355 31.1612903,10.1612903 C31.1612903,10.6896774 31.2405484,11.1997742 31.3828065,11.6827742 L28.778129,12.8154194 C27.3975484,10.2202258 24.7569677,8.39932258 21.6780968,8.16358065 L21.6780968,5.32316129 C22.8439355,5.02035484 23.7103548,3.96832258 23.7103548,2.70967742 C23.7103548,1.21529032 22.4950645,0 21.0006774,0 C19.5062903,0 18.291,1.21529032 18.291,2.70967742 C18.291,3.96832258 19.1574194,5.02035484 20.3232581,5.32316129 L20.3232581,8.16358065 C17.9434839,8.34580645 15.8285806,9.47574194 14.3518065,11.1787742 L10.1436774,8.06806452 C10.584,7.2836129 10.8387097,6.38129032 10.8387097,5.41935484 C10.8387097,2.43125806 8.40745161,0 5.41935484,0 C2.43125806,0 0,2.43125806 0,5.41935484 C0,8.40745161 2.43125806,10.8387097 5.41935484,10.8387097 C6.95912903,10.8387097 8.34716129,10.1904194 9.33483871,9.156 L13.5456774,12.2687419 C12.6941613,13.6235806 12.1935484,15.2202581 12.1935484,16.9354839 C12.1935484,18.2273226 12.4861935,19.4852903 13.0166129,20.6294516 L6.01683871,24.5496774 C5.52367742,24.0341613 4.83270968,23.7096774 4.06451613,23.7096774 C2.57012903,23.7096774 1.35483871,24.9249677 1.35483871,26.4193548 C1.35483871,27.9137419 2.57012903,29.1290323 4.06451613,29.1290323 C5.55890323,29.1290323 6.77419355,27.9137419 6.77419355,26.4193548 C6.77419355,26.1809032 6.73354839,25.9539677 6.67529032,25.733129 L13.6770968,21.8122258 C14.28,22.7186129 15.0495484,23.5166129 15.9566129,24.1527097 L10.6957742,34.6743871 C10.3455484,35.3741613 10.1612903,36.1572581 10.1612903,36.9383226 C10.1612903,39.7292903 12.432,42 15.2229677,42 L26.7777097,42 C29.568,42 31.8387097,39.7292903 31.8387097,36.9383226 C31.8387097,36.1572581 31.6544516,35.3741613 31.3042258,34.6743871 L26.0433871,24.1527097 C26.5758387,23.7794516 27.0588387,23.3492903 27.4903548,22.8750968 L31.9349032,26.3536452 C31.4471613,27.1665484 31.1612903,28.1135806 31.1612903,29.1290323 C31.1612903,32.117129 33.5925484,34.5483871 36.5806452,34.5483871 C39.5687419,34.5483871 42,32.117129 42,29.1290323 C42,26.1409355 39.5687419,23.7096774 36.5806452,23.7096774 L36.5806452,23.7096774 Z M36.5806452,6.09677419 C38.8222258,6.09677419 40.6451613,7.91970968 40.6451613,10.1612903 C40.6451613,12.402871 38.8222258,14.2258065 36.5806452,14.2258065 C34.3390645,14.2258065 32.516129,12.402871 32.516129,10.1612903 C32.516129,7.91970968 34.3390645,6.09677419 36.5806452,6.09677419 Z M5.41935484,9.48387097 C3.17777419,9.48387097 1.35483871,7.66093548 1.35483871,5.41935484 C1.35483871,3.17777419 3.17777419,1.35483871 5.41935484,1.35483871 C7.66093548,1.35483871 9.48387097,3.17777419 9.48387097,5.41935484 C9.48387097,7.66093548 7.66093548,9.48387097 5.41935484,9.48387097 Z M4.06451613,27.7741935 C3.31732258,27.7741935 2.70967742,27.1665484 2.70967742,26.4193548 C2.70967742,25.6721613 3.31732258,25.0645161 4.06451613,25.0645161 C4.81170968,25.0645161 5.41935484,25.6721613 5.41935484,26.4193548 C5.41935484,27.1665484 4.81170968,27.7741935 4.06451613,27.7741935 Z M19.6451613,2.70967742 C19.6451613,1.96248387 20.2528065,1.35483871 21,1.35483871 C21.7471935,1.35483871 22.3548387,1.96248387 22.3548387,2.70967742 C22.3548387,3.45687097 21.7471935,4.06451613 21,4.06451613 C20.2528065,4.06451613 19.6451613,3.45687097 19.6451613,2.70967742 Z M28.4516129,32.516129 C28.4516129,33.4150645 27.3115161,33.8709677 25.0645161,33.8709677 C23.625,33.8709677 22.2274839,33.2829677 20.9214194,32.5689677 C22.0554194,31.8339677 23.5159355,31.1612903 25.0645161,31.1612903 C27.3115161,31.1612903 28.4516129,31.6171935 28.4516129,32.516129 Z M25.0645161,29.8064516 C22.9218387,29.8064516 20.9817097,30.8374839 19.6248387,31.815 C19.5225484,31.7533548 19.4202581,31.6910323 19.3193226,31.6300645 C17.7714194,30.6925161 16.3102258,29.8064516 14.9032258,29.8064516 C14.8158387,29.8064516 14.7223548,29.8240645 14.6336129,29.8288065 L17.6129032,23.8695484 L17.6129032,18.9677419 L24.3870968,18.9677419 L24.3870968,23.8695484 L27.4869677,30.0692903 C26.8176774,29.9012903 26.0223871,29.8064516 25.0645161,29.8064516 L25.0645161,29.8064516 Z M25.0645161,17.6129032 L16.9354839,17.6129032 C16.5615484,17.6129032 16.2580645,17.3087419 16.2580645,16.9354839 C16.2580645,16.5622258 16.5615484,16.2580645 16.9354839,16.2580645 L25.0645161,16.2580645 C25.4384516,16.2580645 25.7419355,16.5622258 25.7419355,16.9354839 C25.7419355,17.3087419 25.4384516,17.6129032 25.0645161,17.6129032 Z M30.483871,36.9383226 C30.483871,38.9820968 28.8208065,40.6451613 26.7770323,40.6451613 L15.2229677,40.6451613 C13.1791935,40.6451613 11.516129,38.9820968 11.516129,36.9383226 C11.516129,36.3665806 11.6516129,35.7928065 11.9076774,35.2806774 L13.893871,31.3082903 C14.2454516,31.218871 14.586871,31.1612903 14.9032258,31.1612903 C15.9322258,31.1612903 17.2355806,31.9518387 18.6161613,32.7884516 C20.5014194,33.9305806 22.638,35.2258065 25.0645161,35.2258065 C27.2898387,35.2258065 28.7225806,34.7604194 29.3810323,33.8574194 L30.0923226,35.2806774 C30.3483871,35.7928065 30.483871,36.3665806 30.483871,36.9383226 L30.483871,36.9383226 Z M25.7419355,22.6705161 L25.7419355,18.8430968 C26.5284194,18.5626452 27.0967742,17.8174839 27.0967742,16.9354839 C27.0967742,15.8150323 26.1849677,14.9032258 25.0645161,14.9032258 L16.9354839,14.9032258 C15.8150323,14.9032258 14.9032258,15.8150323 14.9032258,16.9354839 C14.9032258,17.8174839 15.4715806,18.5626452 16.2580645,18.8430968 L16.2580645,22.6711935 C14.5685806,21.2669032 13.5483871,19.1608065 13.5483871,16.9361613 C13.5483871,12.8276129 16.8914516,9.48454839 21,9.48454839 C25.1085484,9.48454839 28.4516129,12.8276129 28.4516129,16.9361613 C28.4516129,19.1614839 27.4314194,21.2662258 25.7419355,22.6705161 Z M36.5806452,33.1935484 C34.3390645,33.1935484 32.516129,31.3706129 32.516129,29.1290323 C32.516129,26.8874516 34.3390645,25.0645161 36.5806452,25.0645161 C38.8222258,25.0645161 40.6451613,26.8874516 40.6451613,29.1290323 C40.6451613,31.3706129 38.8222258,33.1935484 36.5806452,33.1935484 Z" id="Shape" fill="#F11507"></path>
                    <path d="M5.41935484,2.70967742 C3.92496774,2.70967742 2.70967742,3.92496774 2.70967742,5.41935484 C2.70967742,6.91374194 3.92496774,8.12903226 5.41935484,8.12903226 C6.91374194,8.12903226 8.12903226,6.91374194 8.12903226,5.41935484 C8.12903226,3.92496774 6.91374194,2.70967742 5.41935484,2.70967742 Z M5.41935484,6.77419355 C4.67216129,6.77419355 4.06451613,6.16654839 4.06451613,5.41935484 C4.06451613,4.67216129 4.67216129,4.06451613 5.41935484,4.06451613 C6.16654839,4.06451613 6.77419355,4.67216129 6.77419355,5.41935484 C6.77419355,6.16654839 6.16654839,6.77419355 5.41935484,6.77419355 Z" id="Shape" fill="#FF1157"></path>
                    <path d="M36.5806452,12.8709677 C38.0750323,12.8709677 39.2903226,11.6556774 39.2903226,10.1612903 C39.2903226,8.66690323 38.0750323,7.4516129 36.5806452,7.4516129 C35.0862581,7.4516129 33.8709677,8.66690323 33.8709677,10.1612903 C33.8709677,11.6556774 35.0862581,12.8709677 36.5806452,12.8709677 Z M36.5806452,8.80645161 C37.3278387,8.80645161 37.9354839,9.41409677 37.9354839,10.1612903 C37.9354839,10.9084839 37.3278387,11.516129 36.5806452,11.516129 C35.8334516,11.516129 35.2258065,10.9084839 35.2258065,10.1612903 C35.2258065,9.41409677 35.8334516,8.80645161 36.5806452,8.80645161 Z" id="Shape" fill="#FF1157"></path>
                    <path d="M15.5806452,34.5483871 C14.4601935,34.5483871 13.5483871,35.4601935 13.5483871,36.5806452 C13.5483871,37.7010968 14.4601935,38.6129032 15.5806452,38.6129032 C16.7010968,38.6129032 17.6129032,37.7010968 17.6129032,36.5806452 C17.6129032,35.4601935 16.7010968,34.5483871 15.5806452,34.5483871 Z M15.5806452,37.2580645 C15.2067097,37.2580645 14.9032258,36.9539032 14.9032258,36.5806452 C14.9032258,36.2073871 15.2067097,35.9032258 15.5806452,35.9032258 C15.9545806,35.9032258 16.2580645,36.2073871 16.2580645,36.5806452 C16.2580645,36.9539032 15.9545806,37.2580645 15.5806452,37.2580645 Z" id="Shape" fill="#FF1157"></path>
                    <path d="M21,21.6774194 C19.8795484,21.6774194 18.9677419,22.5892258 18.9677419,23.7096774 C18.9677419,24.830129 19.8795484,25.7419355 21,25.7419355 C22.1204516,25.7419355 23.0322581,24.830129 23.0322581,23.7096774 C23.0322581,22.5892258 22.1204516,21.6774194 21,21.6774194 Z M21,24.3870968 C20.6260645,24.3870968 20.3225806,24.0829355 20.3225806,23.7096774 C20.3225806,23.3364194 20.6260645,23.0322581 21,23.0322581 C21.3739355,23.0322581 21.6774194,23.3364194 21.6774194,23.7096774 C21.6774194,24.0829355 21.3739355,24.3870968 21,24.3870968 Z" id="Shape" fill="#FF1157"></path>
                </g>
            </g>
        </g>
    </g>
</svg>