<?xml version="1.0" encoding="UTF-8"?>
<svg width="137px" height="60px" viewBox="0 0 137 60" version="1.1" xmlns="http://www.w3.org/2000/svg" xmlns:xlink="http://www.w3.org/1999/xlink">
    <title>foodNavigator_logo</title>
    <g id="Visual-Designs" stroke="none" stroke-width="1" fill="none" fill-rule="evenodd">
        <g id="Spoonshot---Home" transform="translate(-539.000000, -5554.000000)">
            <g id="foodNavigator_logo" transform="translate(539.000000, 5554.000000)">
                <rect id="Rectangle-Copy-17" fill-opacity="0.01" fill="#FFFFFF" opacity="0.01" x="0" y="0" width="137" height="60"></rect>
                <rect id="Rectangle" fill="#0364A2" x="4" y="6" width="128" height="47"></rect>
                <g transform="translate(12.000000, 14.000000)" fill-rule="nonzero" id="g4526">
                    <g transform="translate(55.000000, 17.000000) scale(-1, 1) rotate(-180.000000) translate(-55.000000, -17.000000) translate(0.000000, -0.000000)">
                        <g id="g4528" transform="translate(0.000000, 0.000000)">
                            <polyline id="path4534" fill="#FFFFFF" points="0 33.6787879 10.6999058 33.6787879 10.6999058 31.5445165 2.56451138 31.5445165 2.56451138 24.9961073 10.0807969 24.9961073 10.0807969 22.892021 2.56451138 22.892021 2.56451138 13.9758552 1.55869718e-15 13.9758552 1.55869718e-15 33.6787879"></polyline>
                            <path d="M15.9195272,23.7099535 C15.9195272,19.5006387 18.2188237,15.7296321 22.2569886,15.7296321 C26.3247132,15.7296321 28.6240097,19.4422266 28.6240097,23.9147221 C28.6240097,27.8321396 26.5603683,31.9243583 22.2865483,31.9243583 C18.0418493,31.9243583 15.9195272,28.0369083 15.9195272,23.7099535 Z M31.3356616,24.0318182 C31.3356616,17.2501414 27.1794772,13.6539904 22.1093545,13.6539904 C16.862751,13.6539904 13.1783156,17.6884496 13.1783156,23.6515414 C13.1783156,29.9071287 17.0984061,34 22.4041291,34 C27.8279264,34 31.3356616,29.878684 31.3356616,24.0318182" id="path4536" fill="#FFFFFF"></path>
                            <path d="M36.2317713,23.7099535 C36.2317713,19.5006387 38.5310679,15.7296321 42.5692328,15.7296321 C46.6369025,15.7296321 48.9364184,19.4422266 48.9364184,23.9147221 C48.9364184,27.8321396 46.8727222,31.9243583 42.5987925,31.9243583 C38.3538741,31.9243583 36.2317713,28.0369083 36.2317713,23.7099535 Z M51.6477961,24.0318182 C51.6477961,17.2501414 47.4918859,13.6539904 42.4215987,13.6539904 C37.1749951,13.6539904 33.4905597,17.6884496 33.4905597,23.6515414 C33.4905597,29.9071287 37.4106503,34 42.7163733,34 C48.1401158,34 51.6477961,29.878684 51.6477961,24.0318182" id="path4538" fill="#FFFFFF"></path>
                            <path d="M57.5460297,15.9930848 C58.1942596,15.8760431 59.1380866,15.8469458 60.140046,15.8469458 C65.6231273,15.8469458 68.5999392,18.8868766 68.5999392,24.2068914 C68.6295537,28.8550583 65.9763084,31.8073165 60.5530046,31.8073165 C59.2263819,31.8073165 58.2238741,31.6902204 57.5460297,31.5445165 L57.5460297,15.9930848 Z M54.981628,33.4153352 C56.5440704,33.6488204 58.4010131,33.8243286 60.4350948,33.8243286 C64.1193656,33.8243286 66.7429965,32.9764286 68.4820293,31.3690083 C70.2501284,29.7613704 71.2822507,27.4815583 71.2822507,24.2952709 C71.2822507,21.0789617 70.2797429,18.4486227 68.4228002,16.6361617 C66.5658575,14.7946579 63.5007503,13.8009996 59.6387921,13.8009996 C57.8114639,13.8009996 56.2786361,13.8881283 54.981628,14.0344848 L54.981628,33.4153352" id="path4540" fill="#FFFFFF"></path>
                            <path d="M23.7807675,6.57470553 C23.7807675,7.15937035 23.7687571,7.63912184 23.7336584,8.10734318 L24.653739,8.10734318 L24.7128584,7.17149875 L24.736221,7.17149875 C25.019424,7.70960794 25.6801029,8.23586067 26.6237654,8.23586067 C27.4144742,8.23586067 28.6413397,7.76763932 28.6413397,5.82606261 L28.6413397,2.44490514 L27.6029654,2.44490514 L27.6029654,5.70896649 C27.6029654,6.62126116 27.2610818,7.38203247 26.2818269,7.38203247 C25.5974015,7.38203247 25.0665331,6.90233538 24.8896135,6.32849365 C24.8424495,6.19997617 24.8189224,6.02446794 24.8189224,5.84879656 L24.8189224,2.44490514 L23.7807675,2.44490514 L23.7807675,6.57470553" id="path4542" fill="#FFFFFF"></path>
                            <path d="M33.3337122,5.33483539 C32.2011198,5.35778688 30.9153542,5.15938155 30.9153542,4.05928709 C30.9153542,3.39200777 31.3637406,3.07650631 31.8945542,3.07650631 C32.6377152,3.07650631 33.1094642,3.54472766 33.2745928,4.02447914 C33.3104045,4.12939248 33.3337122,4.24648861 33.3337122,4.35118441 L33.3337122,5.33483539 Z M33.4868853,2.44490514 L33.4046227,3.15852255 L33.3693046,3.15852255 C33.0507286,2.71385096 32.4372136,2.31551745 31.6231422,2.31551745 C30.4669678,2.31551745 29.8769799,3.12366021 29.8769799,3.94224535 C29.8769799,5.31063298 31.1042841,6.06014609 33.3104045,6.04867035 L33.3104045,6.16511383 C33.3104045,6.63333517 33.1803746,7.47552446 32.0126286,7.47552446 C31.4817601,7.47552446 30.9271452,7.31214463 30.5258679,7.05445701 L30.2902127,7.73321208 C30.7619617,8.03745534 31.4461678,8.23586067 32.1659662,8.23586067 C33.9119091,8.23586067 34.3367136,7.05445701 34.3367136,5.91950021 L34.3367136,3.80181702 C34.3367136,3.31064418 34.3600762,2.8308927 34.4309866,2.44490514 L33.4868853,2.44490514" id="path4544" fill="#FFFFFF"></path>
                            <path d="M36.3163922,8.10734318 L37.4370292,4.92524368 C37.6255204,4.40986844 37.7789128,3.94224535 37.8969324,3.47483982 L37.9325247,3.47483982 C38.0621158,3.94224535 38.2272992,4.40986844 38.4162292,4.92524368 L39.5250752,8.10734318 L40.6105585,8.10734318 L38.3691201,2.44490514 L37.3781291,2.44490514 L35.2071623,8.10734318 L36.3163922,8.10734318" id="path4546" fill="#FFFFFF"></path>
                            <path d="M41.5872358,2.44490514 L41.5872358,8.10734318 L42.6253359,8.10734318 L42.6253359,2.44490514 L41.5872358,2.44490514 Z M42.7434103,9.69839293 C42.754927,9.34781159 42.4955254,9.06657421 42.0827313,9.06657421 C41.7170463,9.06657421 41.4571511,9.34781159 41.4571511,9.69839293 C41.4571511,10.0616465 41.7286179,10.3414699 42.1060391,10.3414699 C42.4955254,10.3414699 42.7434103,10.0616465 42.7434103,9.69839293" id="path4548" fill="#FFFFFF"></path>
                            <path d="M48.1922155,5.87321651 C48.1922155,6.04867035 48.1806987,6.19997617 48.1335348,6.34062205 C47.9443306,6.93736088 47.4375925,7.42918637 46.6824212,7.42918637 C45.691156,7.42918637 44.9833131,6.59830967 44.9833131,5.28768149 C44.9833131,4.17638322 45.5497191,3.25196015 46.670356,3.25196015 C47.3076175,3.25196015 47.8856499,3.64969539 48.1094044,4.30490071 C48.1686335,4.48057209 48.1922155,4.67963007 48.1922155,4.85535584 L48.1922155,5.87321651 Z M49.2660175,8.10734318 C49.2418872,7.69753393 49.2188536,7.24138659 49.2188536,6.55115577 L49.2188536,3.26343589 C49.2188536,1.96515366 48.9589036,1.16932965 48.4044532,0.678140494 C47.8500027,0.163586499 47.0476675,2.31867541e-15 46.3281433,2.31867541e-15 C45.6439921,2.31867541e-15 44.889095,0.163586499 44.4286982,0.467601331 L44.6885386,1.25133501 C45.0660145,1.01784979 45.6560024,0.806674297 46.3637905,0.806674297 C47.4255274,0.806674297 48.2037322,1.35628643 48.2037322,2.78395635 L48.2037322,3.41621017 L48.1806987,3.41621017 C47.8620679,2.88952234 47.2483884,2.46823734 46.3637905,2.46823734 C44.947995,2.46823734 43.9336414,3.66182379 43.9336414,5.22926939 C43.9336414,7.14789461 45.1956057,8.23586067 46.5052823,8.23586067 C47.4962733,8.23586067 48.0392069,7.72108369 48.2865433,7.25373254 L48.3101253,7.25373254 L48.3572892,8.10734318 L49.2660175,8.10734318" id="path4550" fill="#FFFFFF"></path>
                            <path d="M53.9467636,5.33483539 C52.8142808,5.35778688 51.528241,5.15938155 51.528241,4.05928709 C51.528241,3.39200777 51.9768468,3.07650631 52.5077152,3.07650631 C53.2508214,3.07650631 53.7224607,3.54472766 53.8875345,4.02447914 C53.9231816,4.12939248 53.9467636,4.24648861 53.9467636,4.35118441 L53.9467636,5.33483539 Z M54.1003206,2.44490514 L54.0175095,3.15852255 L53.9824107,3.15852255 C53.66378,2.71385096 53.0501005,2.31551745 52.2362484,2.31551745 C51.0801837,2.31551745 50.4900861,3.12366021 50.4900861,3.94224535 C50.4900861,5.31063298 51.7174452,6.06014609 53.9231816,6.04867035 L53.9231816,6.16511383 C53.9231816,6.63333517 53.793755,7.47552446 52.6256251,7.47552446 C52.0947566,7.47552446 51.5403062,7.31214463 51.1388644,7.05445701 L50.9030447,7.73321208 C51.3752325,8.03745534 52.0591095,8.23586067 52.7791821,8.23586067 C54.5253444,8.23586067 54.9498198,7.05445701 54.9498198,5.91950021 L54.9498198,3.80181702 C54.9498198,3.31064418 54.9734017,2.8308927 55.0441476,2.44490514 L54.1003206,2.44490514" id="path4552" fill="#FFFFFF"></path>
                            <path d="M57.8257228,9.73320088 L57.8257228,8.10734318 L59.3119351,8.10734318 L59.3119351,7.32362038 L57.8257228,7.32362038 L57.8257228,4.26982082 C57.8257228,3.5674616 58.0258953,3.1699983 58.6039277,3.1699983 C58.8753945,3.1699983 59.0761154,3.2050238 59.205542,3.24070195 L59.2527059,2.46823734 C59.0525334,2.38622111 58.7339027,2.32759146 58.3324609,2.32759146 C57.8487563,2.32759146 57.4599281,2.47971309 57.2120433,2.76100486 C56.9169945,3.06503056 56.8111498,3.5674616 56.8111498,4.23501287 L56.8111498,7.32362038 L55.9260035,7.32362038 L55.9260035,8.10734318 L56.8111498,8.10734318 L56.8111498,9.46490771 L57.8257228,9.73320088" id="path4554" fill="#FFFFFF"></path>
                            <path d="M61.0449354,5.2642949 C61.0449354,4.02447914 61.7644595,3.08798206 62.7790325,3.08798206 C63.7700235,3.08798206 64.5131296,4.01300339 64.5131296,5.28768149 C64.5131296,6.24713006 64.0294251,7.46339606 62.8026145,7.46339606 C61.5752554,7.46339606 61.0449354,6.34062205 61.0449354,5.2642949 L61.0449354,5.2642949 Z M65.5748665,5.32276138 C65.5748665,3.22862794 64.1116878,2.31551745 62.7318686,2.31551745 C61.1864272,2.31551745 59.9947152,3.43916167 59.9947152,5.22926939 C59.9947152,7.12434485 61.2451079,8.23586067 62.8261964,8.23586067 C64.4659657,8.23586067 65.5748665,7.05445701 65.5748665,5.32276138" id="path4556" fill="#FFFFFF"></path>
                            <path d="M66.8817462,6.34062205 C66.8817462,7.00811892 66.8702294,7.5804378 66.8345822,8.10734318 L67.7433105,8.10734318 L67.7784093,6.99599053 L67.8261216,6.99599053 C68.0855233,7.75616357 68.7101712,8.23586067 69.4066618,8.23586067 C69.5245716,8.23586067 69.6073827,8.22438492 69.7017106,8.20083517 L69.7017106,7.23012839 C69.5953175,7.25373254 69.4894729,7.26499073 69.3474327,7.26499073 C68.6163917,7.26499073 68.09704,6.71535141 67.9555482,5.94310435 C67.9319663,5.80245847 67.9083843,5.63907865 67.9083843,5.46340726 L67.9083843,2.44490514 L66.8817462,2.44490514 L66.8817462,6.34062205" id="path4558" fill="#FFFFFF"></path>
                            <path d="M69.8651391,3.05377237 C69.8651391,3.48609801 70.1601879,3.79034127 70.5731465,3.79034127 C70.9861051,3.79034127 71.2690887,3.48609801 71.2690887,3.05377237 C71.2690887,2.63183472 70.9976219,2.31551745 70.5610813,2.31551745 C70.1481227,2.31551745 69.8651391,2.63183472 69.8651391,3.05377237" id="path4560" fill="#FFFFFF"></path>
                            <path d="M76.6238402,2.65543886 C76.3523734,2.51539124 75.7507591,2.32759146 74.984071,2.32759146 C73.2614906,2.32759146 72.141073,3.48609801 72.141073,5.21779365 C72.141073,6.96096502 73.3437533,8.22438492 75.2078254,8.22438492 C75.821505,8.22438492 76.3638902,8.07226329 76.6474222,7.93161741 L76.4110541,7.13641886 C76.1637177,7.27646648 75.774341,7.40498397 75.2078254,7.40498397 C73.8982037,7.40498397 73.1907447,6.44553539 73.1907447,5.2642949 C73.1907447,3.95437375 74.0396955,3.14639415 75.1721783,3.14639415 C75.7628243,3.14639415 76.1516525,3.29916843 76.4467013,3.42768592 L76.6238402,2.65543886" id="path4562" fill="#FFFFFF"></path>
                            <path d="M78.4029076,5.2642949 C78.4029076,4.02447914 79.1229802,3.08798206 80.1375532,3.08798206 C81.1285442,3.08798206 81.8716503,4.01300339 81.8716503,5.28768149 C81.8716503,6.24713006 81.3884942,7.46339606 80.1611351,7.46339606 C78.9337761,7.46339606 78.4029076,6.34062205 78.4029076,5.2642949 Z M82.9333872,5.32276138 C82.9333872,3.22862794 81.4702084,2.31551745 80.0903892,2.31551745 C78.5449478,2.31551745 77.3532359,3.43916167 77.3532359,5.22926939 C77.3532359,7.12434485 78.6036285,8.23586067 80.1847171,8.23586067 C81.8244864,8.23586067 82.9333872,7.05445701 82.9333872,5.32276138" id="path4564" fill="#FFFFFF"></path>
                            <path d="M84.2408152,6.57470553 C84.2408152,7.15937035 84.2282016,7.63912184 84.1931029,8.10734318 L85.1012828,8.10734318 L85.1489951,7.1950485 L85.1840939,7.1950485 C85.5032731,7.73321208 86.0335931,8.23586067 86.9768717,8.23586067 C87.7561734,8.23586067 88.346271,7.76763932 88.5936074,7.10095826 L88.6171894,7.10095826 C88.7943284,7.41705798 89.0186312,7.66267159 89.2544509,7.83817981 C89.5961152,8.09586744 89.9739751,8.23586067 90.5169087,8.23586067 C91.27208,8.23586067 92.3924976,7.74468783 92.3924976,5.77885433 L92.3924976,2.44490514 L91.3779247,2.44490514 L91.3779247,5.65055439 C91.3779247,6.7383029 90.9770313,7.39350822 90.1390488,7.39350822 C89.5494997,7.39350822 89.0888287,6.96096502 88.9116898,6.45766379 C88.8650743,6.31723546 88.8299755,6.13003394 88.8299755,5.94310435 L88.8299755,2.44490514 L87.8148541,2.44490514 L87.8148541,5.83753836 C87.8148541,6.7383029 87.4139607,7.39350822 86.6236907,7.39350822 C85.974364,7.39350822 85.5032731,6.87894879 85.3376509,6.3641718 C85.2784218,6.21205017 85.2548398,6.03659634 85.2548398,5.86087057 L85.2548398,2.44490514 L84.2408152,2.44490514 L84.2408152,6.57470553" id="path4566" fill="#FFFFFF"></path>
                            <path d="M104.27726,2.90273849 C104.27726,2.64945625 104.068861,2.44278403 103.814395,2.44278403 L98.8901519,2.44278403 C98.6351376,2.44278403 98.4267389,2.64945625 98.4267389,2.90273849 L98.4267389,7.78759951 C98.4267389,8.04082736 98.6351376,8.24668377 98.8901519,8.24668377 L103.814395,8.24668377 C104.068861,8.24668377 104.27726,8.04082736 104.27726,7.78759951 L104.27726,2.90273849" id="path4568" fill="#FFFFFF"></path>
                            <path d="M110,8.71621041 C110,8.46298256 109.791601,8.25625595 109.537135,8.25625595 L104.612343,8.25625595 C104.357878,8.25625595 104.149479,8.46298256 104.149479,8.71621041 L104.149479,13.6009083 C104.149479,13.8543537 104.357878,14.0608627 104.612343,14.0608627 L109.537135,14.0608627 C109.791601,14.0608627 110,13.8543537 110,13.6009083 L110,8.71621041" id="path4570" fill="#5D9CD9"></path>
                        </g>
                    </g>
                </g>
            </g>
        </g>
    </g>
</svg>