<?xml version="1.0" encoding="UTF-8"?>
<svg width="247px" height="60px" viewBox="0 0 247 60" version="1.1" xmlns="http://www.w3.org/2000/svg" xmlns:xlink="http://www.w3.org/1999/xlink">
    <title>Food and wine</title>
    <g id="Visual-Designs" stroke="none" stroke-width="1" fill="none" fill-rule="evenodd">
        <g id="Spoonshot---Home" transform="translate(-474.000000, -5449.000000)">
            <g id="Food-and-wine" transform="translate(474.000000, 5449.000000)">
                <rect id="Rectangle-Copy-14" fill-opacity="0.01" fill="#FFFFFF" opacity="0.01" x="0" y="0" width="247" height="60"></rect>
                <g id="g6831" style="mix-blend-mode: multiply;" transform="translate(123.500000, 33.000000) scale(1, -1) translate(-123.500000, -33.000000) translate(14.000000, 19.000000)" fill="#231F20" fill-rule="nonzero">
                    <path d="M161.928075,0.531699198 L168.124939,0.531699198 L168.124939,27.4704191 L161.928075,27.4704191 L161.928075,0.531699198 Z M190.149311,10.4518081 L179.58534,27.4683008 L173.431886,27.4683008 L173.431886,0.531699198 L179.350922,0.531699198 L179.350922,17.5503102 L190.27086,0.531699198 L196.068347,0.531699198 L196.068347,27.4683008 L190.149311,27.4683008 L190.149311,10.4518081 Z M206.727821,5.73853836 L206.727821,11.7990619 L216.849004,11.7990619 L216.849004,16.6118929 L206.727821,16.6118929 L206.727821,22.2614616 L218.568064,22.2614616 L218.568064,27.4683008 L200.524446,27.4683008 L200.524446,0.531699198 L219,0.531699198 L219,5.73853836 L206.727821,5.73853836 L206.727821,5.73853836 Z M148.896211,9.36298986 L143.762907,27.4683008 L138.968205,27.4683008 L133.637383,9.36298986 L129.096633,27.4683008 L123.051706,27.4683008 L130.262208,0.531699198 L135.762332,0.531699198 L141.082302,17.3999092 L146.489093,0.531699198 L151.778675,0.531699198 L159.197548,27.4683008 L153.276341,27.4683008 L148.896211,9.36298986 Z M0,0.531699198 L6.31407277,0.531699198 L6.31407277,11.1148434 L16.2789776,11.1148434 L16.2789776,16.3216826 L6.1946936,16.3216826 L6.1946936,22.2614616 L17.9958671,22.2614616 L17.9958671,27.4683008 L0,27.4683008 L0,0.531699198 Z M32.0261752,28 C23.2984727,28 19.632447,21.6344379 19.632447,14.0021183 C19.632447,6.36344379 23.2984727,0 32.0261752,0 C40.7582188,0 44.4242445,6.36344379 44.4242445,14.0021183 C44.4242445,21.6344379 40.7582188,28 32.0261752,28 M32.0261752,5.20472084 C28.0150351,5.20472084 26.0246588,8.6448782 26.0246588,14.0021183 C26.0246588,19.3508852 28.0150351,22.7952792 32.0261752,22.7952792 C36.0394858,22.7952792 38.0298621,19.3508852 38.0298621,14.0021183 C38.0298621,8.6448782 36.0394858,5.20472084 32.0261752,5.20472084 M124.21511,0.830382811 C123.420696,0.830382811 121.916519,1.32395219 121.009237,1.85353306 C120.227846,2.298381 118.964598,3.05038584 117.074066,4.58617037 C118.510957,6.26176426 119.871879,8.94568013 119.871879,11.1444999 C119.871879,11.4495385 119.611416,11.6380693 119.129558,11.6910274 C117.5429,11.8583749 116.403372,11.8880315 115.728337,11.8880315 C115.49609,11.8880315 115.272525,11.8287184 115.272525,11.6507792 L115.611128,11.4495385 C116.036552,11.4495385 116.635619,11.3669239 117.000268,11.0152822 C117.427862,10.6424573 117.5429,10.117113 117.5429,9.6998033 C117.5429,8.00726282 116.817943,6.18338629 116.138567,5.26191557 C115.411439,5.87411106 111.916886,9.00711151 110.955341,10.0578 C108.344193,12.8561053 106.353816,14.864276 106.353816,17.2537449 C106.353816,19.7321834 108.226984,20.6451808 109.676898,20.6451808 C111.094255,20.6451808 112.075334,20.0626419 112.67223,19.4144349 C113.338583,18.6920865 113.523078,17.7896807 113.523078,17.0694507 C113.523078,16.6563777 113.551295,16.5462248 113.707573,16.5462248 C113.850828,16.5462248 113.950672,16.5991829 114.020129,17.0164927 C114.10478,17.4316841 114.276252,19.5097594 114.276252,20.384627 C114.276252,20.7172038 114.263229,20.9078529 113.850828,21.0921471 C113.086801,21.4501437 111.838746,21.7276441 110.410537,21.7276441 C106.04343,21.7276441 103.898946,18.819186 103.91414,16.6288395 C103.927163,15.3811469 104.209332,14.2457255 105.329326,12.7459525 C103.375849,11.7100923 100.847181,9.36934483 100.847181,6.12619156 C100.847181,3.71130277 102.722519,6.03961325e-14 108.240007,6.03961325e-14 C112.288046,6.03961325e-14 114.360903,2.02723559 115.155317,2.75805719 C117.937937,0.635497049 118.793126,0.385534877 121.458537,0.385534877 L123.943794,0.385534877 C124.384412,0.385534877 124.614488,0.468149493 124.614488,0.612195491 C124.614488,0.800726282 124.473404,0.830382811 124.21511,0.830382811 M109.223257,1.60992586 C106.158469,1.60992586 103.655847,3.96338327 103.655847,7.42684218 C103.655847,9.64260856 104.69119,11.0407021 105.915369,11.8583749 C106.553505,10.9474958 108.368068,8.96474504 109.108219,8.19367529 C109.84837,7.41413224 112.611455,4.79376608 114.230671,3.46345892 C113.45145,2.70298078 111.636887,1.60992586 109.223257,1.60992586 M81.3471362,27.4683008 L74.4904308,27.4683008 L74.4904308,0.531699198 L81.3471362,0.531699198 C90.7325094,0.531699198 96.497438,4.43153276 96.497438,14.0021183 C96.497438,23.5705856 90.7325094,27.4683008 81.3471362,27.4683008 M82.0330238,5.73853836 L80.6851244,5.73853836 L80.6851244,22.2614616 L82.0330238,22.2614616 C87.7176427,22.2614616 90.2202642,20.1706764 90.2202642,14.0021183 C90.2202642,7.82932365 87.7176427,5.73853836 82.0330238,5.73853836 M59.4160976,28 C50.6862246,28 47.0180283,21.6344379 47.0180283,14.0021183 C47.0180283,6.36344379 50.6862246,6.03961325e-14 59.4160976,6.03961325e-14 C68.1481412,6.03961325e-14 71.8119964,6.36344379 71.8119964,14.0021183 C71.8119964,21.6344379 68.1481412,28 59.4160976,28 M59.4160976,5.20472084 C55.4049575,5.20472084 53.4167517,8.6448782 53.4167517,14.0021183 C53.4167517,19.3508852 55.4049575,22.7952792 59.4160976,22.7952792 C63.4294082,22.7952792 65.4197845,19.3508852 65.4197845,14.0021183 C65.4197845,8.6448782 63.4294082,5.20472084 59.4160976,5.20472084" id="path6837"></path>
                </g>
            </g>
        </g>
    </g>
</svg>