<svg xmlns="http://www.w3.org/2000/svg" xmlns:xlink="http://www.w3.org/1999/xlink" width="320" height="789" viewBox="0 0 320 789">
    <defs>
        <path id="a" d="M0 205.035C164.267 68.345 332.267 0 504 0s339.733 68.345 504 205.035v583.097L0 789V205.035z"/>
    </defs>
    <g fill="none" fill-rule="evenodd" transform="translate(-344)">
        <mask id="b" fill="#fff">
            <use xlink:href="#a"/>
        </mask>
        <use fill="#23205E" fill-rule="nonzero" xlink:href="#a"/>
        <g fill="#FFF" fill-rule="nonzero" mask="url(#b)" opacity=".088">
            <path d="M523.872 189.434c-387.618-6.507-705.866 418.585-710.717 949.205-4.692 518.951 291.582 946.806 667.218 971.889 6.414.477 12.69-2.67 17.369-8.706 4.677-6.037 7.348-14.438 7.389-23.247l.796-196.37c-292.96-8.18-527.154-336.25-523.496-738.44 3.632-404.154 245.83-727.5 541.123-722.483 295.292 5.017 531.182 338.25 527.497 742.367 0 .339 43.97 6.228 142.507 21.156 4.649.697 11.946-4.953 15.448-9.203 3.503-4.25 8.185-13.953 8.247-20.366 4.453-530.584-305.763-959.15-693.381-965.802z" opacity=".4"/>
            <path d="M692.018 1288.9c14.951-40.21 20.902-85.585 17.103-130.42 0-.655-.212-1.274-.212-2.255-13.258-151.516-121.632-325.508-214.254-311.36-93.1 14.148-167.054 217.199-154.857 369.333 9.069 110.745 65.523 183.63 129.428 213.561 21.554 10.23 35.969 38.147 35.85 69.43l-.318 145.078c-197.23-7.856-353.121-232.438-348.56-502.845 4.56-270.408 168.062-484.697 365.663-479.75 197.602 4.946 355.084 227.345 352.405 497.425v2.255c-2.396 203.755-96.307 384.3-235.997 453.71-4.905 2.439-10.34 1.835-14.896-1.655-4.554-3.49-7.78-9.522-8.836-16.53l-17.024-113c-4.987-33.335 5.087-67.521 25.562-86.741 28.134-26.732 53.166-62.774 68.943-106.235"/>
            <path d="M520.943 659.785c-196.967-4.935-359.956 209.243-364.534 478.726-4.46 269.912 150.9 494.08 347.704 501.696l-.202 240.053c-292.527-8.166-526.395-337.78-522.77-739.282 3.653-403.462 245.423-726.253 540.094-721.245 294.67 5.008 530.3 335.928 526.623 741.604-.957 104.276-18.373 207.031-51.049 301.199-4.183 11.904-11.764 20.913-20.952 24.898-9.188 3.984-19.167 2.591-27.582-3.85l-121.731-92.719c29.374-70.981 44.379-153.394 45.358-235.117 3.176-269.446-153.991-491.027-350.959-495.963z" opacity=".7"/>
        </g>
    </g>
</svg>
