<svg xmlns="http://www.w3.org/2000/svg" xmlns:xlink="http://www.w3.org/1999/xlink" width="1440" height="799" viewBox="0 0 1440 799">
    <defs>
        <path id="a" d="M0 207.893C234.667 69.298 474.667 0 720 0c245.333 0 485.333 69.298 720 207.893V799.12L0 800V207.893z"/>
    </defs>
    <g fill="none" fill-rule="evenodd">
        <mask id="b" fill="#fff">
            <use xlink:href="#a"/>
        </mask>
        <use fill="#23205E" fill-rule="nonzero" xlink:href="#a"/>
        <g fill="#FFF" fill-rule="nonzero" mask="url(#b)" opacity=".088">
            <path d="M748.388 192.075c-553.74-6.598-1008.38 424.42-1015.31 962.439-6.702 526.186 416.546 960.006 953.17 985.438 9.162.484 18.129-2.706 24.811-8.827 6.683-6.122 10.498-14.64 10.557-23.571l1.137-199.109c-418.514-8.293-753.077-340.936-747.851-748.734 5.188-409.789 351.185-737.642 773.032-732.555 421.846 5.086 758.831 342.964 753.568 752.716 0 .344 62.813 6.315 203.58 21.451 6.642.707 17.066-5.022 22.07-9.33 5.004-4.31 11.692-14.15 11.78-20.651 6.362-537.981-436.804-972.522-990.544-979.267z" opacity=".4"/>
            <path d="M988.597 1306.87c21.36-40.77 29.86-86.779 24.433-132.24 0-.663-.303-1.29-.303-2.286-18.94-153.628-173.76-330.045-306.077-315.7-133 14.345-238.649 220.227-221.224 374.482 12.955 112.289 93.604 186.19 184.896 216.539 30.793 10.373 51.385 38.678 51.215 70.397l-.454 147.1c-281.758-7.965-504.46-235.677-497.944-509.855 6.516-274.177 240.089-491.454 522.377-486.439 282.288 5.016 507.262 230.516 503.436 504.361v2.287c-3.424 206.595-137.582 389.657-337.14 460.035-7.007 2.473-14.772 1.86-21.278-1.678-6.507-3.54-11.114-9.655-12.625-16.76l-24.32-114.576c-7.124-33.8 7.268-68.463 36.518-87.95 40.191-27.105 75.951-63.65 98.49-107.717"/>
            <path d="M744.205 668.984c-281.382-5.004-514.223 212.16-520.763 485.4-6.372 273.675 215.571 500.968 496.719 508.69l-.288 243.4c-417.896-8.28-751.993-342.488-746.814-749.588 5.217-409.087 350.604-736.379 771.562-731.301 420.958 5.077 757.573 340.611 752.318 751.943-1.367 105.73-26.246 209.918-72.925 305.398-5.976 12.07-16.806 21.205-29.932 25.245-13.126 4.04-27.383 2.628-39.403-3.904l-173.903-94.011c41.964-71.971 63.4-155.532 64.798-238.395 4.537-273.203-219.987-497.873-501.37-502.877z" opacity=".7"/>
        </g>
    </g>
</svg>
