<svg xmlns="http://www.w3.org/2000/svg" width="201" height="42" viewBox="0 0 201 42">
    <g fill="#FFF" fill-rule="evenodd">
        <g fill-rule="nonzero">
            <path d="M21.147.002C9.615-.14.146 9.139.002 20.722c-.14 11.329 8.675 20.669 19.85 21.216.192.01.378-.058.518-.19a.705.705 0 0 0 .22-.507l.023-4.287c-8.716-.178-15.684-7.34-15.575-16.12.108-8.822 7.314-15.88 16.1-15.771 8.785.11 15.804 7.384 15.694 16.205 0 .008 1.308.136 4.24.462.138.015.355-.108.46-.2.104-.093.243-.305.245-.445C41.909 9.502 32.68.147 21.147.002z" opacity=".6"/>
            <path d="M26.188 24.02a5.023 5.023 0 0 0 .508-2.846c0-.014-.006-.028-.006-.05-.394-3.306-3.618-7.102-6.373-6.794-2.769.309-4.968 4.74-4.606 8.06.27 2.417 1.95 4.007 3.85 4.66.641.224 1.07.833 1.066 1.516l-.01 3.166c-5.865-.172-10.502-5.073-10.367-10.974.136-5.9 5-10.577 10.877-10.47 5.877.109 10.561 4.962 10.482 10.856v.05c-.072 4.446-2.865 8.386-7.02 9.9a.532.532 0 0 1-.706-.397l-.506-2.466a1.85 1.85 0 0 1 .76-1.892c.837-.584 1.581-1.37 2.05-2.319"/>
            <path d="M21.12 10.307c-5.865-.108-10.718 4.568-10.855 10.452-.133 5.893 4.494 10.788 10.354 10.954l-.006 5.241c-8.71-.178-15.675-7.375-15.567-16.141.109-8.809 7.308-15.857 16.083-15.747 8.775.109 15.791 7.334 15.682 16.192a15.838 15.838 0 0 1-1.52 6.576 1.036 1.036 0 0 1-1.445.46l-3.625-2.025c.874-1.55 1.321-3.35 1.35-5.133.095-5.883-4.585-10.721-10.45-10.83z" opacity=".8"/>
        </g>
        <path stroke="#FFF" stroke-width=".3" d="M65.279 17.431H62.32v-.674c0-.685-.16-1.276-.479-1.775-.319-.499-.856-.748-1.61-.748-.406 0-.734.078-.986.235a1.954 1.954 0 0 0-.609.586 2.498 2.498 0 0 0-.319.866c-.058.322-.087.66-.087 1.012 0 .41.015.752.044 1.026.029.274.101.518.217.733.116.215.286.401.508.558.222.156.527.313.913.469l2.263.91c.657.253 1.189.552 1.595.894.406.342.725.738.957 1.188.212.469.357 1.002.435 1.598.077.597.116 1.276.116 2.039 0 .88-.087 1.696-.261 2.449-.174.753-.455 1.393-.841 1.921a4.184 4.184 0 0 1-1.595 1.29c-.658.313-1.46.47-2.408.47a5.214 5.214 0 0 1-2-.381 4.755 4.755 0 0 1-1.596-1.056 5.141 5.141 0 0 1-1.058-1.57 4.811 4.811 0 0 1-.392-1.95v-1.115h2.958v.939c0 .547.16 1.041.479 1.481.319.44.855.66 1.61.66.502 0 .894-.073 1.174-.22a1.57 1.57 0 0 0 .653-.63c.154-.274.246-.602.275-.983.03-.381.044-.807.044-1.276 0-.547-.02-.997-.058-1.35-.04-.351-.116-.635-.232-.85a1.64 1.64 0 0 0-.537-.528 6.844 6.844 0 0 0-.885-.44l-2.117-.88c-1.276-.528-2.131-1.227-2.566-2.097-.435-.87-.653-1.96-.653-3.27 0-.782.107-1.525.32-2.23a5.09 5.09 0 0 1 .956-1.818 4.393 4.393 0 0 1 1.552-1.217c.628-.303 1.377-.455 2.247-.455a4.86 4.86 0 0 1 2.016.411 5.19 5.19 0 0 1 1.58 1.085c.89.939 1.335 2.014 1.335 3.227v1.466zm7.037 14.87V11.419h4.438c.812 0 1.527.108 2.146.323.618.215 1.18.596 1.682 1.144.502.547.85 1.188 1.044 1.921.193.733.29 1.726.29 2.977 0 .939-.053 1.73-.16 2.376a5.002 5.002 0 0 1-.681 1.818 4.34 4.34 0 0 1-1.624 1.599c-.677.381-1.566.572-2.668.572h-1.508v8.154h-2.959zm2.959-18.067v7.098h1.42c.6 0 1.064-.088 1.393-.264.328-.176.57-.42.725-.733.154-.293.246-.655.275-1.085.03-.43.044-.91.044-1.438 0-.488-.01-.953-.03-1.393a3.043 3.043 0 0 0-.26-1.158 1.658 1.658 0 0 0-.696-.763c-.31-.176-.754-.264-1.334-.264h-1.537zm13.505 2.112c0-.84.145-1.584.435-2.23a4.708 4.708 0 0 1 1.16-1.612c.464-.411.99-.724 1.58-.939a5.171 5.171 0 0 1 1.784-.323c.6 0 1.194.108 1.783.323.59.215 1.127.528 1.61.939.464.43.841.967 1.131 1.613.29.645.435 1.388.435 2.229v11.028c0 .88-.145 1.633-.435 2.259a4.656 4.656 0 0 1-1.131 1.554c-.483.43-1.02.753-1.61.968a5.171 5.171 0 0 1-1.783.323c-.6 0-1.194-.108-1.784-.323a4.644 4.644 0 0 1-1.58-.968 4.473 4.473 0 0 1-1.16-1.554c-.29-.626-.435-1.379-.435-2.259V16.346zm2.958 11.028c0 .724.198 1.257.594 1.599.397.342.865.513 1.407.513.541 0 1.01-.171 1.406-.513.397-.342.595-.875.595-1.599V16.346c0-.724-.198-1.256-.595-1.599a2.083 2.083 0 0 0-1.406-.513c-.542 0-1.01.171-1.407.513-.396.343-.594.875-.594 1.599v11.028zm14.23-11.028c0-.84.145-1.584.435-2.23a4.708 4.708 0 0 1 1.16-1.612c.464-.411.99-.724 1.58-.939a5.171 5.171 0 0 1 1.784-.323c.6 0 1.194.108 1.784.323.59.215 1.126.528 1.61.939.463.43.84.967 1.13 1.613.29.645.435 1.388.435 2.229v11.028c0 .88-.145 1.633-.435 2.259a4.656 4.656 0 0 1-1.13 1.554c-.484.43-1.02.753-1.61.968a5.171 5.171 0 0 1-1.784.323c-.6 0-1.194-.108-1.784-.323a4.644 4.644 0 0 1-1.58-.968 4.473 4.473 0 0 1-1.16-1.554c-.29-.626-.435-1.379-.435-2.259V16.346zm2.958 11.028c0 .724.198 1.257.594 1.599.397.342.866.513 1.407.513s1.01-.171 1.407-.513c.396-.342.594-.875.594-1.599V16.346c0-.724-.198-1.256-.594-1.599a2.083 2.083 0 0 0-1.407-.513c-.541 0-1.01.171-1.407.513-.396.343-.594.875-.594 1.599v11.028zm14.288 4.928V11.418h2.842l4.466 12.583h.058V11.418h2.958v20.884h-2.784l-4.524-12.554h-.058v12.554h-2.958zm27.397-14.87h-2.959v-.675c0-.685-.16-1.276-.478-1.775-.32-.499-.856-.748-1.61-.748-.406 0-.734.078-.986.235a1.954 1.954 0 0 0-.609.586 2.498 2.498 0 0 0-.319.866c-.058.322-.087.66-.087 1.012 0 .41.015.752.044 1.026.029.274.101.518.217.733.116.215.285.401.508.558.222.156.527.313.913.469l2.262.91c.658.253 1.19.552 1.595.894.407.342.726.738.958 1.188.212.469.357 1.002.435 1.598.077.597.116 1.276.116 2.039 0 .88-.087 1.696-.261 2.449-.174.753-.455 1.393-.841 1.921a4.184 4.184 0 0 1-1.596 1.29c-.657.313-1.46.47-2.407.47a5.214 5.214 0 0 1-2-.381 4.755 4.755 0 0 1-1.596-1.056 5.141 5.141 0 0 1-1.058-1.57 4.811 4.811 0 0 1-.392-1.95v-1.115h2.958v.939c0 .547.16 1.041.479 1.481.319.44.855.66 1.61.66.502 0 .894-.073 1.174-.22a1.57 1.57 0 0 0 .652-.63c.155-.274.247-.602.276-.983.029-.381.043-.807.043-1.276 0-.547-.019-.997-.058-1.35-.038-.351-.116-.635-.232-.85a1.64 1.64 0 0 0-.536-.528 6.844 6.844 0 0 0-.885-.44l-2.117-.88c-1.276-.528-2.131-1.227-2.566-2.097-.435-.87-.653-1.96-.653-3.27 0-.782.106-1.525.32-2.23a5.09 5.09 0 0 1 .956-1.818 4.393 4.393 0 0 1 1.552-1.217c.628-.303 1.377-.455 2.247-.455a4.86 4.86 0 0 1 2.016.411 5.19 5.19 0 0 1 1.58 1.085c.89.939 1.335 2.014 1.335 3.227v1.466zm7.037 14.87V11.418h2.958v8.946h3.655v-8.946h2.958v20.884h-2.958v-9.298h-3.655v9.298h-2.958zm17.014-15.956c0-.84.145-1.584.435-2.23a4.708 4.708 0 0 1 1.16-1.612c.465-.411.991-.724 1.581-.939a5.171 5.171 0 0 1 1.784-.323c.599 0 1.194.108 1.783.323.59.215 1.126.528 1.61.939.464.43.84.967 1.13 1.613.29.645.436 1.388.436 2.229v11.028c0 .88-.145 1.633-.435 2.259a4.656 4.656 0 0 1-1.131 1.554c-.484.43-1.02.753-1.61.968a5.171 5.171 0 0 1-1.783.323c-.6 0-1.194-.108-1.784-.323a4.644 4.644 0 0 1-1.58-.968 4.473 4.473 0 0 1-1.16-1.554c-.29-.626-.436-1.379-.436-2.259V16.346zm2.959 11.028c0 .724.198 1.257.594 1.599.396.342.865.513 1.407.513.541 0 1.01-.171 1.406-.513.397-.342.595-.875.595-1.599V16.346c0-.724-.198-1.256-.595-1.599a2.083 2.083 0 0 0-1.406-.513c-.542 0-1.01.171-1.407.513-.396.343-.594.875-.594 1.599v11.028zm15.999 4.928V14.234h-3.422v-2.816H200v2.816h-3.422v18.068h-2.958z"/>
    </g>
</svg>
