<svg xmlns="http://www.w3.org/2000/svg" width="20" height="20" viewBox="0 0 20 20">
    <g fill="#FF1157" fill-rule="evenodd" transform="matrix(-1 0 0 1 20 0)">
        <circle cx="10" cy="10" r="10" opacity=".08"/>
        <path fill-rule="nonzero" d="M14.375 9.375H7.394l3.051-3.052c.244-.243.244-.637 0-.88l-.001-.002c-.246-.244-.642-.243-.886.001l-3.85 3.85c-.391.391-.391 1.025 0 1.415l3.851 3.852c.244.244.638.244.882 0 .243-.243.243-.638 0-.881l-3.047-3.053h6.981c.345 0 .625-.28.625-.625s-.28-.625-.625-.625z"/>
    </g>
</svg>
