<?xml version="1.0" encoding="UTF-8"?>
<svg width="128px" height="60px" viewBox="0 0 128 60" version="1.1" xmlns="http://www.w3.org/2000/svg" xmlns:xlink="http://www.w3.org/1999/xlink">
    <title>snack_brand_logo</title>
    <g id="Visual-Designs" stroke="none" stroke-width="1" fill="none" fill-rule="evenodd">
        <g id="Spoonshot---Home" transform="translate(-969.000000, -5554.000000)">
            <g id="snack_brand_logo" transform="translate(969.000000, 5554.000000)">
                <rect id="Rectangle-Copy-19" fill-opacity="0.01" fill="#FFFFFF" opacity="0.01" x="0" y="0" width="128" height="60"></rect>
                <g style="mix-blend-mode: multiply;" transform="translate(11.000000, 15.000000)">
                    <polygon id="Path" fill="#F15E4E" points="53.6834813 0.280621584 59.7442504 0.280621584 62.6348164 9.34761489 65.5244012 0.280621584 71.6253989 0.280621584 66.8489986 13.4612529 69.7385834 21.0909628 76.8835601 0.240588553 84.0677842 0.240588553 72.6683967 28.5995971 67.1698456 28.5995971 62.6348164 17.4958013 58.1390346 28.5995971 52.6002549 28.5995971 41.241096 0.240588553 48.3850915 0.240588553 55.5702967 21.0909628 58.3794245 13.4612529"></polygon>
                    <path d="M100.2838,20.0120238 C100.2838,19.1332499 100.028693,18.388245 99.5204398,17.7750561 C99.0121868,17.1628437 98.370493,16.8562492 97.594377,16.8562492 L90.0078678,16.8562492 L90.0078678,23.0476992 L97.3127774,23.0476992 C98.1693504,23.0476992 98.8787459,22.7684444 99.4409639,22.2089584 C100.002201,21.6494724 100.2838,20.9181373 100.2838,20.0120238 Z M90.0078678,5.83251949 L90.0078678,11.7037052 L96.4699409,11.7037052 C97.193073,11.7037052 97.8347669,11.4644835 98.3969849,10.9850635 C98.9592029,10.5056435 99.2398214,9.7606386 99.2398214,8.74809584 C99.2398214,7.81659556 98.9925632,7.09795383 98.4970656,6.59119425 C98.0015681,6.08638749 97.406971,5.83251949 96.711312,5.83251949 L90.0078678,5.83251949 Z M106.986263,21.3301845 C106.986263,22.5555859 106.732137,23.6208551 106.223884,24.5259921 C105.715837,25.4307364 105.000894,26.2037524 104.136907,26.7824881 C103.253842,27.3820071 102.2236,27.8350639 101.04618,28.1406819 C99.8677787,28.4472763 98.6236383,28.5995971 97.3127774,28.5995971 L83.4251091,28.5995971 L83.4251091,0.240588553 L99.2800499,0.240588553 C100.270064,0.240588553 101.166865,0.454423523 101.969473,0.879164218 C102.754921,1.29208214 103.450523,1.85554957 104.016222,2.53711755 C104.584363,3.22718417 105.025785,4.01153642 105.320214,4.85415127 C105.628306,5.7192553 105.782352,6.60486406 105.782352,7.51000113 C105.782352,8.86819493 105.4409,10.1463227 104.758977,11.3443844 C104.076074,12.5434225 103.0527,13.4485595 101.687874,14.060772 C103.320563,14.5401919 104.6118,15.3926026 105.561585,16.6170275 C106.511371,17.8424288 106.986263,19.4134811 106.986263,21.3301845 L106.986263,21.3301845 Z M45.523961,20.5500287 C45.523961,20.6535287 45.5406412,20.7550759 45.5740014,20.8546703 C45.617655,20.9740632 45.6749387,21.0880739 45.7447273,21.1944628 C45.8251843,21.3213968 45.9370392,21.4727412 46.0793108,21.6475196 C46.2215824,21.8222979 46.407026,22.0283216 46.6346605,22.2636377 C47.0613697,22.00269 47.4618974,21.7015469 47.830723,21.3643591 C48.1339086,21.0763165 48.285992,20.7531231 48.285992,20.3938022 C48.285992,20.0637738 48.1623629,19.7913539 47.9160859,19.5794718 C47.6688277,19.3666132 47.3558302,19.2601839 46.9761123,19.2601839 C46.5492976,19.2601839 46.1999963,19.3851651 45.9301709,19.6361038 C45.667678,19.8674807 45.5193937,20.201103 45.523961,20.5500287 L45.523961,20.5500287 Z M47.0477387,27.6475921 C47.4745534,27.6475921 47.8729138,27.562644 48.2428199,27.3927477 C48.6167055,27.2205187 48.9548379,26.9800746 49.2397022,26.6838701 L46.3638539,23.6667466 C45.9183967,23.9879872 45.5543777,24.3209449 45.2747405,24.6656195 C44.9992354,24.998274 44.8505223,25.4170039 44.854794,25.8480586 C44.854794,26.1321954 44.9166086,26.3870399 45.0402377,26.6135682 C45.1628856,26.8400966 45.3267432,27.0295212 45.5308293,27.1798891 C45.7349155,27.3312335 45.9674559,27.447427 46.2284506,27.527493 C46.4894454,27.6075591 46.7622144,27.6475921 47.0477387,27.6475921 L47.0477387,27.6475921 Z M49.9235869,27.4064175 C49.5282377,27.7951773 49.0620277,28.1053573 48.5499303,28.3203423 C48.0334681,28.5348386 47.4788265,28.6434346 46.9192037,28.6397268 C46.4541228,28.6397268 46.0224022,28.5683518 45.6240417,28.4267716 C45.2441059,28.2965361 44.8917757,28.0972234 44.5849686,27.8389695 C44.2947517,27.5953387 44.0593864,27.2935789 43.8942156,26.9533608 C43.7256819,26.6044381 43.6403926,26.2214989 43.644995,25.8343887 C43.644995,25.5033839 43.6989601,25.1967895 43.8088527,24.913629 C43.9161361,24.6336333 44.0646057,24.371043 44.249404,24.1344495 C44.4382616,23.8944358 44.650583,23.673661 44.8832484,23.4753692 C45.1206947,23.2722748 45.3718776,23.0808973 45.6377783,22.9012369 C45.4354573,22.6763652 45.2407472,22.4448255 45.0539743,22.2070056 C44.9077062,22.0219382 44.7767787,21.8253584 44.6624821,21.6192035 C44.5706733,21.4525873 44.4966797,21.2768475 44.4417159,21.0948684 C44.3148586,20.6223418 44.3603997,20.1203651 44.5702509,19.6780897 C44.7027106,19.3998113 44.8852107,19.1586367 45.1187323,18.9555423 C45.3512728,18.7524479 45.6260041,18.5942686 45.9439075,18.4810044 C46.2755325,18.3654692 46.6247658,18.3079869 46.9761123,18.3111082 C47.3175641,18.3111082 47.638411,18.3589525 47.9376719,18.4526884 C48.2359517,18.5474007 48.4969464,18.6840988 48.7206562,18.8637593 C49.1812182,19.2264345 49.4468428,19.7810668 49.4398636,20.3654861 C49.4398636,20.6486466 49.3849173,20.9132552 49.2760059,21.1593119 C49.1636548,21.4085375 49.0148662,21.6398489 48.8344735,21.8457319 C48.6365806,22.0701146 48.4144779,22.2721464 48.1721747,22.4481802 C47.9160859,22.6376048 47.6452793,22.8260529 47.3607362,23.0154775 L49.9373235,25.7064783 C50.1178612,25.3666858 50.2581704,24.9966243 50.3572699,24.5943412 C50.4573506,24.1930345 50.507391,23.7663409 50.507391,23.3123078 L51.5464641,23.3123078 C51.5413208,23.8913943 51.4625267,24.4675032 51.3119613,25.0268932 C51.1724341,25.5367066 50.9589034,26.0235328 50.6781169,26.471988 C50.6781169,26.471988 50.4671625,26.8049456 50.3435334,26.9504315 C50.2189231,27.0968938 49.9235869,27.4064175 49.9235869,27.4064175 L49.9235869,27.4064175 Z M19.105601,8.5489071 C19.025144,8.44247782 18.7445255,8.24231267 18.2627646,7.94938805 C17.6807142,7.60552501 17.0773902,7.29864338 16.4564061,7.03058117 C15.6880156,6.6950854 14.896465,6.41478801 14.0878297,6.19184035 C13.2522111,5.95532507 12.3878506,5.83441636 11.5190918,5.83251949 C9.16425192,5.83251949 7.98781315,6.61853388 7.98781315,8.18958624 C7.98781315,8.66900619 8.1143858,9.06836009 8.36851227,9.38764792 C8.62263874,9.70693575 8.99745076,9.99302546 9.49294832,10.245917 C9.9874647,10.499785 10.6095349,10.7321719 11.3591589,10.9450305 C12.1078018,11.1588654 12.9781114,11.3980872 13.9681253,11.6646486 C15.3329513,12.0376393 16.5633551,12.4428517 17.660318,12.8822386 C18.7572809,13.3216255 19.6874427,13.8674417 20.4508033,14.5196872 C21.2108809,15.170092 21.814162,15.9823494 22.215952,16.8962823 C22.6309926,17.828759 22.8380222,18.947731 22.8380222,20.2512455 C22.8380222,21.8496375 22.5377801,23.2009964 21.9353336,24.3062987 C21.3328871,25.4116009 20.5371474,26.3030681 19.5471335,26.9816768 C18.5571195,27.6612619 17.4199281,28.1543517 16.1355592,28.4599697 C14.8337196,28.7681044 13.4999208,28.9224665 12.1617669,28.9198938 C11.0868526,28.917566 10.0135367,28.8372871 8.95035396,28.6796632 C7.86495394,28.5224113 6.79212114,28.2887879 5.73992224,27.9805498 C4.70713776,27.6790494 3.69478102,27.3121453 2.70904706,26.8820825 C1.76268126,26.4728216 0.855892361,25.9783251 0,25.404766 L2.88958479,19.6927359 C2.99653376,19.8265048 3.34485383,20.0793964 3.9335638,20.4514107 C4.52129259,20.8244014 5.25129296,21.1973921 6.12062135,21.5694063 C6.98994975,21.9433734 7.96034002,22.2753546 9.03081099,22.5682793 C10.0897795,22.8601938 11.1836064,23.0080001 12.2824524,23.0076662 C14.6098192,23.0076662 15.7744837,22.3026943 15.7744837,20.8907976 C15.7744837,20.3586512 15.5998331,19.9192643 15.2524942,19.5726368 C14.9041742,19.2269858 14.4224132,18.9135565 13.8072112,18.6343017 C13.0985932,18.3210231 12.3675611,18.0605794 11.6201537,17.8551222 C10.7022154,17.5940713 9.78577546,17.327831 8.87087811,17.0564144 C7.55903606,16.6570605 6.42184462,16.2245085 5.45832264,15.7577819 C4.49578183,15.2930082 3.699061,14.7530505 3.07012251,14.140838 C2.45252438,13.5455921 1.97329215,12.8230716 1.66604922,12.0239695 C1.35795767,11.2242853 1.2039119,10.292785 1.2039119,9.2275158 C1.2039119,7.7365295 1.48453032,6.41836872 2.04674834,5.27303347 C2.58890756,4.15368408 3.36973932,3.16539375 4.33486777,2.37698543 C5.29838976,1.59194745 6.41497634,0.999263311 7.68658988,0.599909416 C8.99222153,0.19511731 10.3527263,-0.00709400416 11.7202344,0.000189980081 C12.7102483,0.000189980081 13.6865257,0.0941262447 14.6500477,0.280621584 C15.5878823,0.460765523 16.5130894,0.70080924 17.4199281,0.999263311 C18.3029931,1.29316434 19.1252247,1.62514558 19.8885853,1.99813625 C20.6509647,2.37112693 21.3534919,2.74411761 21.9951858,3.11613187 L19.105601,8.5489071 Z" id="Shape" fill="#F15E4E"></path>
                    <polygon id="Path" fill="#F15E4E" points="22.4769468 28.5995971 22.4769468 0.240588553 41.8229377 0.240588553 41.8229377 5.99265161 29.0597055 5.99265161 29.0597055 12.1030591 39.5760279 12.1030591 39.5760279 17.4157353 29.0597055 17.4157353 29.0597055 28.5995971"></polygon>
                    <path d="M0.714301434,33.7521411 C0.714301434,34.1925045 0.87423431,34.5537782 1.36973187,34.5537782 C1.81322672,34.5537782 2.03104941,34.3096743 2.03104941,33.9005563 C2.03104941,32.9505041 0.239408722,33.4494524 0.239408722,32.0854001 C0.239408722,31.4536593 0.719207351,31.0289186 1.34323992,31.0289186 C2.05852254,31.0289186 2.47945017,31.4380367 2.5010362,32.1488671 L1.95647948,32.1488671 C1.95157356,31.7827113 1.76514874,31.4751404 1.35893885,31.4751404 C1.20463546,31.469912 1.05506662,31.5286173 0.945894415,31.637259 C0.836722207,31.7459007 0.777730294,31.8947427 0.782984264,32.0482963 C0.782984264,32.9671032 2.57560613,32.40957 2.57560613,33.869311 C2.57560613,34.6123631 2.03693651,35 1.40701684,35 C0.543575542,35 0.174650625,34.5059338 0.169744709,33.7521411 L0.714301434,33.7521411 L0.714301434,33.7521411 Z M4.11115798,34.936533 L4.11115798,31.0923856 L4.6557147,31.0923856 L6.03231486,33.8322072 L6.04310788,33.8322072 L6.04310788,31.0923856 L6.55528555,31.0923856 L6.55528555,34.936533 L6.05291971,34.936533 L4.63412867,32.0902821 L4.62333566,32.0902821 L4.62333566,34.936533 L4.11115798,34.936533 Z M8.89638888,33.3117778 L9.66956131,33.3117778 L9.28591864,31.941867 L9.27512563,31.941867 L8.89638888,33.3117778 Z M7.94660346,34.936533 L9.01314969,31.0923856 L9.53612038,31.0923856 L10.6458387,34.936533 L10.133661,34.936533 L9.79809632,33.7999855 L8.77374097,33.7999855 L8.46368705,34.936533 L7.94660346,34.936533 Z M13.9161226,32.5687257 C13.8513645,32.0268151 13.7022246,31.4751404 13.1478561,31.4751404 C12.6513773,31.4751404 12.3629094,32.080518 12.3629094,33.0149475 C12.3629094,33.9484006 12.6513773,34.5537782 13.1478561,34.5537782 C13.7767946,34.5537782 13.8572516,34.0235846 13.9102355,33.4875326 L14.4224132,33.4875326 C14.4224132,34.3633772 14.0652624,35 13.1478561,35 C12.4168745,35 11.8193339,34.3633772 11.8193339,33.0149475 C11.8193339,31.6665179 12.4168745,31.0289186 13.1478561,31.0289186 C14.0652624,31.0289186 14.3635422,31.7085037 14.4283003,32.5687257 L13.9161226,32.5687257 L13.9161226,32.5687257 Z M15.9638521,34.936533 L15.9638521,31.0923856 L16.5074276,31.0923856 L16.5074276,32.8919192 L16.5182207,32.8919192 L17.7986649,31.0923856 L18.3962055,31.0923856 L17.3345652,32.5843483 L18.5561384,34.936533 L17.9321058,34.936533 L16.9666214,33.0256881 L16.5074276,33.6837921 L16.5074276,34.936533 L15.9638521,34.936533 L15.9638521,34.936533 Z M24.2420955,31.0923856 L24.2420955,31.5805933 L22.9518395,31.5805933 L22.9518395,32.6858955 L24.2420955,32.6858955 L24.2420955,33.1741032 L22.9518395,33.1741032 L22.9518395,34.936533 L22.4072828,34.936533 L22.4072828,31.0923856 L24.2420955,31.0923856 Z M26.1357793,33.0149475 C26.1357793,33.8536883 26.4026611,34.5537782 27.0266937,34.5537782 C27.6507263,34.5537782 27.9176081,33.8536883 27.9176081,33.0149475 C27.9176081,32.1762067 27.6507263,31.4751404 27.0266937,31.4751404 C26.4026611,31.4751404 26.1357793,32.1762067 26.1357793,33.0149475 Z M28.4611837,33.0149475 C28.4611837,34.2139856 27.933307,35 27.0266937,35 C26.1200803,35 25.5912225,34.2139856 25.5912225,33.0149475 C25.5912225,31.814933 26.1200803,31.0289186 27.0266937,31.0289186 C27.933307,31.0289186 28.4611837,31.814933 28.4611837,33.0149475 Z M30.3921524,33.0149475 C30.3921524,33.8536883 30.6590342,34.5537782 31.2830668,34.5537782 C31.9070994,34.5537782 32.1739812,33.8536883 32.1739812,33.0149475 C32.1739812,32.1762067 31.9070994,31.4751404 31.2830668,31.4751404 C30.6590342,31.4751404 30.3921524,32.1762067 30.3921524,33.0149475 Z M32.7185379,33.0149475 C32.7185379,34.2139856 32.1896802,35 31.2830668,35 C30.3764534,35 29.8475956,34.2139856 29.8475956,33.0149475 C29.8475956,31.814933 30.3764534,31.0289186 31.2830668,31.0289186 C32.1896802,31.0289186 32.7185379,31.814933 32.7185379,33.0149475 Z M34.8300444,34.4473489 L35.347128,34.4473489 C36.1958515,34.4473489 36.4303543,33.805844 36.4303543,33.0149475 C36.4303543,32.2230746 36.1958515,31.5805933 35.347128,31.5805933 L34.8300444,31.5805933 L34.8300444,34.4473489 Z M34.2854877,31.0923856 L35.4324909,31.0923856 C36.5530022,31.0923856 36.9749111,31.9633481 36.9749111,33.0149475 C36.9749111,34.0655705 36.5530022,34.936533 35.4324909,34.936533 L34.2854877,34.936533 L34.2854877,31.0923856 L34.2854877,31.0923856 Z M41.7051957,31.9262444 C41.7051957,32.1068812 41.7856527,32.3402445 41.8975076,32.4837775 C42.2654513,32.2133105 42.3351154,32.0590368 42.3351154,31.8569189 C42.3351154,31.676282 42.2232605,31.5171263 42.0358545,31.5171263 C41.7905586,31.5171263 41.7051957,31.7133858 41.7051957,31.9262444 L41.7051957,31.9262444 Z M41.7640667,33.1789853 C41.4922789,33.3596221 41.3156659,33.5881033 41.3156659,33.8907921 C41.3156659,34.1827403 41.4814859,34.5117923 41.8867146,34.5117923 C42.1957873,34.5117923 42.3292283,34.341896 42.5166343,34.134896 L41.7640667,33.1789853 Z M42.7835161,33.6564524 C42.9964329,33.274674 43.1779518,32.9397635 43.3594707,32.5579851 L43.8176833,32.7864663 C43.5988794,33.2219476 43.3535836,33.6564524 43.1249679,34.0655705 C43.3427906,34.3526366 43.5723875,34.6279857 43.7970785,34.936533 L43.1563658,34.936533 C43.0445109,34.7773773 42.9483549,34.6338442 42.8315941,34.5059338 C42.5755053,34.8623254 42.2762444,35 41.9083006,35 C41.1184481,35 40.8034882,34.4961697 40.8034882,33.869311 C40.8034882,33.3811033 41.0703701,33.0149475 41.47658,32.7698673 C41.3001238,32.5328067 41.2011353,32.2475099 41.193018,31.9526076 C41.193018,31.4321782 41.4706929,31.0289186 42.0250614,31.0289186 C42.5588251,31.0289186 42.847293,31.3794517 42.847293,31.8891406 C42.847293,32.3558671 42.5323332,32.6321927 42.1859755,32.8977777 L42.7835161,33.6564524 Z M49.8666783,31.0923856 L50.5495819,34.1827403 L50.5603749,34.1827403 L51.2432784,31.0923856 L51.786854,31.0923856 L50.8272567,34.936533 L50.304286,34.936533 L49.6105894,31.8891406 L49.5997964,31.8891406 L48.9060998,34.936533 L48.3841103,34.936533 L47.4235319,31.0923856 L47.9671074,31.0923856 L48.650011,34.1827403 L48.660804,34.1827403 L49.3437076,31.0923856 L49.8666783,31.0923856 L49.8666783,31.0923856 Z M53.1997579,34.936533 L53.1997579,31.0923856 L53.7443146,31.0923856 L53.7443146,32.6858955 L55.1680116,32.6858955 L55.1680116,31.0923856 L55.7125683,31.0923856 L55.7125683,34.936533 L55.1680116,34.936533 L55.1680116,33.1741032 L53.7443146,33.1741032 L53.7443146,34.936533 L53.1997579,34.936533 Z M57.8191688,33.0149475 C57.8191688,33.8536883 58.0860507,34.5537782 58.7100833,34.5537782 C59.3341158,34.5537782 59.6009977,33.8536883 59.6009977,33.0149475 C59.6009977,32.1762067 59.3341158,31.4751404 58.7100833,31.4751404 C58.0860507,31.4751404 57.8191688,32.1762067 57.8191688,33.0149475 Z M60.1455544,33.0149475 C60.1455544,34.2139856 59.6166966,35 58.7100833,35 C57.8034699,35 57.2755933,34.2139856 57.2755933,33.0149475 C57.2755933,31.814933 57.8034699,31.0289186 58.7100833,31.0289186 C59.6166966,31.0289186 60.1455544,31.814933 60.1455544,33.0149475 Z M61.7134853,34.936533 L61.7134853,31.0923856 L62.2570609,31.0923856 L62.2570609,34.4473489 L63.633661,34.4473489 L63.633661,34.936533 L61.7134853,34.936533 L61.7134853,34.936533 Z M65.078944,34.936533 L65.078944,31.0923856 L67.0207057,31.0923856 L67.0207057,31.5805933 L65.6225195,31.5805933 L65.6225195,32.6858955 L67.0207057,32.6858955 L67.0207057,33.1741032 L65.6225195,33.1741032 L65.6225195,34.4473489 L67.0207057,34.4473489 L67.0207057,34.936533 L65.078944,34.936533 Z M69.0419433,33.7521411 C69.0419433,34.1925045 69.2018762,34.5537782 69.6983549,34.5537782 C70.1408686,34.5537782 70.3596724,34.3096743 70.3596724,33.9005563 C70.3596724,32.9505041 68.5670506,33.4494524 68.5670506,32.0854001 C68.5670506,31.4536593 69.0478304,31.0289186 69.671863,31.0289186 C70.3861644,31.0289186 70.8080732,31.4380367 70.8296592,32.1488671 L70.2851025,32.1488671 C70.2801966,31.7827113 70.0927906,31.4751404 69.6875619,31.4751404 C69.5332585,31.469912 69.3836897,31.5286173 69.2745175,31.637259 C69.1653452,31.7459007 69.1063533,31.8947427 69.1116073,32.0482963 C69.1116073,32.9671032 70.9042292,32.40957 70.9042292,33.869311 C70.9042292,34.6123631 70.3645784,35 69.7356399,35 C68.8712174,35 68.5032737,34.5059338 68.4983678,33.7521411 L69.0419433,33.7521411 L69.0419433,33.7521411 Z M72.9676576,33.3117778 L73.7418112,33.3117778 L73.3571874,31.941867 L73.3463944,31.941867 L72.9676576,33.3117778 L72.9676576,33.3117778 Z M72.0178722,34.936533 L73.0853996,31.0923856 L73.6073891,31.0923856 L74.7171074,34.936533 L74.2049298,34.936533 L73.8693651,33.7999855 L72.8450097,33.7999855 L72.535937,34.936533 L72.0178722,34.936533 L72.0178722,34.936533 Z M76.0721216,34.936533 L76.0721216,31.0923856 L76.6166783,31.0923856 L76.6166783,34.4473489 L77.9922973,34.4473489 L77.9922973,34.936533 L76.0721216,34.936533 L76.0721216,34.936533 Z M79.4375802,34.936533 L79.4375802,31.0923856 L81.379342,31.0923856 L81.379342,31.5805933 L79.982137,31.5805933 L79.982137,32.6858955 L81.379342,32.6858955 L81.379342,33.1741032 L79.982137,33.1741032 L79.982137,34.4473489 L81.379342,34.4473489 L81.379342,34.936533 L79.4375802,34.936533 Z M86.1263067,34.4473489 L86.7503393,34.4473489 C87.2203261,34.4473489 87.423431,34.2354668 87.423431,33.8263487 C87.423431,33.4816741 87.1673422,33.2053485 86.7189414,33.2053485 L86.1263067,33.2053485 L86.1263067,34.4473489 L86.1263067,34.4473489 Z M86.1263067,32.7171408 L86.6227855,32.7171408 C86.9642372,32.7171408 87.257611,32.536504 87.257611,32.1488671 C87.257611,31.7612302 86.9642372,31.5805933 86.6227855,31.5805933 L86.1263067,31.5805933 L86.1263067,32.7171408 Z M85.5827312,31.0923856 L86.6551645,31.0923856 C87.43913,31.0923856 87.8021678,31.5063857 87.8021678,32.1225038 C87.8021678,32.473037 87.6628397,32.8284522 87.2684041,32.9241409 L87.2684041,32.9348815 C87.7266167,32.9876079 87.9670066,33.3752448 87.9670066,33.8322072 C87.9670066,34.6279857 87.449923,34.936533 86.7611323,34.936533 L85.5827312,34.936533 L85.5827312,31.0923856 L85.5827312,31.0923856 Z M90.1059861,33.3117778 L90.8791586,33.3117778 L90.4955159,31.941867 L90.4847229,31.941867 L90.1059861,33.3117778 Z M89.1562007,34.936533 L90.2237281,31.0923856 L90.7457176,31.0923856 L91.8554359,34.936533 L91.3432583,34.936533 L91.0076936,33.7999855 L89.9833382,33.7999855 L89.6732843,34.936533 L89.1562007,34.936533 L89.1562007,34.936533 Z M93.2104501,34.936533 L93.2104501,31.0923856 L93.7540256,31.0923856 L93.7540256,32.8919192 L93.7648186,32.8919192 L95.0452628,31.0923856 L95.6428034,31.0923856 L94.5811631,32.5843483 L95.8027363,34.936533 L95.1787037,34.936533 L94.2132194,33.0256881 L93.7540256,33.6837921 L93.7540256,34.936533 L93.2104501,34.936533 L93.2104501,34.936533 Z M97.1734494,34.936533 L97.1734494,31.0923856 L99.1152111,31.0923856 L99.1152111,31.5805933 L97.7170249,31.5805933 L97.7170249,32.6858955 L99.1152111,32.6858955 L99.1152111,33.1741032 L97.7170249,33.1741032 L97.7170249,34.4473489 L99.1152111,34.4473489 L99.1152111,34.936533 L97.1734494,34.936533 Z M100.838169,34.936533 L100.838169,31.0923856 L101.915508,31.0923856 C102.550334,31.0923856 103.179272,31.4585414 103.179272,32.2289331 C103.179272,32.8343107 102.913372,33.3068957 102.300132,33.3859854 L103.398076,34.936533 L102.747552,34.936533 L101.323855,32.9378107 L101.851731,32.9719852 C102.277565,32.9719852 102.635697,32.7601031 102.635697,32.3138813 C102.635697,31.8569189 102.342323,31.5805933 101.872336,31.5805933 L101.381744,31.5805933 L101.381744,34.936533 L100.838169,34.936533 Z M106.423064,31.0923856 L107,31.0923856 L105.93836,33.3859854 L105.93836,34.936533 L105.393803,34.936533 L105.393803,33.3859854 L104.332163,31.0923856 L104.903211,31.0923856 L105.665591,32.7913484 L106.423064,31.0923856 Z" id="Shape" fill="#231F20"></path>
                </g>
            </g>
        </g>
    </g>
</svg>