<?xml version="1.0" encoding="UTF-8"?>
<svg width="94px" height="59px" viewBox="0 0 94 59" version="1.1" xmlns="http://www.w3.org/2000/svg" xmlns:xlink="http://www.w3.org/1999/xlink">
    <title>unismack</title>
    <g id="Homepage-2" stroke="none" stroke-width="1" fill="none" fill-rule="evenodd">
        <g id="Spoonshot---Home-1" transform="translate(-526.000000, -887.000000)" fill-rule="nonzero">
            <g id="Group-8" transform="translate(108.000000, 885.000000)">
                <g id="unismack" transform="translate(418.000000, 2.000000)">
                    <g id="Group" transform="translate(14.089059, 55.670031)" fill="#031E4B">
                        <polygon id="Path" points="0.890993766 0.6167354 0 0.6167354 0 0.0382003997 2.42098306 0.0382003997 2.42098306 0.6167354 1.52748931 0.6167354 1.52748931 3.29126601 0.890993766 3.29126601"></polygon>
                        <polygon id="Path" points="3.65297444 0.0382003997 4.29396996 0.0382003997 4.29396996 1.44608618 5.61296073 1.44608618 5.61296073 0.0382003997 6.25545623 0.0382003997 6.25545623 3.29176865 5.61296073 3.29176865 5.61296073 2.02261063 4.29396996 2.02261063 4.29396996 3.29176865 3.65297444 3.29176865 3.65297444 0.0382003997"></polygon>
                        <polygon id="Path" points="7.78444554 0.0382003997 9.8479311 0.0382003997 9.8479311 0.6167354 8.41744111 0.6167354 8.41744111 1.3958225 9.56393309 1.3958225 9.56393309 1.96279685 8.41744111 1.96279685 8.41744111 2.71474156 9.94243044 2.71474156 9.94243044 3.29126601 7.78444554 3.29126601"></polygon>
                        <polygon id="Path" points="13.1184082 0.0382003997 13.7574037 0.0382003997 13.7574037 1.44608618 15.0773945 1.44608618 15.0773945 0.0382003997 15.72289 0.0382003997 15.72289 3.29176865 15.0773945 3.29176865 15.0773945 2.02261063 13.7574037 2.02261063 13.7574037 3.29176865 13.1184082 3.29176865"></polygon>
                        <path d="M18.0728736,3.20481248 C17.866875,3.11936421 17.6943762,3.00576829 17.5498772,2.86000361 C17.4048782,2.71323365 17.294879,2.53630548 17.2133796,2.33022438 C17.1353801,2.12364064 17.0948804,1.90197779 17.0948804,1.66473321 C17.0948804,1.42497543 17.1353801,1.20381523 17.2133796,0.997231486 C17.294879,0.790647746 17.4048782,0.616232763 17.5498772,0.469462806 C17.6943762,0.32420076 17.866875,0.210604835 18.0728736,0.126664483 C18.2783721,0.0427241312 18.5013706,0 18.7403689,0 C18.9773672,0 19.1928657,0.0382003997 19.3968643,0.121638115 C19.5973629,0.202562646 19.7723617,0.315153297 19.9188606,0.458404796 C20.0613596,0.603164205 20.1768588,0.778081825 20.2593583,0.985168202 C20.3418577,1.19275722 20.3828574,1.41894379 20.3828574,1.66473321 C20.3828574,1.90650153 20.3413577,2.13419601 20.2593583,2.34128239 C20.1773588,2.54836877 20.0613596,2.7247943 19.9188606,2.86905107 C19.7728617,3.01330784 19.5973629,3.12640113 19.3968643,3.20732566 C19.1928657,3.28724492 18.9773672,3.32846114 18.7403689,3.32846114 C18.5013706,3.32846114 18.2783721,3.28724492 18.0728736,3.20481248 Z M19.1303662,2.65090668 C19.2513653,2.59561663 19.3523646,2.52172901 19.440864,2.42924384 C19.5273634,2.33474811 19.5953629,2.22115219 19.6438626,2.08795342 C19.6938622,1.95626257 19.717862,1.81301107 19.717862,1.66523584 C19.717862,1.46468374 19.6758623,1.28071866 19.5933629,1.11836696 C19.5093635,0.956517902 19.3883643,0.829350782 19.2428654,0.739881425 C19.0943664,0.646390973 18.9248676,0.601153658 18.7438689,0.601153658 C18.5533702,0.601153658 18.3823714,0.649909431 18.2333724,0.745913067 C18.0808735,0.839906156 17.9673743,0.965565365 17.8828749,1.1284197 C17.8023754,1.28876085 17.7623757,1.4682022 17.7623757,1.66523584 C17.7623757,1.86025894 17.8028754,2.0412082 17.8828749,2.20154935 C17.9668743,2.3618905 18.0808735,2.49207344 18.2333724,2.58606653 C18.3828714,2.68307544 18.5533702,2.7303233 18.7438689,2.7303233 C18.8828679,2.7303233 19.011367,2.701673 19.1303662,2.65090668 Z" id="Shape"></path>
                        <path d="M22.4803427,3.23698123 C22.3188438,3.17465427 22.1798448,3.08568755 22.0668456,2.97008107 C21.9523464,2.8544746 21.864347,2.70971519 21.8038475,2.53479757 C21.7378479,2.36088523 21.7078481,2.16435422 21.7078481,1.94520456 L21.7078481,0.0382003997 L22.3513436,0.0382003997 L22.3513436,1.90298307 C22.3513436,2.06081103 22.3753435,2.20205199 22.4243431,2.32519801 C22.4748428,2.44683613 22.5508422,2.54535295 22.6533415,2.61723001 C22.7538408,2.68960972 22.87434,2.72529693 23.012839,2.72529693 C23.2108376,2.72529693 23.3733365,2.65341987 23.4968356,2.50463936 C23.6233347,2.35736677 23.6838343,2.15882522 23.6838343,1.9034857 L23.6838343,0.0387030365 L24.3228298,0.0387030365 L24.3228298,1.9457072 C24.3228298,2.22718383 24.2688302,2.47297324 24.1713309,2.67855171 C24.0688316,2.88764863 23.9163327,3.04849242 23.719834,3.15957516 C23.5188355,3.27317109 23.2868371,3.32946641 23.012839,3.32946641 C22.8158404,3.32846114 22.6408416,3.29880557 22.4803427,3.23698123 Z" id="Path"></path>
                        <path d="M26.1158173,3.20079138 C25.9173187,3.11735367 25.73232,2.98867864 25.5658211,2.81727948 L25.9533184,2.34128239 C26.009818,2.40763045 26.0758176,2.46895215 26.1438171,2.52172901 C26.2123166,2.57601379 26.2803161,2.61672738 26.3498156,2.65090668 C26.4158152,2.68307544 26.4863147,2.70770464 26.5533142,2.72278375 C26.6218137,2.73886813 26.6883133,2.74892087 26.7543128,2.74892087 C26.8548121,2.74892087 26.9388115,2.73283649 27.011311,2.70217564 C27.0818105,2.6730227 27.1338102,2.63281176 27.1698099,2.58455862 C27.2018097,2.53178175 27.2178096,2.4724706 27.2178096,2.40411199 C27.2178096,2.35736677 27.2098096,2.31464264 27.1978097,2.27543696 C27.1818098,2.23974975 27.15931,2.20607308 27.1338102,2.1804386 C27.1098103,2.15078303 27.0713106,2.12112745 27.0213109,2.09348243 C26.9728113,2.06684268 26.9188117,2.04171083 26.866312,2.02261063 C26.8143124,1.99848407 26.7418129,1.97335222 26.6558135,1.94269138 C26.5773141,1.91404108 26.5083145,1.88991451 26.447815,1.86478267 C26.3853154,1.84015346 26.3193159,1.81250844 26.2518163,1.77481067 C26.1813168,1.73862082 26.1153173,1.70243097 26.0673176,1.66573848 C26.014818,1.62954863 25.9628184,1.58481395 25.9108187,1.53203708 C25.8588191,1.48127076 25.8203193,1.42598071 25.7863196,1.37119329 C25.7543198,1.31439533 25.72832,1.24653936 25.7103201,1.17114383 C25.6898203,1.09524567 25.6803203,1.01582905 25.6803203,0.931888697 C25.6803203,0.759986899 25.72632,0.602661568 25.8183194,0.459912706 C25.9088187,0.322190213 26.0333179,0.210102198 26.1918167,0.128172394 C26.3513156,0.0447346786 26.5243144,0.00251318419 26.7158131,0.00150791051 C27.1093103,-0.00351845786 27.4698078,0.132193488 27.8038055,0.410654296 L27.435308,0.893688297 C27.1773099,0.681575552 26.9423115,0.575016542 26.727313,0.575016542 C26.6168138,0.575016542 26.5238144,0.604672116 26.4533149,0.660967442 C26.3828154,0.721786499 26.3448157,0.799695209 26.3408157,0.901730487 C26.3408157,0.942946707 26.3513156,0.977628649 26.3653155,1.01231059 C26.3793154,1.04498199 26.3993153,1.07262701 26.4253151,1.10077467 C26.4493149,1.12640915 26.4878147,1.15405418 26.5358143,1.18169921 C26.583314,1.21034951 26.6353136,1.23296816 26.6833133,1.25407891 C26.7353129,1.27870812 26.8018125,1.30383996 26.8858119,1.33600871 C27.15681,1.44005454 27.3343088,1.51896852 27.4208082,1.56671902 C27.6223067,1.67780176 27.7568058,1.81301107 27.8213053,1.97586541 C27.8618051,2.07488487 27.8853049,2.19551771 27.8853049,2.32670592 C27.8853049,2.46643896 27.8613051,2.59008762 27.8173054,2.70519146 C27.7708057,2.81929002 27.7088061,2.91328311 27.6348067,2.98767336 C27.5573072,3.06558207 27.4733078,3.1274064 27.3728085,3.18169118 C27.2713092,3.23396541 27.1708099,3.2706579 27.0623107,3.29578974 C26.9598114,3.31790577 26.8493121,3.32996905 26.7408129,3.32996905 C26.5288144,3.32846114 26.3198159,3.28623964 26.1158173,3.20079138 Z" id="Path"></path>
                        <polygon id="Path" points="29.2397954 0.0382003997 31.305281 0.0382003997 31.305281 0.6167354 29.869791 0.6167354 29.869791 1.3958225 31.018283 1.3958225 31.018283 1.96279685 29.869791 1.96279685 29.869791 2.71474156 31.3997803 2.71474156 31.3997803 3.29126601 29.2397954 3.29126601 29.2397954 0.0382003997"></polygon>
                        <path d="M35.4152522,3.20481248 C35.2107536,3.11936421 35.0352549,3.00576829 34.8932559,2.86000361 C34.7497569,2.71323365 34.6392576,2.53630548 34.5612582,2.33022438 C34.4797588,2.12364064 34.4372591,1.90197779 34.4372591,1.66473321 C34.4372591,1.42497543 34.4797588,1.20381523 34.5612582,0.997231486 C34.6392576,0.790647746 34.7497569,0.616232763 34.8932559,0.469462806 C35.0352549,0.32420076 35.2127536,0.210604835 35.4152522,0.126664483 C35.6222508,0.0427241312 35.8442492,0 36.0857475,0 C36.3207459,0 36.5392444,0.0382003997 36.738243,0.121638115 C36.9407415,0.202562646 37.1157403,0.315153297 37.2597393,0.458404796 C37.4067383,0.603164205 37.5207375,0.778081825 37.6037369,0.985168202 C37.6847363,1.19275722 37.7252361,1.41894379 37.7252361,1.66473321 C37.7252361,1.90650153 37.6847363,2.13419601 37.6037369,2.34128239 C37.5212375,2.54836877 37.4067383,2.7247943 37.2597393,2.86905107 C37.1157403,3.01330784 36.9407415,3.12640113 36.738243,3.20732566 C36.5397444,3.28724492 36.3207459,3.32846114 36.0857475,3.32846114 C35.8422492,3.32846114 35.6187508,3.28724492 35.4152522,3.20481248 Z M36.4747448,2.65090668 C36.594744,2.59561663 36.6987432,2.52172901 36.7852426,2.42924384 C36.870242,2.33474811 36.9387416,2.22115219 36.9867412,2.08795342 C37.0372409,1.95626257 37.0622407,1.81301107 37.0622407,1.66523584 C37.0622407,1.46468374 37.020741,1.28071866 36.9342416,1.11836696 C36.8512422,0.956517902 36.732243,0.829350782 36.585244,0.739881425 C36.4362451,0.646390973 36.2712462,0.601153658 36.0852475,0.601153658 C35.8962489,0.601153658 35.72675,0.649909431 35.5742511,0.745913067 C35.4267521,0.839906156 35.310253,0.965565365 35.2262535,1.1284197 C35.1437541,1.28876085 35.1037544,1.4682022 35.1037544,1.66523584 C35.1037544,1.86025894 35.1437541,2.0412082 35.2262535,2.20154935 C35.310253,2.3618905 35.4267521,2.49207344 35.5742511,2.58606653 C35.72725,2.68307544 35.8967488,2.7303233 36.0852475,2.7303233 C36.2262465,2.7303233 36.3522457,2.701673 36.4747448,2.65090668 Z" id="Shape"></path>
                        <polygon id="Path" points="39.1007264 0.0382003997 41.2407115 0.0382003997 41.2407115 0.6167354 39.728722 0.6167354 39.728722 1.48529186 40.9897132 1.48529186 40.9897132 2.05980576 39.728722 2.05980576 39.728722 3.29176865 39.1007264 3.29176865"></polygon>
                        <path d="M44.7216871,3.20079138 C44.5171885,3.11735367 44.3346898,2.98867864 44.169691,2.81727948 L44.5516883,2.34128239 C44.6141879,2.40763045 44.6781874,2.46895215 44.7466869,2.52172901 C44.8131865,2.57601379 44.884186,2.61672738 44.9521855,2.65090668 C45.020185,2.68307544 45.0891845,2.70770464 45.1556841,2.72278375 C45.2261836,2.73886813 45.2921831,2.74892087 45.3581827,2.74892087 C45.456682,2.74892087 45.5406814,2.73283649 45.6111809,2.70217564 C45.6841804,2.6730227 45.73368,2.63281176 45.7701798,2.58455862 C45.8016796,2.53178175 45.8201794,2.4724706 45.8201794,2.40411199 C45.8201794,2.35736677 45.8141795,2.31464264 45.7981796,2.27543696 C45.7821797,2.23974975 45.7621798,2.20607308 45.73568,2.1804386 C45.7116802,2.15078303 45.6736804,2.12112745 45.6251808,2.09348243 C45.5751811,2.06684268 45.5211815,2.04171083 45.4686819,2.02261063 C45.4181822,1.99848407 45.3461827,1.97335222 45.2596833,1.94269138 C45.1796839,1.91404108 45.1111844,1.88991451 45.0476848,1.86478267 C44.9896852,1.84015346 44.9236857,1.81250844 44.8506862,1.77481067 C44.7816867,1.73862082 44.7211871,1.70243097 44.6716875,1.66573848 C44.6136879,1.62954863 44.5626882,1.58481395 44.5151886,1.53203708 C44.4646889,1.48127076 44.4226892,1.42598071 44.3906894,1.37119329 C44.3566897,1.31439533 44.3326898,1.24653936 44.31219,1.17114383 C44.2926901,1.09524567 44.2806902,1.01582905 44.2806902,0.931888697 C44.2806902,0.759986899 44.3311898,0.602661568 44.4231892,0.459912706 C44.5136886,0.322190213 44.6376877,0.210102198 44.7941866,0.128172394 C44.9556855,0.0447346786 45.1256843,0.00251318419 45.3161829,0.00150791051 C45.7096802,-0.00351845786 46.0721777,0.132193488 46.4086753,0.410654296 L46.0341779,0.893688297 C45.7781797,0.681575552 45.5451813,0.575016542 45.3351828,0.575016542 C45.2221836,0.575016542 45.1261843,0.604672116 45.0566848,0.660967442 C44.9841853,0.721786499 44.9461855,0.799695209 44.9461855,0.901730487 C44.9461855,0.942946707 44.9561855,0.977628649 44.9701854,1.01231059 C44.9841853,1.04498199 45.0031851,1.07262701 45.028185,1.10077467 C45.0501848,1.12640915 45.0891845,1.15405418 45.1401842,1.18169921 C45.1881838,1.21034951 45.2401835,1.23296816 45.2861832,1.25407891 C45.3371828,1.27870812 45.4051823,1.30383996 45.4891817,1.33600871 C45.7621798,1.44005454 45.9356786,1.51896852 46.024178,1.56671902 C46.2256766,1.67780176 46.3581757,1.81301107 46.4266752,1.97586541 C46.4666749,2.07488487 46.4866748,2.19551771 46.4866748,2.32670592 C46.4866748,2.46643896 46.4646749,2.59008762 46.4181752,2.70519146 C46.3721756,2.81929002 46.312176,2.91328311 46.2401765,2.98767336 C46.161677,3.06558207 46.0721777,3.1274064 45.9741783,3.18169118 C45.873679,3.23396541 45.7726798,3.2706579 45.6681805,3.29578974 C45.5656812,3.31790577 45.455182,3.32996905 45.3466827,3.32996905 C45.1311842,3.32846114 44.9236857,3.28623964 44.7216871,3.20079138 Z" id="Path"></path>
                        <polygon id="Path" points="50.5616462 0.0382003997 50.5616462 3.29176865 49.9076508 3.29176865 48.4856608 1.13445134 48.4771608 1.13445134 48.4771608 3.29176865 47.8411653 3.29176865 47.8411653 0.0382003997 48.4771608 0.0382003997 49.9126508 2.23472338 49.9231507 2.23472338 49.9231507 0.0382003997"></polygon>
                        <path d="M53.8921229,2.64035131 L52.6556316,2.64035131 L52.4331332,3.29126601 L51.7686378,3.29126601 L52.9666294,0.0376977628 L53.5811251,0.0376977628 L54.7816167,3.29126601 L54.1111214,3.29126601 L53.8921229,2.64035131 Z M53.7076242,2.08996397 L53.2751273,0.814774314 L53.2711273,0.814774314 L52.8406303,2.08996397 L53.7076242,2.08996397 Z" id="Shape"></path>
                        <path d="M56.8676021,3.25809198 C56.7026033,3.21235203 56.5546043,3.14399342 56.4191053,3.05251352 C56.2786062,2.96053097 56.1611071,2.84794032 56.0581078,2.7207732 C55.9561085,2.59159553 55.8781091,2.43778866 55.8176095,2.25985522 C55.7616099,2.0794086 55.7331101,1.88589341 55.7331101,1.67679649 C55.7331101,1.48830768 55.7556099,1.31087687 55.8016096,1.14400144 C55.8466093,0.975618102 55.9161088,0.821308593 56.0086081,0.684088736 C56.1031075,0.547874153 56.2121067,0.424728128 56.3386058,0.323698123 C56.4706049,0.223170756 56.6251038,0.143251499 56.8036026,0.0874588098 C56.9766014,0.0291529366 57.1726,0.000502636838 57.3765986,0.000502636838 C57.5305975,0.000502636838 57.6785965,0.0211107472 57.8270954,0.0643375152 C57.9755944,0.105553736 58.1245933,0.171901798 58.2695923,0.268408071 C58.4165913,0.364411707 58.5480904,0.483034001 58.6620896,0.624274952 L58.1960928,1.02537915 C58.0915936,0.904746308 57.9735944,0.805224214 57.8290954,0.727315504 C57.6845964,0.649406794 57.5360975,0.612714305 57.3765986,0.612714305 C57.2950991,0.612714305 57.2200997,0.620253858 57.1491002,0.638348784 C57.0726007,0.652925252 57.0021012,0.678559731 56.9361016,0.709723215 C56.8696021,0.741389336 56.8116025,0.782102919 56.7556029,0.825329687 C56.7031033,0.871572277 56.6506036,0.925354418 56.606604,0.983157654 C56.5661042,1.04347407 56.5266045,1.10781159 56.4966047,1.18019129 C56.4656049,1.24955518 56.4376051,1.32746389 56.4246052,1.41140424 C56.4111053,1.49283141 56.4006054,1.58179813 56.4006054,1.67579122 C56.4006054,1.87383013 56.4371051,2.05276885 56.5216045,2.2090889 C56.604104,2.36792214 56.7226031,2.49207344 56.8691021,2.58053752 C57.0201011,2.66900161 57.1880999,2.71323365 57.3760986,2.71323365 C57.5375974,2.71323365 57.6900964,2.6770438 57.8325954,2.60265355 C57.9750944,2.52725802 58.0955935,2.42823856 58.1960928,2.30207672 L58.6620896,2.70720201 C58.5135906,2.89317764 58.3320919,3.04447133 58.1120934,3.1560567 C57.893095,3.26764208 57.6460967,3.3249507 57.3760986,3.3249507 C57.1985998,3.32544532 57.027601,3.30232402 56.8676021,3.25809198 Z" id="Path"></path>
                        <polygon id="Path" points="60.884074 1.98742606 60.5720762 2.36591159 60.5720762 3.29126601 59.9350807 3.29126601 59.9350807 0.0376977628 60.5720762 0.0376977628 60.5720762 1.47121802 60.5750762 1.47121802 61.6915684 0.0376977628 62.4995627 0.0376977628 61.309571 1.47473648 62.5415624 3.29076338 61.7535679 3.29076338 60.890074 1.98692342 60.884074 1.98692342"></polygon>
                        <path d="M64.0505519,3.20079138 C63.8520533,3.11735367 63.6655546,2.98867864 63.4990557,2.81727948 L63.885053,2.34128239 C63.9410526,2.40763045 64.0095522,2.46895215 64.0755517,2.52172901 C64.1460512,2.57601379 64.2140507,2.61672738 64.2825502,2.65090668 C64.3530498,2.68307544 64.4175493,2.70770464 64.4885488,2.72278375 C64.5570483,2.73886813 64.6210479,2.74892087 64.6870474,2.74892087 C64.7845467,2.74892087 64.8685461,2.73283649 64.9430456,2.70217564 C65.0155451,2.6730227 65.0655448,2.63281176 65.0995445,2.58455862 C65.1355443,2.53178175 65.1515442,2.4724706 65.1515442,2.40411199 C65.1515442,2.35736677 65.1430442,2.31464264 65.1270443,2.27543696 C65.1130444,2.23974975 65.0955446,2.20607308 65.0650448,2.1804386 C65.0410449,2.15078303 65.0025452,2.12112745 64.9545455,2.09348243 C64.9025459,2.06684268 64.8520463,2.04171083 64.7995466,2.02261063 C64.745547,1.99848407 64.6780475,1.97335222 64.5880481,1.94269138 C64.5095487,1.91404108 64.4390492,1.88991451 64.3820496,1.86478267 C64.32205,1.84015346 64.2555504,1.81250844 64.1835509,1.77481067 C64.1110514,1.73862082 64.0490519,1.70243097 63.9990557,1.66573848 C63.9485526,1.62954863 63.896553,1.58481395 63.8440533,1.53203708 C63.7920537,1.48127076 63.753554,1.42598071 63.7215542,1.37119329 C63.6875544,1.31439533 63.6625546,1.24653936 63.6425547,1.17114383 C63.6220549,1.09524567 63.6140549,1.01582905 63.6140549,0.931888697 C63.6140549,0.759986899 63.6585546,0.602661568 63.749554,0.459912706 C63.8400533,0.322190213 63.9685524,0.210102198 64.1230514,0.128172394 C64.2830502,0.0447346786 64.457549,0.00251318419 64.6480477,0.00150791051 C65.0405449,-0.00351845786 65.4060424,0.132193488 65.7350401,0.410654296 L65.3680427,0.893688297 C65.1090445,0.681575552 64.8740461,0.575016542 64.6640476,0.575016542 C64.5480484,0.575016542 64.458049,0.604672116 64.3885495,0.660967442 C64.31805,0.721786499 64.2775503,0.799695209 64.2755503,0.901730487 C64.2755503,0.942946707 64.2835502,0.977628649 64.2995501,1.01231059 C64.31355,1.04498199 64.3315499,1.07262701 64.3580497,1.10077467 C64.3840495,1.12640915 64.4220493,1.15405418 64.4690489,1.18169921 C64.5215486,1.21034951 64.5700482,1.23296816 64.6200479,1.25407891 C64.6705475,1.27870812 64.7335471,1.30383996 64.8195465,1.33600871 C65.0865446,1.44005454 65.2690433,1.51896852 65.3555427,1.56671902 C65.5550413,1.67780176 65.6900404,1.81301107 65.7555399,1.97586541 C65.7975396,2.07488487 65.8175395,2.19551771 65.8175395,2.32670592 C65.8175395,2.46643896 65.7975396,2.59008762 65.74904,2.70519146 C65.7035403,2.81929002 65.6390408,2.91328311 65.5675413,2.98767336 C65.4915418,3.06558207 65.4060424,3.1274064 65.3060431,3.18169118 C65.2055438,3.23396541 65.1030445,3.2706579 64.9965453,3.29578974 C64.890046,3.31790577 64.7840467,3.32996905 64.6740475,3.32996905 C64.463049,3.32846114 64.2550504,3.28623964 64.0505519,3.20079138 Z" id="Path"></path>
                    </g>
                    <g id="Group" transform="translate(23.706764, 0.000000)">
                        <path d="M10.8311521,12.0934277 C11.7806455,12.1467072 12.5316402,13.2952324 13.1741357,13.9667552 C15.3606204,16.245208 14.6546254,14.9036702 16.6551114,17.3826751 C17.6831042,18.6568595 16.4146131,19.5691454 15.2181214,20.4904787 C14.709125,20.8649431 12.6211396,18.3231086 12.279142,17.9657338 C10.9576512,16.5784562 6.58068186,13.9466497 10.1911566,12.2311502 C10.4116551,12.1271043 10.6231536,12.0863908 10.8311521,12.0934277" id="Path" fill="#009EA7"></path>
                        <path d="M18.995595,19.6545936 C19.1560939,19.6566042 19.3250927,19.7681895 19.5955908,20.006942 C20.0330877,20.394475 20.5955838,20.8247322 20.8935817,21.3339033 C21.3485785,22.1270642 20.8660819,22.4633283 20.2600861,23.0785558 C19.7755895,23.5706372 19.3830923,24.315545 18.6220976,24.0129576 C17.8741028,23.7194177 16.9816091,22.552295 16.6021117,21.8787616 C16.3876132,21.4746416 18.1701008,20.1652726 18.4110991,19.9712548 C18.6725973,19.7646711 18.8300962,19.6545936 18.995595,19.6545936" id="Path" fill="#508AC7"></path>
                        <path d="M2.25221214,20.642275 C3.20920544,20.6975651 3.95770021,21.8491061 4.6016957,22.5140946 C6.78618042,24.7945579 6.08118535,23.4565387 8.08267135,25.9325277 C9.10666418,27.2052042 7.83567308,28.1169874 6.64118143,29.0398287 C6.13318499,29.4147957 4.05169955,26.8704481 3.702202,26.5160891 C1.25421912,24.0029049 -2.00725806,22.9654625 1.6147166,20.7840186 C1.82521513,20.653333 2.05221354,20.6372486 2.25221214,20.642275" id="Path" fill="#009EA7"></path>
                        <path d="M10.419655,28.2064568 C10.5831539,28.2064568 10.7466527,28.3175395 11.0236508,28.5567947 C11.4631477,28.9418145 12.0211438,29.3750874 12.3181417,29.8842585 C12.7786385,30.6759116 12.2901419,31.0131809 11.6846461,31.6274031 C11.2021495,32.117474 10.8101523,32.8659003 10.0436576,32.5623076 C9.30316281,32.2702756 8.40766907,31.1001371 8.02417176,30.427609 C7.80717327,30.0224837 9.59716075,28.7121094 9.84065905,28.5221127 C10.0981572,28.3160316 10.2571561,28.2064568 10.419655,28.2064568" id="Path" fill="#031E4B"></path>
                        <path d="M14.7831245,28.4396803 C13.8336311,28.3879087 12.9751371,26.9744939 12.3291416,26.3095054 C10.1471569,24.0320578 10.995651,25.2368783 8.85016598,22.8910722 C7.64067444,21.5731584 9.09516426,20.7061099 10.2876559,19.7847766 C10.7996523,19.4098095 12.8831378,21.9506387 13.2286353,22.3085161 C15.8651169,25.0544212 18.7270969,25.5862109 15.5091194,27.9470962 C15.3121208,28.0943688 14.9846231,28.4467172 14.7831245,28.4396803" id="Path" fill="#FF9900"></path>
                        <path d="M6.50968235,20.6191537 C6.3461835,20.6171432 6.18568462,20.5060604 5.91068654,20.2658 C5.47218961,19.8812828 4.91069354,19.4490152 4.61369562,18.939844 C4.15419883,18.1466831 4.63769545,17.8099164 5.25019116,17.1941863 C5.72768782,16.7066286 6.12118507,15.9582023 6.88217975,16.2612923 C7.6321745,16.5548322 8.52366826,17.7244682 8.9036656,18.3969963 C9.12066409,18.800111 7.33367659,20.1109879 7.09117828,20.3014872 C6.8321801,20.5090762 6.67118122,20.6191537 6.50968235,20.6191537" id="Path" fill="#508AC7"></path>
                        <path d="M22.4005712,5.76472725 C21.8455751,5.80192238 21.3405786,5.23645593 20.8195822,4.71873999 C20.4410849,4.34276764 19.6340905,3.74261925 19.5220913,3.19725828 C19.3370926,2.25481421 20.7285829,1.5832914 21.2365793,1.00525903 C21.8880748,0.251303777 22.4650707,-0.386039733 23.426564,0.278948803 C24.0920593,0.739866783 25.0540526,1.50839851 25.4460499,2.21812172 C26.004546,3.23244286 23.7695616,4.64485238 23.1735658,5.3123541 C22.9035677,5.62047048 22.6495694,5.75065342 22.4005712,5.76472725" id="Path" fill="#508AC7"></path>
                        <path d="M29.2490233,12.7835481 C28.5280283,12.7755059 28.2230304,11.9773186 27.7885335,11.532485 C27.3930362,11.1263544 26.7990404,10.8413593 26.5160424,10.3417383 C26.0615456,9.5586301 26.6085417,9.31133278 27.145538,8.75792962 C27.7525337,8.13365467 28.3010299,7.14999437 29.138524,6.79764595 C30.3290157,6.29802493 30.9080117,7.52094036 31.5905069,8.2527796 C31.8795049,8.56441444 32.2240024,8.8504148 32.4740007,9.20226058 C33.0744965,10.0426694 31.2315094,11.1680733 30.7900125,11.6430651 C30.4145151,12.048693 29.9130186,12.7594215 29.2975229,12.7835481 C29.281523,12.7835481 29.2650231,12.7835481 29.2490233,12.7835481" id="Path" fill="#009EA7"></path>
                        <path d="M25.3960502,17.4364573 C24.5040565,17.8219797 23.6030628,17.7526158 22.3760713,17.2615396 C20.4450849,16.485971 18.852096,15.1474491 17.5181053,13.6068672 C16.2331143,12.1235859 14.6506254,9.97732659 14.8046243,7.75516913 C14.8676239,6.80468287 15.4461198,6.13567324 16.1271151,5.43550012 C16.420113,5.14095493 16.9271095,4.57046212 17.423606,4.85595985 C18.0521016,5.21082145 17.8691029,6.61719933 18.0601015,7.27766413 C18.3870993,8.42518403 18.9645952,9.51389542 19.6380905,10.45835 C20.857582,12.1758601 22.5330702,13.5123715 24.5185564,14.2909559 C25.3550505,14.6166646 26.3735434,14.542777 27.1810377,14.9614735 C28.0360317,15.4093229 27.3770364,15.9260336 26.7710406,16.5111028 C26.1170452,17.1449279 25.9690462,17.1891599 25.3960502,17.4364573" id="Path" fill="#FF9900"></path>
                        <path d="M30.9325115,22.5226394 C30.9285115,23.0680004 29.9285185,23.6867463 29.6035208,24.0094392 C28.7965264,24.8146634 28.6120277,25.5917399 27.5575351,24.5392184 C27.0765385,24.0632213 26.5845419,23.6299484 26.1260451,23.1388722 C25.8910468,22.8850406 25.5985488,22.7900422 25.7270479,22.4306569 C25.9135466,21.92802 26.7025411,21.417341 27.0745385,21.0418713 C27.4755357,20.6372486 27.9005327,19.9159648 28.5535281,20.036095 C29.2410233,20.1612516 29.6395205,21.1861281 30.0940173,21.648554 C30.2790161,21.8385507 30.864012,22.1557145 30.9200116,22.4266358 C30.9290115,22.4577993 30.9325115,22.4909733 30.9325115,22.5226394" id="Path" fill="#508AC7"></path>
                        <path d="M34.9699832,18.55784 C34.4699867,19.2047337 32.8299982,21.7018335 31.9065047,20.9976393 C31.4200081,20.6276985 31.0265108,20.0722848 30.6040138,19.6314723 C30.1115172,19.1217986 29.4615218,18.8905856 29.9210186,18.1471857 C30.0675175,17.9109464 32.2105025,15.7737346 32.2665021,15.8260088 C33.1939957,16.6704387 34.2219885,17.5425136 34.9699832,18.55784" id="Path" fill="#FF9900"></path>
                        <path d="M38.713957,14.5251847 C38.720457,14.5945486 38.713957,14.6694415 38.7019571,14.7473502 C38.578458,15.5234215 37.577965,15.9964027 37.1019683,16.5382452 C36.287974,17.4671181 35.7449778,16.733771 35.0384828,16.1115066 C34.5584861,15.6867784 33.2349954,14.8725067 33.8859908,14.0713036 C34.3764874,13.4726632 35.3544805,12.0718143 36.152475,11.8999125 C36.7964705,11.7561584 37.2184675,12.5809854 37.6034648,12.998174 C38.0124619,13.4404944 38.6794573,13.8712542 38.713957,14.5251847" id="Path" fill="#009EA7"></path>
                        <path d="M34.7269849,26.4778887 C34.6959851,26.7935446 34.4169871,27.0845714 33.9399904,27.5635843 C33.4069942,28.0948714 32.8799979,28.7809707 32.2545022,29.208212 C31.7495058,29.5535235 30.6715133,28.0209838 30.4670147,27.7601153 C30.2395163,27.4705964 29.7725196,27.1001531 29.6600204,26.7397625 C29.5290213,26.3185528 29.9310185,26.0059127 30.2130165,25.7465521 C30.565514,25.4188329 30.8960117,25.0880978 31.2315094,24.7498232 C31.4545078,24.5216261 31.7515057,23.9898363 32.0610036,23.8883037 C32.7409988,23.6505565 33.7749916,25.0132049 34.140489,25.4168223 C34.572486,25.8908089 34.7484848,26.1938989 34.7269849,26.4778887" id="Path" fill="#FF9900"></path>
                        <path d="M38.7804566,22.5171104 C38.725957,23.0157262 37.9729622,23.4645809 37.6539645,23.7852632 C37.2584672,24.1833515 36.9189696,24.8010922 36.3999732,25.0488922 C35.9774762,25.2494443 35.8929768,24.9930995 35.6484785,24.6895068 C35.3244808,24.2899105 33.435994,22.9277647 33.5239933,22.4507623 C33.579993,22.1240484 34.6024858,21.2745921 34.8489841,20.996634 C35.1944817,20.5985456 35.6659784,19.856151 36.2794741,19.9576836 C36.8284702,20.0506714 37.2559672,20.8372981 37.6234647,21.2062335 C37.9449624,21.5329475 38.6939572,21.8787616 38.7784566,22.3793879 C38.7824566,22.4241226 38.7824566,22.4708678 38.7804566,22.5171104" id="Path" fill="#009EA7"></path>
                        <path d="M38.6334576,30.4462065 C38.6274576,30.5205968 38.6069578,30.607553 38.570458,30.6965197 C38.429959,31.0493707 37.9689622,31.5158177 37.711964,31.8013154 C37.4239661,32.1169714 37.1119682,32.4265957 36.7644707,32.6743956 C36.1639749,33.1011343 36.0659756,33.0619286 35.6059788,32.5773867 C35.43198,32.3979454 35.2234815,32.2602229 35.0459827,32.0802789 C34.6864852,31.7138566 34.3279877,31.3504502 33.9734902,30.9830227 C33.2219955,30.2089619 33.8894908,29.6837064 34.5444862,29.0689816 C34.9114836,28.7226648 35.4974795,27.9536304 36.0279758,27.8973351 C36.7784706,27.8103789 37.4684658,29.0106757 37.9209626,29.4756148 C38.2564602,29.8123815 38.6579574,30.0365575 38.6334576,30.4462065" id="Path" fill="#009EA7"></path>
                        <path d="M42.6594294,26.4839203 C42.6734293,26.7146306 42.437931,26.8503426 42.1924327,27.0624553 C41.6714363,27.5098021 40.6464435,29.4856675 39.8094494,28.9800149 C39.4649518,28.7658916 39.2354534,28.2637574 38.9359555,27.9732333 C38.0909614,27.1443851 37.2254675,26.7553442 38.0649616,25.6229034 C38.5454582,24.9679676 39.7614497,23.3122819 40.6769433,24.2527154 C40.9799412,24.5553028 41.2789391,24.8699534 41.5689371,25.1841015 C41.8749349,25.5088049 42.3009319,25.8320004 42.5489302,26.1964121 C42.6234297,26.3090027 42.6594294,26.4029958 42.6594294,26.4839203" id="Path" fill="#FF9900"></path>
                        <path d="M46.584451,22.4422175 C46.586402,22.596527 46.5274024,22.7769737 46.3744034,22.9915996 C45.8929068,23.6967991 45.3504106,24.4447227 44.5869159,24.8619113 C43.7564218,25.3072475 43.2409254,24.5859636 42.7669287,24.0044128 C41.9934341,23.0529213 41.0299408,22.7845132 42.0899334,21.6068351 C42.6629294,20.968989 43.3829244,20.16477 44.1254192,19.7279786 C44.7109151,20.2542394 45.2514113,20.8247322 45.7989075,21.3927118 C46.1899047,21.7958265 46.584451,22.0521713 46.584451,22.4422175" id="Path" fill="#508AC7"></path>
                    </g>
                    <g id="Group" transform="translate(0.000000, 35.796273)" fill="#031E4B">
                        <path d="M26.676471,7.28873678 C26.676471,6.86199811 26.5584719,6.54634217 26.3169735,6.34629271 C26.0769752,6.14875644 25.7069778,6.04722379 25.2954807,6.04722379 C25.0254826,6.04722379 24.6649851,6.08391628 24.395987,6.15177226 C24.1319888,6.22163878 23.9054904,6.32518197 23.7114918,6.46189918 L23.7114918,13.6249768 C23.5749927,13.6677009 23.3619942,13.7099224 23.0659963,13.7501333 C22.7699984,13.7908469 22.4705005,13.8094445 22.1515027,13.8094445 C21.8515048,13.8094445 21.5835067,13.7908469 21.3445083,13.7501333 C21.10401,13.7099224 20.9060114,13.6249768 20.7405126,13.5013281 C20.5760137,13.3771768 20.4495146,13.2103014 20.3615152,12.9956754 C20.2730158,12.7810495 20.2265162,12.5061072 20.2265162,12.1587851 L20.2265162,5.96730454 C20.2265162,5.59334273 20.3045156,5.29075535 20.4655145,5.0580345 C20.6205134,4.82179518 20.8360119,4.61068771 21.10801,4.41717253 C21.5735067,4.08895067 22.1580026,3.81903469 22.8634977,3.61094304 C23.5649928,3.40737512 24.4364867,3.30232402 25.2954807,3.30232402 C26.8414699,3.30232402 28.0769612,3.64210653 28.9109554,4.32518999 C29.7459496,5.0062629 30.1589467,5.95122016 30.1589467,7.16358021 L30.1589467,13.6244741 C30.0234476,13.6671983 29.8084491,13.7094197 29.5154512,13.7496307 C29.2214532,13.7903443 28.9189553,13.8089418 28.6019576,13.8089418 C28.3009597,13.8089418 28.0304616,13.7903443 27.7929632,13.7496307 C27.5559649,13.7094197 27.3529663,13.6244741 27.1894674,13.5008255 C27.0249686,13.3766742 26.8994695,13.2097987 26.8089701,12.9951728 C26.7209707,12.7805469 26.676471,12.5056045 26.676471,12.1582825 L26.676471,7.28873678 Z" id="Path"></path>
                        <path d="M35.7284077,13.6254794 C35.5779087,13.6541297 35.3584103,13.6908222 35.0639123,13.7400806 C34.7709144,13.7878311 34.4674165,13.8104498 34.1724186,13.8104498 C33.8694207,13.8104498 33.5984226,13.7918522 33.3644242,13.7511386 C33.1204259,13.7109277 32.9219273,13.625982 32.7554285,13.5023334 C32.5929296,13.3781821 32.4659305,13.2113066 32.3769311,12.9966807 C32.2864318,12.7820548 32.2464321,12.5071124 32.2464321,12.1597904 L32.2464321,3.75721036 C32.391931,3.72805742 32.6189295,3.69237021 32.9099274,3.64210653 C33.2039254,3.59485866 33.5024233,3.57123473 33.8034212,3.57123473 C34.1024191,3.57123473 34.3724172,3.58932966 34.6124155,3.63456697 C34.8494138,3.67678847 35.0539124,3.75670772 35.2174113,3.88085902 C35.3799101,4.00450769 35.5034093,4.17289103 35.5959086,4.38550641 C35.682408,4.60013234 35.7284077,4.8765826 35.7284077,5.22239674 L35.7284077,13.6254794 Z" id="Path"></path>
                        <path d="M46.0313356,10.6538904 C46.0313356,11.7003803 45.6408383,12.5181704 44.8608438,13.1102766 C44.0818493,13.7038907 42.9353573,13.9984359 41.4188679,13.9984359 C40.8438719,13.9984359 40.3138756,13.9577223 39.8178791,13.8742846 C39.3278825,13.7918522 38.9083854,13.6646851 38.5578879,13.4922806 C38.2093903,13.3203788 37.9363922,13.1032397 37.7398936,12.8413659 C37.540395,12.581 37.4438957,12.2683599 37.4438957,11.9124931 C37.4438957,11.5822607 37.5068953,11.3017893 37.6458943,11.0745974 C37.7823933,10.8489135 37.9448922,10.6599221 38.1398908,10.5076231 C38.5323881,10.7282807 38.9888849,10.9233038 39.5038813,11.0962108 C40.0128777,11.2706258 40.6058736,11.3555714 41.2738689,11.3555714 C41.6993659,11.3555714 42.0208637,11.2942497 42.2513621,11.1700984 C42.4733605,11.0469524 42.5853597,10.8810823 42.5853597,10.6734932 C42.5853597,10.4804807 42.5028603,10.3286844 42.3393614,10.2196122 C42.1788626,10.11054 41.9018645,10.0200654 41.5193672,9.95271202 L40.9058715,9.82906336 C39.7153798,9.59433196 38.831886,9.22589916 38.2493901,8.72426759 C37.6713941,8.22112812 37.3783962,7.50235744 37.3783962,6.56493974 C37.3783962,6.05627126 37.4878954,5.594348 37.7078938,5.1821858 C37.9243923,4.77102886 38.2338902,4.42420945 38.6293874,4.15228292 C39.0268846,3.87331947 39.5038813,3.66170936 40.0563774,3.51041567 C40.6053736,3.35912199 41.2208693,3.28523437 41.8893646,3.28523437 C42.397361,3.28523437 42.8688577,3.31991631 43.3148546,3.39581448 C43.7583515,3.47271791 44.1438488,3.58631384 44.4728465,3.7386128 C44.7978442,3.88890121 45.0588424,4.08643749 45.2523411,4.32418471 C45.4428397,4.56595303 45.5383391,4.8534613 45.5383391,5.18268843 C45.5383391,5.50085755 45.4813395,5.76976826 45.3648403,5.99947329 C45.2483411,6.22515723 45.1018421,6.41515396 44.9208434,6.56544237 C44.8103442,6.49708376 44.6488453,6.4252067 44.4313468,6.34780062 C44.2108483,6.27290773 43.97335,6.2055544 43.7133518,6.14222216 C43.4533536,6.08090046 43.1923555,6.02812359 42.9253573,5.98841528 C42.6573592,5.94569115 42.4133609,5.92709359 42.1983624,5.92709359 C41.7443656,5.92709359 41.397368,5.976352 41.1503698,6.08090046 C40.9058715,6.18494629 40.7833723,6.34679535 40.7833723,6.56544237 C40.7833723,6.71924925 40.8513719,6.84239527 40.9903709,6.936891 C41.1268699,7.03490518 41.3858681,7.12336926 41.7673654,7.20630434 L42.401861,7.35005848 C43.7138518,7.65515904 44.6493453,8.06983443 45.2003414,8.60061893 C45.7508376,9.12587442 46.0313356,9.81549217 46.0313356,10.6538904" id="Path"></path>
                        <path d="M52.1897925,3.30282666 C52.7512886,3.30282666 53.3022847,3.38324855 53.841281,3.54007125 C54.3782772,3.7004124 54.8477739,3.93715435 55.2442712,4.25482083 C55.6552683,3.97786793 56.1147651,3.75017345 56.6272615,3.57224001 C57.1412579,3.39279865 57.7597536,3.3033293 58.4822485,3.3033293 C59.0012449,3.3033293 59.5082413,3.37319582 60.0072378,3.50991304 C60.5077343,3.64663026 60.9537312,3.86326673 61.3407285,4.15982247 C61.7322258,4.45587557 62.0422236,4.84944021 62.273722,5.33800322 C62.5072203,5.82706886 62.6262195,6.4211856 62.6262195,7.12286663 L62.6262195,13.625982 C62.4857205,13.6687062 62.271222,13.7109277 61.977224,13.7511386 C61.6842261,13.7918522 61.3812282,13.8104498 61.0627304,13.8104498 C60.7647325,13.8104498 60.4937344,13.7918522 60.2572361,13.7511386 C60.0177378,13.7109277 59.8152392,13.625982 59.6547403,13.5023334 C59.4862415,13.3781821 59.3617423,13.2113066 59.273243,12.9966807 C59.1857436,12.7820548 59.1377439,12.5045992 59.1377439,12.1597904 L59.1377439,7.22590718 C59.1377439,6.81324233 59.0217447,6.51266551 58.7897463,6.32819779 C58.556748,6.14171952 58.2477501,6.04822907 57.8482529,6.04822907 C57.6552543,6.04822907 57.4507557,6.09346638 57.2337572,6.18343838 C57.0142588,6.2724051 56.8522599,6.36589555 56.7422607,6.4634071 C56.7542606,6.51970242 56.7597606,6.56845819 56.7597606,6.61570606 L56.7597606,6.75192064 L56.7597606,13.6264847 C56.6112616,13.6692088 56.3887631,13.7114303 56.0957652,13.7516412 C55.8022672,13.7923548 55.5052693,13.8109524 55.2042714,13.8109524 C54.9022735,13.8109524 54.6317754,13.7923548 54.3952771,13.7516412 C54.1542788,13.7114303 53.9522802,13.6264847 53.7902813,13.502836 C53.6242825,13.3786847 53.4997834,13.2118093 53.411784,12.9971833 C53.3227846,12.7825574 53.2752849,12.5051019 53.2752849,12.160293 L53.2752849,7.22640982 C53.2752849,6.81374497 53.1507858,6.51316814 52.8967876,6.32870042 C52.6447893,6.14222216 52.3397915,6.0487317 51.984794,6.0487317 C51.7382957,6.0487317 51.5292971,6.08743474 51.3492984,6.16383554 C51.1727996,6.24174425 51.0228007,6.31311868 50.9013015,6.38147729 L50.9013015,13.6269873 C50.7628025,13.6697114 50.549304,13.7119329 50.2538061,13.7521439 C49.9588081,13.7928575 49.6563102,13.811455 49.3423124,13.811455 C49.0398146,13.811455 48.7693165,13.7928575 48.5338181,13.7521439 C48.2928198,13.7119329 48.0918212,13.6269873 47.9273223,13.5033386 C47.7613235,13.3791873 47.6373244,13.2123119 47.550325,12.997686 C47.4613256,12.7830601 47.4153259,12.5056045 47.4153259,12.1607957 L47.4153259,5.92558568 C47.4153259,5.55112124 47.4938254,5.25607341 47.6488243,5.03843166 C47.8098232,4.81777409 48.0213217,4.61068771 48.2963198,4.41717253 C48.7618165,4.08895067 49.3383125,3.81903469 50.0273077,3.61094304 C50.7178028,3.40787776 51.4372978,3.30282666 52.1897925,3.30282666" id="Path"></path>
                        <path d="M68.4021791,11.418401 C68.6321775,11.418401 68.8871757,11.3942745 69.1716737,11.3440108 C69.4521717,11.2967629 69.6581703,11.2309175 69.7946694,11.1469771 L69.7946694,9.49682041 L68.3196797,9.62147435 C67.9371823,9.64710883 67.6221846,9.73205445 67.3781863,9.86877167 C67.132188,10.0054889 67.0096888,10.2120726 67.0096888,10.4890255 C67.0096888,10.7634652 67.1101881,10.986636 67.3266866,11.1600457 C67.5351852,11.3309422 67.8951826,11.418401 68.4021791,11.418401 M68.2376802,3.30282666 C68.9751751,3.30282666 69.6456704,3.37922746 70.2561661,3.52951587 C70.8621619,3.68080956 71.3841582,3.91151987 71.8161552,4.2216468 C72.2451522,4.53177373 72.5776499,4.92332782 72.8091483,5.397817 C73.0401466,5.87582463 73.1566458,6.4347568 73.1566458,7.08114777 L73.1566458,11.7059093 C73.1566458,12.064792 73.0586465,12.3563214 72.8596479,12.5845185 C72.6586493,12.8127156 72.424651,13.0072361 72.1531529,13.1736089 C71.2656591,13.710425 70.0126678,13.9783305 68.4016791,13.9783305 C67.6756842,13.9783305 67.0231887,13.9094692 66.4431928,13.7712441 C65.8631969,13.6320137 65.3622004,13.4259326 64.9497032,13.1519955 C64.5277062,12.8785611 64.2102084,12.5242021 63.98221,12.099474 C63.7592116,11.6722326 63.6447124,11.1761301 63.6447124,10.6131768 C63.6447124,9.66118266 63.9262104,8.93336452 64.4877065,8.4241934 C65.0477026,7.91602756 65.9136965,7.59785844 67.0896883,7.47370714 L69.7736695,7.18368568 L69.7736695,7.04143946 C69.7736695,6.64184317 69.6011707,6.35735072 69.2506732,6.18444365 C68.9041756,6.01002867 68.4016791,5.92659095 67.7456837,5.92659095 C67.2246873,5.92659095 66.7201909,5.98037309 66.2271943,6.09045056 C65.7366977,6.19952276 65.2922009,6.33724525 64.8952036,6.50412068 C64.7167049,6.38047202 64.5682059,6.19047529 64.4417068,5.93513578 C64.3227076,5.6802989 64.2597081,5.41540929 64.2597081,5.13895903 C64.2597081,4.78309215 64.3442075,4.49558388 64.5187063,4.28347113 C64.6872051,4.0688452 64.9542032,3.88789594 65.3057008,3.73760752 C65.702698,3.58530856 66.1696947,3.4752311 66.7086909,3.4083804 C67.2516871,3.33901651 67.7606836,3.30282666 68.2376802,3.30282666" id="Shape"></path>
                        <path d="M80.3275957,6.06984245 C79.986098,6.06984245 79.6641003,6.1251325 79.3561025,6.2342047 C79.0471046,6.34579008 78.7831065,6.50663386 78.5556081,6.72025452 C78.3321096,6.93437781 78.1476109,7.2002727 78.0131119,7.51341545 C77.8746128,7.8320872 77.8061133,8.20152528 77.8061133,8.62776132 C77.8061133,9.48324922 78.0486116,10.1236085 78.5341082,10.5503472 C79.0186048,10.9785938 79.6116007,11.188696 80.3075958,11.188696 C80.7155929,11.188696 81.0720904,11.1414481 81.3755883,11.0439366 C81.6760862,10.9499435 81.9415844,10.8458977 82.1750827,10.7378308 C82.4460808,10.9308433 82.6535794,11.1404429 82.7885784,11.3636136 C82.9240775,11.5923134 82.994077,11.8642399 82.994077,12.1819064 C82.994077,12.7453623 82.7280789,13.1816511 82.1930826,13.4922806 C81.6615863,13.8014023 80.9220915,13.9577223 79.9805981,13.9577223 C79.1171041,13.9577223 78.3406096,13.8285447 77.6446144,13.5767236 C76.9451193,13.3203788 76.3506235,12.9635067 75.848627,12.5005782 C75.3546305,12.0411681 74.9651332,11.4852517 74.6906351,10.839866 C74.416637,10.1909619 74.2831379,9.47772021 74.2831379,8.69260147 C74.2831379,7.78282879 74.4291369,6.98765732 74.7231349,6.30708704 C75.0186328,5.62601412 75.41763,5.06406614 75.9236265,4.62526418 C76.4271229,4.1834464 77.0116189,3.85170609 77.6771142,3.63506961 C78.3366096,3.41290413 79.0391047,3.30282666 79.7770995,3.30282666 C80.7585926,3.30282666 81.5180873,3.48126274 82.0525836,3.84014544 C82.5865799,4.19500705 82.850578,4.65894085 82.850578,5.22289938 C82.850578,5.48427054 82.7885784,5.72905468 82.6655793,5.95473862 C82.5445801,6.18343838 82.4000812,6.37996938 82.2355823,6.54332635 C82.0050839,6.4347568 81.7250859,6.32719251 81.3960882,6.22364932 C81.0665905,6.12261932 80.710093,6.06984245 80.3275957,6.06984245" id="Path"></path>
                        <path d="M94,11.8325738 C93.9305005,12.4779595 93.7420018,12.9715489 93.434504,13.3163577 C93.1265061,13.660664 92.6780092,13.8325658 92.0905134,13.8325658 C91.6520164,13.8325658 91.2630191,13.7250015 90.9240215,13.5108782 C90.5815239,13.2982628 90.2125265,12.9368669 89.8150293,12.4287011 L87.7870435,9.86826903 L87.7870435,13.6249768 C87.6345445,13.6536271 87.4140461,13.6903195 87.1205481,13.7420911 C86.8265502,13.7868258 86.5300523,13.8094445 86.2275544,13.8094445 C85.9265565,13.8094445 85.6570584,13.7908469 85.42056,13.7501333 C85.1815617,13.7099224 84.9765631,13.6249768 84.8170642,13.5013281 C84.6495654,13.3771768 84.5250663,13.2103014 84.4385669,12.9956754 C84.3480675,12.7810495 84.3035678,12.503594 84.3035678,12.1587851 L84.3035678,0.206081103 C84.4525668,0.164362246 84.6735653,0.120632841 84.9675632,0.0703691573 C85.2615611,0.0226186577 85.560559,0 85.858557,0 C86.1590549,0 86.430053,0.0206081103 86.6705513,0.0613216942 C86.9100496,0.101030004 87.1100482,0.186478267 87.2730471,0.308619018 C87.4395459,0.43226768 87.566045,0.601153658 87.6545444,0.815779588 C87.7430438,1.02688706 87.7870435,1.30836369 87.7870435,1.65065937 L87.7870435,7.10276115 L91.3105188,3.46718891 C92.0220138,3.46718891 92.5950098,3.62903797 93.0220068,3.94268335 C93.4545038,4.26034984 93.6715023,4.65994612 93.6715023,5.13845639 C93.6715023,5.34805595 93.6330026,5.5370474 93.567003,5.70945184 C93.4985035,5.88235891 93.3900043,6.05526598 93.2475053,6.2342047 C93.1060063,6.41213814 92.9245075,6.60213486 92.6955091,6.8031896 C92.4685107,7.00022324 92.2070125,7.23294409 91.9065146,7.49381261 L90.718023,8.52723395 L94,11.8325738 Z" id="Path"></path>
                        <path d="M18.2005303,1.79642406 C18.1160309,1.57526385 17.9920318,1.40386469 17.8300329,1.27971339 C17.6645341,1.15707 17.4635355,1.07011383 17.2230372,1.02236333 C16.9880388,0.973607555 16.7080408,0.950988897 16.396043,0.950988897 C16.0945451,0.950988897 15.7810473,0.973607555 15.4545495,1.02236333 C15.1250518,1.07011383 14.8840535,1.10730895 14.7365546,1.13495398 L14.7365546,8.96100954 C14.7365546,9.61996644 14.5605558,10.1361745 14.2050583,10.5076231 C13.8460608,10.8805796 13.1870654,11.0665553 12.6000695,11.0665553 C12.0250735,11.0665553 11.3685781,10.8805796 11.0090806,10.5076231 C10.6465832,10.1361745 10.4630845,9.6194638 10.4630845,8.96100954 L10.4630845,2.66296997 C10.4630845,2.30358463 10.4250847,2.01607636 10.3425853,1.79592142 C10.2600859,1.57476121 10.1375867,1.40336205 9.97308789,1.27921075 C9.80858904,1.15656736 9.60859044,1.06961119 9.36659213,1.02186069 C9.12959379,0.973104918 8.85459572,0.95048626 8.53659794,0.95048626 C8.23810003,0.95048626 7.92310223,0.981147107 7.59710451,1.02186069 C5.65661809,1.26262374 3.54513286,1.93464919 1.9106443,3.03341332 C1.46264743,3.33298487 1.04115038,3.6963913 0.678152923,4.09548495 C0.418154742,4.38550641 0.233156036,4.68708851 0.128156771,4.99570753 C0.0196575301,5.30432655 -0.02034219,5.60440074 0.00965760011,5.8944222 C0.0581572608,6.38801157 0.283655683,6.81776607 0.692152825,7.17966459 C1.09764999,7.54256839 1.6396462,7.77931034 2.31364148,7.89290626 C2.53513993,7.4963258 2.82263792,7.09874006 3.16963549,6.70417014 C4.02312952,5.73558895 5.11912185,4.89668807 6.34861325,4.43426218 C6.52161204,4.36992467 6.69661082,4.31513725 6.88010953,4.26286302 L6.88010953,9.01981805 C6.88010953,9.76422321 7.00460866,10.4437882 7.25710689,11.0559999 C7.51110512,11.6677089 7.87560257,12.193467 8.35509921,12.6257347 C8.83109588,13.0580024 9.41309181,13.3912506 10.095587,13.6249768 C10.7760823,13.8592055 11.7370755,13.9773252 12.6000695,13.9773252 C13.4625635,13.9773252 14.4240568,13.8592055 15.104552,13.6249768 C15.7880472,13.3912506 16.3670432,13.0580024 16.8440398,12.6257347 C17.3250365,12.193467 17.6890339,11.6677089 17.9425321,11.0559999 C18.1945304,10.4437882 18.3230295,9.76472585 18.3230295,9.01981805 L18.3230295,2.66296997 C18.3230295,2.30358463 18.2810298,2.01607636 18.2005303,1.79642406 Z" id="Path"></path>
                    </g>
                </g>
            </g>
        </g>
    </g>
</svg>