<svg width="437" height="51" preserveAspectRatio="xMidYMid meet" class="svg-logo" viewBox="0 0 437 51" xmlns="http://www.w3.org/2000/svg">
      <title>FBN_Logo_BW_2017</title>
      <g fill="#1A1919" fill-rule="evenodd">
        <path d="M11.189 43.509c0 3.08.85 3.85 3.045 4.131 2.337.279 2.974.42 2.974 1.12 0 .77-.283 1.05-1.628 1.05-1.487 0-2.833-.28-7.365-.28-4.32 0-5.382.28-6.657.28-.92 0-1.558-.14-1.558-1.05 0-.7.354-.841 1.771-1.191 2.549-.42 2.903-.909 2.903-3.36V11.026c0-2.311-.425-3.151-1.983-3.431C.496 7.245 0 7.245 0 6.475c0-.77.567-1.05 1.771-1.05 2.053 0 6.302.28 10.41.28 5.027 0 8.285-.28 11.897-.28 2.266 0 2.407.14 2.407 3.29 0 3.011 0 5.181-.07 6.861-.142 1.54-.213 1.75-.779 1.75-1.346 0-.921-1.68-2.408-4.83-1.7-3.57-4.037-5.111-8.852-5.111-2.549 0-3.187.49-3.187 1.611v15.401c0 .98.283 1.12 2.195 1.12 4.108 0 5.453-.84 6.161-3.29.708-2.59.779-3.08 1.559-3.08.566 0 .707.49.707 1.82 0 1.47-.283 3.15-.283 5.6 0 2.101.283 4.691.283 6.581 0 .98-.283 1.19-.778 1.19-.638 0-.85-.56-1.275-2.24-.921-3.64-2.054-4.551-5.524-4.551-2.833 0-3.045.21-3.045 1.471v14.491M39.162 48.48c4.461 0 6.443-7.211 6.443-14.072 0-7.841-2.195-15.471-6.798-15.471-4.532 0-6.515 7.211-6.515 14.071 0 7.841 2.266 15.472 6.798 15.472h.072zm-.284 1.96c-7.719 0-12.959-7.631-12.959-16.732 0-9.101 5.24-16.731 13.03-16.731 7.861 0 13.101 7.63 13.101 16.731 0 9.101-5.24 16.732-13.101 16.732h-.071zM66.78 48.48c4.461 0 6.444-7.211 6.444-14.072 0-7.841-2.196-15.471-6.799-15.471-4.532 0-6.514 7.211-6.514 14.071 0 7.841 2.265 15.472 6.797 15.472h.072zm-.284 1.96c-7.719 0-12.959-7.631-12.959-16.732 0-9.101 5.24-16.731 13.03-16.731 7.861 0 13.101 7.63 13.101 16.731 0 9.101-5.24 16.732-13.101 16.732h-.071zM87.458 33.078c0 9.591 2.266 13.792 6.515 13.792 1.133 0 2.337-.281 3.258-.98.92-.701 1.558-1.681 1.558-3.151V25.307c0-1.75-.496-3.22-1.346-4.34-.85-1.05-2.053-1.68-3.541-1.68-2.691 0-6.444 3.22-6.444 13.721v.07zm17.209 11.131c0 1.891.212 2.38.637 2.38 1.629 0 1.912-3.08 2.761-3.08.497 0 .638.49.638 1.54 0 1.471-.141 2.241-1.133 2.801-.425.28-1.629.7-2.62 1.12-1.7.7-3.541 1.47-4.249 1.47-.638 0-.921-.49-1.062-1.33-.284-1.751-.354-2.381-.78-2.381-.354 0-.92.84-2.053 1.821-1.062.91-2.691 1.89-5.099 1.89-7.081 0-10.693-6.511-10.693-16.242 0-9.171 4.886-17.221 11.897-17.221 1.983 0 3.399.629 4.249 1.19.637.419 1.062.77 1.275.77.283 0 .354-.141.354-.42V7.105c0-1.33-.425-1.75-1.983-2.03-1.275-.28-1.629-.35-1.629-.98s.283-.77 1.416-1.05c2.692-.91 4.532-1.61 5.807-2.17 1.204-.42 1.558-.7 1.913-.7.283 0 .354.349.354 1.26v42.774zM126.192 43.299c0 2.87.992 4.551 4.391 4.551 3.045 0 5.381-1.261 6.727-3.851 1.063-1.82 1.558-4.271 1.558-7.351 0-2.66-.637-4.9-1.699-6.65-1.488-2.38-3.966-3.781-7.153-3.781-3.47 0-3.753.14-3.824.701v16.381zm0-19.952c0 .77.354.91 1.7.91 1.912 0 3.611-.28 5.24-1.12 2.62-1.33 3.753-4.06 3.753-7.841 0-5.32-2.266-8.751-6.727-8.751-3.187 0-3.966.77-3.966 2.451v14.351zm-6.515-12.391c0-2.17-.85-2.94-2.974-3.011-.567 0-.991 0-1.204-.21-.213-.069-.284-.21-.284-.49 0-.7 1.275-1.12 2.904-1.47 3.328-.84 6.799-1.19 10.268-1.19 5.383 0 8.782.91 11.26 2.45 3.045 1.891 4.178 4.831 4.178 7.981 0 5.181-3.824 8.261-8.569 9.661v.21c1.063.21 2.196.49 3.187.841 4.32 1.609 7.578 5.11 7.578 11.271 0 3.78-1.134 7.07-3.471 9.45-2.195 2.101-5.381 3.361-9.63 3.361-2.904 0-5.736-.28-8.569-.28-2.62 0-5.595.28-6.869.28-1.062 0-1.629-.28-1.629-1.05s1.275-.91 2.125-1.191c1.345-.349 1.699-.98 1.699-2.59V10.956zM156.36 41.269c0 3.501 2.054 5.251 5.241 5.251 1.912 0 3.895-.841 5.169-2.241.85-.98 1.417-2.17 1.417-3.43V22.437c0-1.89-.213-2.45-1.842-2.73-1.629-.21-2.124-.141-2.124-1.121 0-.56.495-.98 1.416-.98.991 0 2.196.141 3.399.141 1.275 0 2.479-.141 3.895-.141.708 0 1.204.21 1.204 1.611v23.452c0 2.31.496 2.94 1.77 3.081 1.346.14 1.7.35 1.7.91-.071.56-.425.77-1.983 1.33-2.974 1.05-4.886 1.82-5.877 2.24-.426.14-.638.21-.921.21-.213 0-.354-.28-.354-.84v-3.221c0-.77-.213-.91-.496-.91-.283 0-.566.21-.992.56-1.486 1.261-4.036 3.991-8.285 3.991-2.195 0-4.319-.49-5.807-1.75-1.416-1.26-2.478-3.151-2.478-5.951V21.807c0-1.4-.567-1.89-1.983-2.03-1.275-.14-1.7-.421-1.7-1.12 0-.49.425-1.051 1.346-1.051 1.345 0 2.691.141 4.036.141.921 0 2.337-.141 3.116-.141.992 0 1.133.701 1.133 2.521v21.142M179.235 25.797c0-6.231 5.311-8.82 10.764-8.82 2.195 0 4.39.349 5.736 1.12.283.139.354.63.496 1.68.07.63.07 1.47.07 2.59v1.82c-.07 1.19-.283 1.751-.849 1.751-.85 0-.992-1.191-1.983-3.641-.779-1.89-1.841-3.36-4.037-3.36-2.762 0-4.744 1.89-4.744 4.34 0 3.36 3.328 5.111 6.656 7.281 3.328 2.1 6.586 4.62 6.586 9.521 0 6.86-5.028 10.361-11.614 10.361-2.124 0-3.541-.21-4.673-.56-.567-.14-1.063-.28-1.488-.42-.424-.21-.708-.56-.849-2.101-.071-.839-.071-2.1-.071-3.99 0-3.22.212-3.99.85-3.99.849 0 .991.91 2.053 3.99 1.133 2.87 2.762 5.111 5.311 5.111 3.046 0 4.887-2.101 4.887-5.111 0-4.2-3.258-6.091-6.515-8.191-3.329-2.03-6.586-4.34-6.586-9.311v-.07M206.075 12.776c-1.771 0-3.329-1.47-3.329-4.13 0-2.731 1.558-4.201 3.4-4.201 1.912 0 3.469 1.47 3.469 4.201 0 2.66-1.557 4.13-3.469 4.13h-.071zM203.1 24.957c0-1.82-.495-2.31-2.62-2.8-.708-.14-.991-.42-.991-.84 0-.56.566-.84 2.266-1.4 2.266-.7 3.965-1.61 5.382-2.241.637-.42 1.133-.699 1.345-.699.425 0 .567.279.567 1.049v26.323c0 2.1.071 3.01 2.407 3.501 1.276.35 1.7.49 1.7 1.12 0 .56-.283.84-1.204.84-1.345 0-2.62-.28-5.877-.28-3.4 0-4.745.28-5.878.28-.637 0-1.062-.28-1.062-.84 0-.56.283-.91 1.274-1.12 2.408-.42 2.691-.701 2.691-3.221V24.957zM218.963 24.957c0-2.03-.355-2.31-1.983-2.45-1.275-.14-1.629-.28-1.629-.84 0-.56.637-.77 2.266-1.33 2.62-.981 4.249-1.96 5.24-2.661.638-.42.992-.699 1.275-.699.354 0 .496.56.496 1.19v2.73c.07 1.05.142 1.19.354 1.19.637 0 1.7-1.12 3.257-2.31 1.558-1.12 3.612-2.381 6.232-2.381 2.266 0 4.32.701 5.807 2.17 1.416 1.401 2.337 3.501 2.408 6.231v19.182c0 2.241.849 2.801 2.125 3.011 1.345.14 1.77.35 1.77.98s-.496.84-1.346.84c-.496 0-2.053-.28-5.594-.28-3.328 0-4.249.28-5.17.28-.85 0-1.203-.21-1.203-.91 0-.42.424-.7 1.132-.84 1.629-.351 2.337-.77 2.337-2.381V26.567c0-1.61-.424-2.94-1.204-3.85-.921-1.19-2.265-1.75-3.966-1.75-1.628 0-3.398.63-4.602 1.68-1.204 1.05-2.054 2.45-2.054 3.99v19.042c0 1.47.495 1.961 1.912 2.311 1.841.35 2.124.35 2.124.98s-.495.84-1.061.84c-.568 0-1.487-.28-6.02-.28-3.753 0-4.32.28-5.311.28-.85 0-1.346-.35-1.346-.91s.496-.91 1.134-1.05c2.195-.21 2.62-.911 2.62-3.431V24.957M252.814 28.598c0 1.33.212 1.68 2.691 1.68 1.346 0 2.478-.14 3.47-.28 2.124-.28 3.541-.84 3.894-1.4.568-.56.78-1.33.78-2.941 0-4.13-1.913-6.65-4.674-6.65-3.612 0-6.161 4.62-6.161 9.52v.071zm1.628 3.85c-1.274 0-1.77.49-1.77 1.61 0 7.211 3.116 12.812 8.002 12.812 3.258 0 5.17-1.611 6.161-3.991.566-1.26.708-2.17 1.275-2.17.425 0 .708.21.708.98 0 1.05-.354 2.31-.992 3.5-1.416 3.011-4.674 5.251-8.71 5.251-8.002 0-12.817-6.721-12.817-16.032 0-11.551 5.948-17.431 12.747-17.431 5.665 0 9.772 4.2 9.772 11.271 0 3.92-.071 4.2-2.053 4.2h-12.323zM271.154 25.797c0-6.231 5.312-8.82 10.765-8.82 2.195 0 4.391.349 5.735 1.12.285.139.355.63.496 1.68.072.63.072 1.47.072 2.59v1.82c-.072 1.19-.283 1.751-.851 1.751-.849 0-.991-1.191-1.982-3.641-.78-1.89-1.841-3.36-4.036-3.36-2.763 0-4.745 1.89-4.745 4.34 0 3.36 3.328 5.111 6.656 7.281 3.329 2.1 6.586 4.62 6.586 9.521 0 6.86-5.028 10.361-11.614 10.361-2.125 0-3.541-.21-4.673-.56-.567-.14-1.063-.28-1.488-.42-.425-.21-.708-.56-.849-2.101-.072-.839-.072-2.1-.072-3.99 0-3.22.213-3.99.851-3.99.85 0 .991.91 2.053 3.99 1.133 2.87 2.762 5.111 5.311 5.111 3.045 0 4.887-2.101 4.887-5.111 0-4.2-3.258-6.091-6.516-8.191-3.328-2.03-6.586-4.34-6.586-9.311v-.07M291.408 25.797c0-6.231 5.312-8.82 10.765-8.82 2.195 0 4.391.349 5.735 1.12.284.139.355.63.496 1.68.072.63.072 1.47.072 2.59v1.82c-.072 1.19-.284 1.751-.851 1.751-.85 0-.991-1.191-1.982-3.641-.78-1.89-1.841-3.36-4.036-3.36-2.763 0-4.746 1.89-4.746 4.34 0 3.36 3.329 5.111 6.657 7.281 3.329 2.1 6.586 4.62 6.586 9.521 0 6.86-5.028 10.361-11.614 10.361-2.125 0-3.541-.21-4.674-.56-.566-.14-1.062-.28-1.487-.42-.425-.21-.708-.56-.849-2.101-.072-.839-.072-2.1-.072-3.99 0-3.22.213-3.99.851-3.99.849 0 .991.91 2.053 3.99 1.133 2.87 2.762 5.111 5.311 5.111 3.045 0 4.887-2.101 4.887-5.111 0-4.2-3.258-6.091-6.516-8.191-3.328-2.03-6.586-4.34-6.586-9.311v-.07M320.785 10.886c0-2.171-.424-3.08-1.699-3.291-1.629-.28-2.266-.28-2.266-1.19 0-.91 1.062-.98 1.77-.98 1.063 0 2.479.14 3.683.14 1.204 0 2.762-.14 3.824-.14 1.063 0 1.204.63 2.337 2.87 2.762 5.461 10.835 20.653 14.375 27.023 1.062 1.821 1.204 1.89 1.346 1.89.283 0 .354-.279.354-.84V12.216c0-3.43-.779-4.41-2.195-4.621-1.558-.21-2.479-.49-2.479-1.19 0-.56.425-.98.992-.98.779 0 1.912.28 4.886.28 1.628 0 2.974-.28 4.178-.28.921 0 1.204.21 1.204.91 0 .91-.85 1.05-2.478 1.26-1.417.28-1.913 1.26-1.913 3.361V49.18c0 1.68 0 1.82-1.416 1.82-1.062 0-1.204-.28-2.762-3.291-.425-.839-.85-1.68-1.345-2.45-5.312-10.011-10.906-19.882-16.075-30.033-.709-1.47-1.134-2.31-1.559-2.31-.353 0-.495.21-.495 1.26v25.343c0 5.81.495 7.771 2.054 8.121 1.769.42 3.47.14 3.47 1.4 0 .63-.425.77-1.205.77-.849 0-1.274-.28-4.815-.28-3.258 0-4.319.28-5.382.28-.638 0-.921-.28-.921-.7 0-.98 2.125-1.12 2.975-1.47 1.346-.491 1.557-1.68 1.557-3.641V10.886M357.539 28.598c0 1.33.213 1.68 2.692 1.68 1.346 0 2.478-.14 3.47-.28 2.125-.28 3.541-.84 3.894-1.4.567-.56.779-1.33.779-2.941 0-4.13-1.912-6.65-4.673-6.65-3.612 0-6.162 4.62-6.162 9.52v.071zm1.629 3.85c-1.274 0-1.77.49-1.77 1.61 0 7.211 3.116 12.812 8.002 12.812 3.258 0 5.17-1.611 6.161-3.991.566-1.26.708-2.17 1.275-2.17.425 0 .708.21.708.98 0 1.05-.354 2.31-.992 3.5-1.416 3.011-4.674 5.251-8.71 5.251-8.002 0-12.817-6.721-12.817-16.032 0-11.551 5.948-17.431 12.747-17.431 5.665 0 9.772 4.2 9.772 11.271 0 3.92-.071 4.2-2.053 4.2h-12.323zM388.699 48.2c-.354 1.12-.637 1.96-2.266 1.96-1.417 0-1.559-.91-1.842-1.89l-8.143-25.623c-.708-2.17-1.275-2.8-2.054-3.01-.85-.14-1.204-.49-1.204-1.051 0-.629.354-.98 1.204-.98 1.629 0 3.116.28 4.674.28 1.557 0 3.116-.28 4.603-.28.92 0 1.416.21 1.416.911 0 .56-.779.77-1.487.91-.779.21-1.558.63-1.558 1.89 0 .63.071 1.26.708 3.08l4.816 14.351c.283.98.566 1.541.849 1.541.425 0 .78-.77 1.133-1.891l2.833-9.1c.283-.91.496-1.61.496-2.171 0-.77-.496-2.17-1.629-5.18-.424-1.26-1.275-2.03-2.125-2.24-.778-.28-1.487-.42-1.487-1.05 0-.631.496-1.051 1.417-1.051 1.629 0 3.328.28 4.886.28 1.7 0 3.471-.28 4.745-.28s1.487.351 1.487.98c0 .701-.779.841-1.558.98-.85.141-1.629.491-1.629 1.541 0 .42.213 1.61.496 2.59l4.32 14.562c.283.98.567 1.96.991 1.96.354 0 .708-1.471 1.062-2.66l3.895-13.652c.284-.98.354-2.1.354-2.31 0-1.4-.991-1.75-1.983-1.89-.991-.141-2.053-.28-2.053-1.05 0-.56.425-1.051 1.133-1.051 1.133 0 2.336.28 3.682.28 1.558 0 2.833-.28 3.683-.28.638 0 1.062.281 1.062.98 0 .841-.566.911-1.204 1.191-.708.21-1.487.7-1.983 2.17L402.862 48.2c-.354 1.12-.495 1.96-1.912 1.96-1.558 0-1.841-.91-2.124-1.89l-4.816-16.522h-.142L388.699 48.2M412.705 25.797c0-6.231 5.312-8.82 10.765-8.82 2.195 0 4.391.349 5.735 1.12.285.139.355.63.497 1.68.071.63.071 1.47.071 2.59v1.82c-.071 1.19-.283 1.751-.851 1.751-.849 0-.991-1.191-1.982-3.641-.78-1.89-1.841-3.36-4.036-3.36-2.763 0-4.745 1.89-4.745 4.34 0 3.36 3.328 5.111 6.656 7.281 3.329 2.1 6.586 4.62 6.586 9.521 0 6.86-5.028 10.361-11.614 10.361-2.125 0-3.541-.21-4.673-.56-.567-.14-1.063-.28-1.488-.42-.424-.21-.708-.56-.849-2.101-.072-.839-.072-2.1-.072-3.99 0-3.22.213-3.99.851-3.99.85 0 .991.91 2.053 3.99 1.134 2.87 2.762 5.111 5.311 5.111 3.045 0 4.887-2.101 4.887-5.111 0-4.2-3.258-6.091-6.516-8.191-3.328-2.03-6.586-4.34-6.586-9.311v-.07M433.712 48.006h.252c.294 0 .532-.098.532-.336 0-.21-.154-.35-.49-.35-.141 0-.238.014-.294.028v.658zm-.015 1.303h-.532v-2.297c.21-.042.505-.07.883-.07.434 0 .63.07.798.168.127.098.224.28.224.504 0 .252-.196.448-.476.532v.028c.224.084.35.253.421.561.069.35.111.49.168.574h-.575c-.07-.084-.112-.294-.182-.56-.042-.252-.182-.364-.477-.364h-.252v.924zm-1.414-1.204c0 1.022.756 1.834 1.793 1.834 1.008 0 1.751-.812 1.751-1.82 0-1.023-.743-1.849-1.765-1.849-1.023 0-1.779.826-1.779 1.835zm4.132 0c0 1.302-1.022 2.325-2.353 2.325-1.317 0-2.368-1.023-2.368-2.325 0-1.275 1.051-2.298 2.368-2.298 1.331 0 2.353 1.023 2.353 2.298z"></path>
      </g>
</svg>
